<?xml version="1.0" encoding="UTF-8"?>
<svg width="700pt" height="700pt" version="1.1" viewBox="0 0 700 700" xmlns="http://www.w3.org/2000/svg">
 <path d="m158.8 103.77h-36.297v-35h141.23v-17.5c0-28.277 23.012-51.273 51.273-51.273h70c28.262 0 51.273 22.996 51.273 51.273v17.5h141.23v35h-36.297l-31.078 403.94c-2.1523 28.156-26.879 51.062-55.125 51.062h-210c-28.246 0-52.973-22.906-55.125-51.062zm35.102 0h312.2l-30.871 401.28c-0.76953 9.9727-10.219 18.723-20.23 18.723h-210c-10.012 0-19.461-8.75-20.23-18.742zm102.38-35h107.45v-17.5c0-10.324-8.4023-18.723-18.727-18.723h-70c-10.324 0-18.727 8.3984-18.727 18.723zm-33.773 105h35v280h-35zm70 0h35v280h-35zm70 0h35v280h-35z" fill-rule="evenodd"/>
</svg>
