<?xml version="1.0" encoding="UTF-8" standalone="no"?>
<svg
   width="40.725262pt"
   height="49.5pt"
   version="1.1"
   viewBox="0 0 40.725262 49.5"
   id="svg826"
   sodipodi:docname="trashcan.svg"
   inkscape:version="1.1.2 (b8e25be8, 2022-02-05)"
   xmlns:inkscape="http://www.inkscape.org/namespaces/inkscape"
   xmlns:sodipodi="http://sodipodi.sourceforge.net/DTD/sodipodi-0.dtd"
   xmlns="http://www.w3.org/2000/svg"
   xmlns:svg="http://www.w3.org/2000/svg">
  <defs
     id="defs830" />
  <sodipodi:namedview
     id="namedview828"
     pagecolor="#ffffff"
     bordercolor="#666666"
     borderopacity="1.0"
     inkscape:pageshadow="2"
     inkscape:pageopacity="0.0"
     inkscape:pagecheckerboard="0"
     inkscape:document-units="pt"
     showgrid="false"
     inkscape:zoom="0.38517857"
     inkscape:cx="-49.32777"
     inkscape:cy="207.69587"
     inkscape:window-width="1445"
     inkscape:window-height="948"
     inkscape:window-x="0"
     inkscape:window-y="25"
     inkscape:window-maximized="0"
     inkscape:current-layer="svg826"
     fit-margin-top="0"
     fit-margin-left="0"
     fit-margin-right="0"
     fit-margin-bottom="0" />
  <path
     d="M 4.19419,9.89998 H 1.12491 V 6.94038 H 13.06737 V 5.46057 c 0,-2.39111 1.9459,-4.33566 4.33564,-4.33566 h 5.91924 c 2.38983,0 4.33564,1.94455 4.33564,4.33566 v 1.47981 h 11.94246 v 2.9596 h -3.06928 l -2.62797,34.1573 c -0.18201,2.38088 -2.27289,4.31781 -4.66138,4.31781 H 11.48405 c -2.38849,0 -4.4794,-1.93693 -4.66139,-4.31781 z m 2.96823,0 h 26.39973 l -2.61046,33.93236 c -0.0651,0.8433 -0.86411,1.58324 -1.71065,1.58324 H 11.48338 c -0.84663,0 -1.64563,-0.73991 -1.71065,-1.58485 z m 8.65729,-2.9596 h 9.08601 V 5.46057 c 0,-0.87301 -0.7105,-1.58323 -1.58356,-1.58323 h -5.91924 c -0.873,0 -1.58354,0.71017 -1.58354,1.58323 z m -2.85586,8.87883 h 2.95961 v 23.67688 h -2.95961 z m 5.91923,0 h 2.9596 v 23.67688 h -2.9596 z m 5.91922,0 h 2.9596 v 23.67688 h -2.9596 z"
     fill-rule="evenodd"
     id="path824"
     style="stroke:#000000;stroke-width:2.24982;stroke-miterlimit:4;stroke-dasharray:none;stroke-opacity:0" />
</svg>
