<svg xmlns="http://www.w3.org/2000/svg" xmlns:xlink="http://www.w3.org/1999/xlink" version="1.1" x="0px" y="0px" width="100px" height="100px" viewBox="5.0 -10.0 100.0 135.0" enable-background="new 0 0 100 100" xml:space="preserve">
<g id="Captions">
</g>
<g id="Layer_7" display="none">
</g>
<g id="Your_Icon" display="none">
	<path display="inline" d="M85.982,44.131l-17.99,10.98V42.99h-9.865c3.65-1.479,6.232-5.045,6.232-9.23   c0-5.502-4.463-9.963-9.967-9.963c-5.5,0-9.959,4.461-9.959,9.963c0,4.186,2.58,7.752,6.229,9.23H33.111   c5.209-1.801,8.953-6.732,8.953-12.549c0-7.34-5.947-13.289-13.289-13.289c-7.334,0-13.283,5.949-13.283,13.289   c0,5.816,3.744,10.748,8.951,12.549H14.018v39.857h53.975V70.729l17.99,10.98V44.131z"/>
</g>
<g id="Layer_6" display="none">
	<path display="inline" d="M81.328,43.762l-10.009-18.77H59.981v-8.285H40.019v8.285H28.676l-10.007,18.77h-4.605v28.746h7.186   v10.785h9.582V72.508h38.331v10.785h9.583V72.508h7.191V43.762H81.328z M32.985,32.186h34.021l6.174,11.576H26.814L32.985,32.186z    M26.043,64.119c-3.309,0-5.992-2.676-5.992-5.984s2.684-5.99,5.992-5.99c3.308,0,5.988,2.682,5.988,5.99   S29.351,64.119,26.043,64.119z M73.958,64.119c-3.312,0-5.989-2.676-5.989-5.984s2.677-5.99,5.989-5.99   c3.306,0,5.986,2.682,5.986,5.99S77.264,64.119,73.958,64.119z"/>
</g>
<g id="Layer_5" display="none">
	<polygon display="inline" points="14.018,26.012 85.982,50.004 14.018,73.988 33.318,50.004  "/>
	<path display="inline" d="M1.197,69.524"/>
</g>
<g id="Layer_4">
	<polygon points="53.704,14.02 85.982,49.986 53.704,85.98 53.704,63.322 14.018,63.291 14.018,35.68 53.704,35.68  "/>
</g>
<text x="0.0" y="117.5" font-size="5.0" font-weight="bold" font-family="Helvetica Neue, Helvetica, Arial-Unicode, Arial, Sans-serif" fill="#000000">Created by Naomi Atkinson</text><text x="0.0" y="122.5" font-size="5.0" font-weight="bold" font-family="Helvetica Neue, Helvetica, Arial-Unicode, Arial, Sans-serif" fill="#000000">from the Noun Project</text></svg>