<svg xmlns="http://www.w3.org/2000/svg" xmlns:xlink="http://www.w3.org/1999/xlink" version="1.1" id="Layer_1" x="0px" y="0px" width="100.0px" height="100px" viewBox="25.6 -51.2 512.0 691.2" enable-background="new 0 0 512 512" xml:space="preserve">
<g>
	<path d="M384,352v-64h-51.844c-3.656-16-10.031-30.906-18.5-44.375l36.75-36.75l-45.281-45.25l-36.734,36.719   C254.906,189.875,240,183.5,224,179.844V128h-64v51.844c-16,3.656-30.906,10.031-44.391,18.531l-36.75-36.75l-45.25,45.25   l36.75,36.75C61.875,257.094,55.5,272,51.844,288H0v64h51.844c3.656,16,10.016,30.906,18.5,44.375l-36.734,36.75l45.25,45.281   l36.75-36.75C129.094,450.125,144,456.5,160,460.156V512h64v-51.844c16-3.656,30.891-10.031,44.375-18.5l36.75,36.75l45.281-45.281   l-36.75-36.75c8.469-13.5,14.844-28.375,18.5-44.375H384z M192,400c-44.188,0-80-35.813-80-80s35.813-80,80-80s80,35.813,80,80   S236.188,400,192,400z"/>
	<path d="M512,112V80h-25.938c-1.813-8-5-15.438-9.25-22.188l18.375-18.375l-22.625-22.625l-18.375,18.375   c-6.75-4.25-14.188-7.438-22.188-9.25V0h-32v25.938c-8,1.813-15.438,5-22.188,9.25l-18.375-18.375l-22.625,22.625l18.375,18.375   c-4.25,6.75-7.438,14.188-9.25,22.188H320v32h25.938c1.813,8,5,15.438,9.25,22.188l-18.375,18.375l22.625,22.625l18.375-18.375   c6.75,4.25,14.188,7.438,22.188,9.25V192h32v-25.938c8-1.813,15.438-5,22.188-9.25l18.375,18.375l22.625-22.625l-18.375-18.375   c4.25-6.75,7.438-14.188,9.25-22.188H512z M416,136c-22.094,0-40-17.906-40-40s17.906-40,40-40s40,17.906,40,40   S438.094,136,416,136z"/>
</g>
<text x="0.0" y="601.6" font-size="25.6" font-weight="bold" font-family="Helvetica Neue, Helvetica, Arial-Unicode, Arial, Sans-serif" fill="#000000">Created by Simple Icons</text><text x="0.0" y="627.2" font-size="25.6" font-weight="bold" font-family="Helvetica Neue, Helvetica, Arial-Unicode, Arial, Sans-serif" fill="#000000">from the Noun Project</text></svg>