<?xml version="1.0" encoding="UTF-8" standalone="no"?>
<svg
   version="1.1"
   id="Layer_1"
   x="0px"
   y="0px"
   width="100"
   height="100"
   viewBox="5 -10 100 135"
   enable-background="new 0 0 100 100"
   xml:space="preserve"
   sodipodi:docname="help.svg"
   inkscape:version="1.3.2 (091e20e, 2023-11-25)"
   xmlns:inkscape="http://www.inkscape.org/namespaces/inkscape"
   xmlns:sodipodi="http://sodipodi.sourceforge.net/DTD/sodipodi-0.dtd"
   xmlns="http://www.w3.org/2000/svg"
   xmlns:svg="http://www.w3.org/2000/svg"><defs
   id="defs3" /><sodipodi:namedview
   id="namedview3"
   pagecolor="#ffffff"
   bordercolor="#666666"
   borderopacity="1.0"
   inkscape:showpageshadow="2"
   inkscape:pageopacity="0.0"
   inkscape:pagecheckerboard="0"
   inkscape:deskcolor="#d1d1d1"
   inkscape:zoom="2.36"
   inkscape:cx="41.101695"
   inkscape:cy="39.194915"
   inkscape:window-width="1056"
   inkscape:window-height="654"
   inkscape:window-x="0"
   inkscape:window-y="25"
   inkscape:window-maximized="0"
   inkscape:current-layer="Layer_1" />

<g
   id="g2"
   style="stroke:#000000;stroke-width:3.762;stroke-dasharray:none;stroke-opacity:0"
   transform="matrix(1.0798618,0,0,1.0798618,6.4062179,9.9860801)"><g
     id="g1"
     transform="translate(-4.9999971,-6.0000034)"
     style="stroke:#000000;stroke-width:3.762;stroke-dasharray:none;stroke-opacity:0">
	
	
<path
   d="m 63.368162,37.992386 q 0,3.100781 -1.107422,5.537109 -1.107422,2.404688 -2.910938,4.271485 -1.771875,1.803516 -4.081641,3.385547 -2.309765,1.582031 -4.904297,3.069141 v 7.119141 h -5.663672 v -9.650391 q 2.056641,-1.170704 4.429688,-2.562891 2.404687,-1.392188 3.923438,-2.816016 1.835156,-1.645312 2.847656,-3.385547 1.0125,-1.771875 1.0125,-4.492969 0,-3.575391 -2.436328,-5.315625 -2.404688,-1.771875 -6.233204,-1.771875 -3.417187,0 -6.486328,1.075781 -3.0375,1.075781 -4.809375,2.183203 h -0.316407 v -6.454688 q 2.214844,-0.854296 5.600391,-1.51875 3.417188,-0.696093 6.454688,-0.696093 6.802735,0 10.726172,3.322265 3.955079,3.290626 3.955079,8.701173 z M 50.870114,74.031059 h -6.454688 v -6.676172 h 6.454688 z"
   id="text1"
   style="font-size:64.8px;line-height:1.25;font-family:Verdana;-inkscape-font-specification:'Verdana, Normal';word-spacing:0px"
   aria-label="?" /></g><path
     d="m 45.000001,4 c 22.056,0 39.999997,17.944 39.999997,40 0,22.056 -17.943997,40 -39.999997,40 -22.056,0 -39.999999,-17.944 -39.999999,-40 0,-22.056 17.943999,-40 39.999999,-40 m 0,-5 C 20.147001,-1 2e-6,19.147 2e-6,44 c 0,24.853 20.146999,45 44.999999,45 24.853,0 44.999997,-20.147 44.999997,-45 0,-24.853 -20.146997,-45 -44.999997,-45 z"
     id="path2"
     style="stroke:#000000;stroke-width:3.762;stroke-dasharray:none;stroke-opacity:0" /></g>
</svg>
