<?xml version="1.0" encoding="UTF-8" standalone="no"?>
<svg
   width="40.654285pt"
   height="49.5pt"
   version="1.1"
   viewBox="0 0 40.654285 49.5"
   id="svg1098"
   sodipodi:docname="interesting.svg"
   inkscape:version="1.1.2 (b8e25be8, 2022-02-05)"
   xmlns:inkscape="http://www.inkscape.org/namespaces/inkscape"
   xmlns:sodipodi="http://sodipodi.sourceforge.net/DTD/sodipodi-0.dtd"
   xmlns="http://www.w3.org/2000/svg"
   xmlns:svg="http://www.w3.org/2000/svg">
  <sodipodi:namedview
     id="namedview1100"
     pagecolor="#ffffff"
     bordercolor="#666666"
     borderopacity="1.0"
     inkscape:pageshadow="2"
     inkscape:pageopacity="0.0"
     inkscape:pagecheckerboard="0"
     inkscape:document-units="px"
     showgrid="false"
     inkscape:zoom="2.178899"
     inkscape:cx="47.042106"
     inkscape:cy="43.829475"
     inkscape:window-width="1448"
     inkscape:window-height="941"
     inkscape:window-x="0"
     inkscape:window-y="25"
     inkscape:window-maximized="0"
     inkscape:current-layer="svg1098"
     fit-margin-top="0"
     fit-margin-left="0"
     fit-margin-right="0"
     fit-margin-bottom="0" />
  <defs
     id="defs1076">
    <symbol
       id="f"
       overflow="visible">
      <path
         d="m 39.078,-2.3281 c -2.0117,1.043 -4.1094,1.8281 -6.2969,2.3594 -2.1875,0.5313 -4.4648,0.79688 -6.8281,0.79688 -7.0859,0 -12.699,-1.9766 -16.844,-5.9375 -4.1367,-3.957 -6.2031,-9.3281 -6.2031,-16.109 0,-6.7891 2.0664,-12.164 6.2031,-16.125 4.1445,-3.9688 9.7578,-5.9531 16.844,-5.9531 2.3633,0 4.6406,0.26562 6.8281,0.79688 2.1875,0.53126 4.2852,1.3242 6.2969,2.375 v 8.7969 c -2.0312,-1.3828 -4.0391,-2.3984 -6.0156,-3.0469 -1.9688,-0.64453 -4.0469,-0.96875 -6.2344,-0.96875 -3.9062,0 -6.9844,1.2578 -9.2344,3.7656 -2.2422,2.5 -3.3594,5.9531 -3.3594,10.359 0,4.3867 1.1172,7.8359 3.3594,10.344 2.25,2.5 5.3281,3.75 9.2344,3.75 2.1875,0 4.2656,-0.32031 6.2344,-0.96875 1.9766,-0.64453 3.9844,-1.6602 6.0156,-3.0469 z"
         id="path1058" />
    </symbol>
    <symbol
       id="e"
       overflow="visible">
      <path
         d="m 16.031,-40.953 v 9.0625 h 10.516 v 7.2812 H 16.031 v 13.531 c 0,1.4805 0.28906,2.4805 0.875,3 0.59375,0.52344 1.7656,0.78125 3.5156,0.78125 h 5.2344 v 7.2969 h -8.7344 c -4.0312,0 -6.8867,-0.83594 -8.5625,-2.5156 -1.6797,-1.6875 -2.5156,-4.5391 -2.5156,-8.5625 v -13.531 H 0.7654 v -7.2812 h 5.0781 v -9.0625 z"
         id="path1061" />
    </symbol>
    <symbol
       id="d"
       overflow="visible">
      <path
         d="M 26.594,-27.234 V -44.312 H 36.86 V 0 H 26.594 v -4.6094 c -1.3984,1.875 -2.9453,3.25 -4.6406,4.125 -1.6875,0.875 -3.6406,1.3125 -5.8594,1.3125 -3.9297,0 -7.1562,-1.5625 -9.6875,-4.6875 -2.5234,-3.125 -3.7812,-7.1445 -3.7812,-12.062 0,-4.9141 1.2578,-8.9375 3.7812,-12.062 2.5312,-3.125 5.7578,-4.6875 9.6875,-4.6875 2.1953,0 4.1445,0.44531 5.8438,1.3281 1.707,0.88672 3.2578,2.2578 4.6562,4.1094 z m -6.7188,20.656 c 2.1875,0 3.8516,-0.79688 5,-2.3906 1.1445,-1.5938 1.7188,-3.9102 1.7188,-6.9531 0,-3.0391 -0.57422,-5.3594 -1.7188,-6.9531 -1.1484,-1.5938 -2.8125,-2.3906 -5,-2.3906 -2.168,0 -3.8242,0.79688 -4.9688,2.3906 -1.1484,1.5938 -1.7188,3.9141 -1.7188,6.9531 0,3.043 0.57031,5.3594 1.7188,6.9531 1.1445,1.5938 2.8008,2.3906 4.9688,2.3906 z"
         id="path1064" />
    </symbol>
    <symbol
       id="c"
       overflow="visible">
      <path
         d="m 21.875,-6.5781 c 2.1758,0 3.8359,-0.79688 4.9844,-2.3906 1.1562,-1.5938 1.7344,-3.9102 1.7344,-6.9531 0,-3.0391 -0.57812,-5.3594 -1.7344,-6.9531 -1.1484,-1.5938 -2.8086,-2.3906 -4.9844,-2.3906 -2.1875,0 -3.8672,0.80469 -5.0312,2.4062 -1.168,1.6055 -1.75,3.918 -1.75,6.9375 0,3.0234 0.58203,5.3359 1.75,6.9375 1.1641,1.6055 2.8438,2.4062 5.0312,2.4062 z m -6.7812,-20.656 c 1.4062,-1.8516 2.9609,-3.2227 4.6719,-4.1094 1.707,-0.88281 3.6719,-1.3281 5.8906,-1.3281 3.9375,0 7.1641,1.5625 9.6875,4.6875 2.5195,3.125 3.7812,7.1484 3.7812,12.062 0,4.918 -1.2617,8.9375 -3.7812,12.062 -2.5234,3.125 -5.75,4.6875 -9.6875,4.6875 -2.2188,0 -4.1836,-0.44531 -5.8906,-1.3281 -1.7109,-0.88281 -3.2656,-2.2539 -4.6719,-4.1094 V -7e-4 H 4.9058 v -44.312 h 10.188 z"
         id="path1067" />
    </symbol>
    <symbol
       id="b"
       overflow="visible">
      <path
         d="m 5.3594,-42.516 h 13.953 l 9.6875,22.75 9.7344,-22.75 h 13.922 V 0 H 42.2973 V -31.094 L 32.5004,-8.172 H 25.5473 L 15.7504,-31.094 V 0 H 5.3594 Z"
         id="path1070" />
    </symbol>
    <symbol
       id="a"
       overflow="visible">
      <path
         d="M 36.969,-19.422 V 0 h -10.25 v -14.812 c 0,-2.7891 -0.0625,-4.707 -0.1875,-5.75 -0.125,-1.0391 -0.33984,-1.8125 -0.64062,-2.3125 -0.39844,-0.65625 -0.9375,-1.1719 -1.625,-1.5469 -0.6875,-0.375 -1.4648,-0.5625 -2.3281,-0.5625 -2.1367,0 -3.8125,0.82422 -5.0312,2.4688 -1.2109,1.6484 -1.8125,3.9219 -1.8125,6.8281 V 0.001 h -10.188 v -44.312 h 10.188 v 17.078 c 1.5391,-1.8516 3.1719,-3.2227 4.8906,-4.1094 1.7266,-0.88281 3.6406,-1.3281 5.7344,-1.3281 3.6875,0 6.4844,1.1328 8.3906,3.3906 1.9062,2.2617 2.8594,5.5469 2.8594,9.8594 z"
         id="path1073" />
    </symbol>
  </defs>
  <g
     id="g1433"
     style="stroke:#000000;stroke-width:24.825;stroke-miterlimit:4;stroke-dasharray:none;stroke-opacity:0"
     transform="matrix(0.09062714,0,0,0.09062714,-11.393417,-0.62491941)">
    <path
       d="m 138.13,490.14 c 0,-26.984 18.727,-46.457 44.203,-46.457 26.973,0 44.191,19.484 44.191,46.457 0,26.203 -17.23,46.434 -44.191,46.434 -26.223,0 -44.203,-20.23 -44.203,-46.434 z M 156.857,382.99 146.38,23.42 h 71.914 l -10.488,359.57 z"
       id="path1078"
       style="stroke:#000000;stroke-width:24.825;stroke-miterlimit:4;stroke-dasharray:none;stroke-opacity:0" />
    <path
       d="m 436.78,19.309 c -39.715,0 -82.402,11.98 -107.12,29.961 l 17.977,47.191 c 18.738,-14.234 48.695,-23.215 75.66,-23.215 47.215,0.74609 71.191,26.215 71.191,64.422 0,33.703 -18.727,62.93 -52.453,102.62 -37.461,44.953 -50.949,89.156 -46.434,129.59 l 1.4805,19.484 h 58.449 l -0.74609,-19.484 c -2.2266,-38.195 9.7539,-71.168 42.699,-110.11 35.957,-42.699 64.41,-79.414 64.41,-130.35 -0.0195,-56.926 -38.965,-110.11 -125.11,-110.11 z"
       id="path1080"
       style="stroke:#000000;stroke-width:24.825;stroke-miterlimit:4;stroke-dasharray:none;stroke-opacity:0" />
    <path
       d="m 425.54,447.04 c -26.227,0 -44.965,19.473 -44.965,47.203 0,26.203 17.977,46.434 44.203,46.434 27.73,0 44.965,-20.23 44.965,-46.434 0,-27.73 -17.977,-47.203 -44.203,-47.203 z"
       id="path1082"
       style="stroke:#000000;stroke-width:24.825;stroke-miterlimit:4;stroke-dasharray:none;stroke-opacity:0" />
  </g>
</svg>
