<?xml version="1.0" encoding="UTF-8" standalone="no"?>
<svg
   width="40.654285pt"
   height="49.5pt"
   version="1.1"
   viewBox="0 0 40.654285 49.5"
   id="svg1098"
   sodipodi:docname="interesting.svg"
   inkscape:version="1.3.2 (091e20e, 2023-11-25)"
   xmlns:inkscape="http://www.inkscape.org/namespaces/inkscape"
   xmlns:sodipodi="http://sodipodi.sourceforge.net/DTD/sodipodi-0.dtd"
   xmlns="http://www.w3.org/2000/svg"
   xmlns:svg="http://www.w3.org/2000/svg">
  <sodipodi:namedview
     id="namedview1100"
     pagecolor="#ffffff"
     bordercolor="#666666"
     borderopacity="1.0"
     inkscape:pageshadow="2"
     inkscape:pageopacity="0.0"
     inkscape:pagecheckerboard="0"
     inkscape:document-units="px"
     showgrid="false"
     inkscape:zoom="2.178899"
     inkscape:cx="46.812633"
     inkscape:cy="43.600002"
     inkscape:window-width="1448"
     inkscape:window-height="941"
     inkscape:window-x="0"
     inkscape:window-y="25"
     inkscape:window-maximized="0"
     inkscape:current-layer="svg1098"
     fit-margin-top="0"
     fit-margin-left="0"
     fit-margin-right="0"
     fit-margin-bottom="0"
     inkscape:showpageshadow="2"
     inkscape:deskcolor="#d1d1d1" />
  <defs
     id="defs1076" />
  <g
     id="g1433"
     style="stroke:#000000;stroke-width:24.825;stroke-miterlimit:4;stroke-dasharray:none;stroke-opacity:0"
     transform="matrix(0.09062714,0,0,0.09062714,-11.393417,-0.62491941)">
    <path
       d="m 138.13,490.14 c 0,-26.984 18.727,-46.457 44.203,-46.457 26.973,0 44.191,19.484 44.191,46.457 0,26.203 -17.23,46.434 -44.191,46.434 -26.223,0 -44.203,-20.23 -44.203,-46.434 z M 156.857,382.99 146.38,23.42 h 71.914 l -10.488,359.57 z"
       id="path1078"
       style="stroke:#000000;stroke-width:24.825;stroke-miterlimit:4;stroke-dasharray:none;stroke-opacity:0" />
    <path
       d="m 436.78,19.309 c -39.715,0 -82.402,11.98 -107.12,29.961 l 17.977,47.191 c 18.738,-14.234 48.695,-23.215 75.66,-23.215 47.215,0.74609 71.191,26.215 71.191,64.422 0,33.703 -18.727,62.93 -52.453,102.62 -37.461,44.953 -50.949,89.156 -46.434,129.59 l 1.4805,19.484 h 58.449 l -0.74609,-19.484 c -2.2266,-38.195 9.7539,-71.168 42.699,-110.11 35.957,-42.699 64.41,-79.414 64.41,-130.35 -0.0195,-56.926 -38.965,-110.11 -125.11,-110.11 z"
       id="path1080"
       style="stroke:#000000;stroke-width:24.825;stroke-miterlimit:4;stroke-dasharray:none;stroke-opacity:0" />
    <path
       d="m 425.54,447.04 c -26.227,0 -44.965,19.473 -44.965,47.203 0,26.203 17.977,46.434 44.203,46.434 27.73,0 44.965,-20.23 44.965,-46.434 0,-27.73 -17.977,-47.203 -44.203,-47.203 z"
       id="path1082"
       style="stroke:#000000;stroke-width:24.825;stroke-miterlimit:4;stroke-dasharray:none;stroke-opacity:0" />
  </g>
</svg>
