<?xml version="1.0" encoding="UTF-8" standalone="no"?>
<svg
   width="65.25pt"
   height="49.500259pt"
   version="1.1"
   viewBox="0 0 65.249999 49.50026"
   id="svg969"
   sodipodi:docname="stones-overlapping-black-and-white-icon.svg"
   inkscape:version="1.3.2 (091e20e, 2023-11-25)"
   xmlns:inkscape="http://www.inkscape.org/namespaces/inkscape"
   xmlns:sodipodi="http://sodipodi.sourceforge.net/DTD/sodipodi-0.dtd"
   xmlns="http://www.w3.org/2000/svg"
   xmlns:svg="http://www.w3.org/2000/svg">
  <sodipodi:namedview
     id="namedview971"
     pagecolor="#ffffff"
     bordercolor="#666666"
     borderopacity="1.0"
     inkscape:pageshadow="2"
     inkscape:pageopacity="0.0"
     inkscape:pagecheckerboard="0"
     inkscape:document-units="px"
     showgrid="false"
     fit-margin-top="0"
     fit-margin-left="0"
     fit-margin-right="0"
     fit-margin-bottom="0"
     inkscape:zoom="6.3196107"
     inkscape:cx="44.306527"
     inkscape:cy="39.005567"
     inkscape:window-width="1520"
     inkscape:window-height="980"
     inkscape:window-x="0"
     inkscape:window-y="25"
     inkscape:window-maximized="0"
     inkscape:current-layer="svg969"
     inkscape:showpageshadow="2"
     inkscape:deskcolor="#d1d1d1" />
  <defs
     id="defs881" />
  <g
     id="g1403"
     style="stroke-width:2.25;stroke-miterlimit:4;stroke-dasharray:none">
    <path
       id="path883"
       style="stroke:#000000;stroke-width:2.25;stroke-miterlimit:4;stroke-dasharray:none;stroke-opacity:0"
       d="m 24.749997,1.1249963 c -13.098805,0 -23.6250007,10.6038867 -23.6250007,23.6250007 0,13.098804 10.6038867,23.625 23.6250007,23.625 2.908152,0 5.687425,-0.524815 8.252929,-1.480957 C 24.033622,43.556568 17.624996,34.932004 17.624996,24.749997 H 3.4643517 V 24.125973 C 3.7760106,12.664264 13.210337,3.4643517 24.749997,3.4643517 c 1.739826,0 3.431698,0.2139618 5.05371,0.6108399 C 30.828469,3.5071167 31.89981,3.0130317 33.011715,2.600094 30.442386,1.6478756 27.660627,1.1249963 24.749997,1.1249963 Z" />
    <path
       d="m 40.500121,1.1249952 c -13.098804,0 -23.625126,10.6040218 -23.625126,23.6251358 0,13.098804 10.604012,23.625135 23.625126,23.625135 11.773438,0 21.441943,-8.577058 23.313237,-19.726599 0.233869,-1.247656 0.311648,-2.573031 0.311648,-3.898536 0,-13.098804 -10.526321,-23.6251358 -23.625125,-23.6251358 z M 19.214107,24.126373 C 19.525766,12.664664 28.960462,3.4641272 40.500121,3.4641272 c 11.695609,0 21.286004,9.5124258 21.286004,21.2080338 v 0.0778 H 19.214107 v -0.623838 z"
       id="path948"
       style="stroke:#000000;stroke-width:2.25;stroke-miterlimit:4;stroke-dasharray:none;stroke-opacity:0" />
  </g>
</svg>
