<?xml version="1.0" encoding="UTF-8" standalone="no"?>
<!-- Created with Inkscape (http://www.inkscape.org/) -->

<svg
   width="24.031065mm"
   height="17.462502mm"
   viewBox="0 0 24.031066 17.462502"
   version="1.1"
   id="svg891"
   inkscape:version="1.1.2 (b8e25be8, 2022-02-05)"
   sodipodi:docname="stones-overlapping-white-icon.svg"
   xmlns:inkscape="http://www.inkscape.org/namespaces/inkscape"
   xmlns:sodipodi="http://sodipodi.sourceforge.net/DTD/sodipodi-0.dtd"
   xmlns="http://www.w3.org/2000/svg"
   xmlns:svg="http://www.w3.org/2000/svg"
   xmlns:rdf="http://www.w3.org/1999/02/22-rdf-syntax-ns#"
   xmlns:cc="http://creativecommons.org/ns#"
   xmlns:dc="http://purl.org/dc/elements/1.1/">
  <defs
     id="defs885" />
  <sodipodi:namedview
     id="base"
     pagecolor="#ffffff"
     bordercolor="#666666"
     borderopacity="1.0"
     inkscape:pageopacity="0.0"
     inkscape:pageshadow="2"
     inkscape:zoom="6.9162083"
     inkscape:cx="31.303279"
     inkscape:cy="37.375971"
     inkscape:document-units="px"
     inkscape:current-layer="layer1"
     showgrid="false"
     fit-margin-top="0"
     fit-margin-left="0"
     fit-margin-right="0"
     fit-margin-bottom="0"
     inkscape:window-width="1312"
     inkscape:window-height="969"
     inkscape:window-x="0"
     inkscape:window-y="25"
     inkscape:window-maximized="0"
     inkscape:pagecheckerboard="0" />
  <metadata
     id="metadata888">
    <rdf:RDF>
      <cc:Work
         rdf:about="">
        <dc:format>image/svg+xml</dc:format>
        <dc:type
           rdf:resource="http://purl.org/dc/dcmitype/StillImage" />
      </cc:Work>
    </rdf:RDF>
  </metadata>
  <g
     inkscape:label="Layer 1"
     inkscape:groupmode="layer"
     id="layer1"
     transform="translate(-98.20644,-34.521089)">
    <g
       id="g3625"
       transform="matrix(1.0000077,0,0,1.0000768,-8.5283659e-4,-0.00331965)"
       style="stroke-width:0.793724;stroke-miterlimit:4;stroke-dasharray:none">
      <path
         id="path67"
         style="fill:#000000;stroke:#000000;stroke-width:0.793724;stroke-miterlimit:4;stroke-dasharray:none;stroke-opacity:0"
         d="m 106.93725,34.918855 c -4.59497,0 -8.333851,3.737783 -8.333851,8.333342 0,4.595558 3.738881,8.333858 8.333851,8.333858 1.22562,0 2.39045,-0.266345 3.43959,-0.743624 -0.25123,-0.114294 -0.49556,-0.241019 -0.73278,-0.378788 -0.84252,0.317233 -1.75474,0.491959 -2.70681,0.491959 -4.24772,0 -7.703394,-3.456215 -7.703394,-7.703922 0,-4.247114 3.455674,-7.702889 7.703394,-7.702889 0.95224,0 1.86468,0.174103 2.70733,0.491443 0.23703,-0.137637 0.48124,-0.264076 0.73226,-0.378272 -1.04917,-0.477228 -2.21382,-0.743107 -3.43959,-0.743107 z" />
      <path
         d="m 101.41449,42.749735 c -0.1114,4.053333 2.70341,5.685334 2.82312,5.752891 l 0.90606,0.510224 -0.47051,-0.927411 c -1.72681,-3.402666 -1.36593,-7.908744 0.83912,-10.4806 l 1.02222,-1.191701 -1.40268,0.705184 c -0.14814,0.07465 -3.61304,1.859557 -3.71733,5.631413 z m 2.17245,4.400596 c -0.73126,-0.786966 -1.60237,-2.192004 -1.54194,-4.383412 0.0521,-1.882667 1.07615,-3.237928 1.98164,-4.073485 -1.2717,2.43852 -1.44949,5.636745 -0.4397,8.456897 z"
         id="path69"
         inkscape:connector-curvature="0"
         style="fill:#000000;stroke:#000000;stroke-width:0.793724;stroke-miterlimit:4;stroke-dasharray:none;stroke-opacity:0"
         inkscape:export-filename="/Users/patrick/dev/littlego/resource/icon/go-motifs/white-stone.png"
         inkscape:export-xdpi="96"
         inkscape:export-ydpi="96" />
      <g
         id="g1201"
         transform="translate(2.864675)"
         style="stroke-width:0.793724;stroke-miterlimit:4;stroke-dasharray:none">
        <path
           d="m 110.64165,34.918619 c -4.59497,0 -8.33424,3.738074 -8.33424,8.333633 0,4.595559 3.73927,8.333633 8.33424,8.333633 4.59497,0 8.33423,-3.738667 8.33423,-8.333633 0,-4.595559 -3.73869,-8.333633 -8.33423,-8.333633 z m 0,16.036748 c -4.24772,0 -7.70372,-3.456001 -7.70372,-7.703708 0,-4.247114 3.456,-7.703115 7.70372,-7.703115 4.24771,0 7.70371,3.456001 7.70371,7.703115 0,4.247707 -3.456,7.703708 -7.70371,7.703708 z"
           id="path1197"
           inkscape:connector-curvature="0"
           style="fill:#000000;stroke:#000000;stroke-width:0.793724;stroke-miterlimit:4;stroke-dasharray:none;stroke-opacity:0"
           inkscape:export-filename="/Users/patrick/dev/littlego/resource/icon/go-motifs/white-stone.png"
           inkscape:export-xdpi="96"
           inkscape:export-ydpi="96" />
        <path
           d="m 105.11868,42.749735 c -0.1114,4.053333 2.70341,5.685334 2.82312,5.752891 l 0.90606,0.510224 -0.47051,-0.927411 c -1.72681,-3.402666 -1.36593,-7.908744 0.83912,-10.4806 l 1.02222,-1.191701 -1.40268,0.705184 c -0.14814,0.07465 -3.61304,1.859557 -3.71733,5.631413 z m 2.17245,4.400596 c -0.73126,-0.786966 -1.60237,-2.192004 -1.54194,-4.383412 0.0521,-1.882667 1.07615,-3.237928 1.98164,-4.073485 -1.2717,2.43852 -1.44949,5.636745 -0.4397,8.456897 z"
           id="path1199"
           inkscape:connector-curvature="0"
           style="fill:#000000;stroke:#000000;stroke-width:0.793724;stroke-miterlimit:4;stroke-dasharray:none;stroke-opacity:0"
           inkscape:export-filename="/Users/patrick/dev/littlego/resource/icon/go-motifs/white-stone.png"
           inkscape:export-xdpi="96"
           inkscape:export-ydpi="96" />
      </g>
    </g>
  </g>
</svg>
