<?xml version="1.0" encoding="UTF-8" standalone="no"?>
<svg
   width="48.027466pt"
   height="49.5pt"
   version="1.1"
   viewBox="0 0 48.027466 49.5"
   id="svg1938"
   sodipodi:docname="doubtful.svg"
   inkscape:version="1.3.2 (091e20e, 2023-11-25)"
   xmlns:inkscape="http://www.inkscape.org/namespaces/inkscape"
   xmlns:sodipodi="http://sodipodi.sourceforge.net/DTD/sodipodi-0.dtd"
   xmlns="http://www.w3.org/2000/svg"
   xmlns:svg="http://www.w3.org/2000/svg">
  <sodipodi:namedview
     id="namedview1940"
     pagecolor="#ffffff"
     bordercolor="#666666"
     borderopacity="1.0"
     inkscape:pageshadow="2"
     inkscape:pageopacity="0.0"
     inkscape:pagecheckerboard="0"
     inkscape:document-units="px"
     showgrid="false"
     inkscape:zoom="2.4865144"
     inkscape:cx="27.749688"
     inkscape:cy="22.722571"
     inkscape:window-width="1472"
     inkscape:window-height="960"
     inkscape:window-x="0"
     inkscape:window-y="25"
     inkscape:window-maximized="0"
     inkscape:current-layer="svg1938"
     fit-margin-top="0"
     fit-margin-left="0"
     fit-margin-right="0"
     fit-margin-bottom="0"
     inkscape:showpageshadow="2"
     inkscape:deskcolor="#d1d1d1" />
  <defs
     id="defs1842" />
  <g
     id="g2239"
     style="stroke:#000000;stroke-width:17.0649;stroke-miterlimit:4;stroke-dasharray:none;stroke-opacity:0"
     transform="matrix(0.13183926,0,0,0.13183926,-22.13127,-12.165632)">
    <path
       d="m 254.8,442.4 c 0,9.2812 -7.5234,16.801 -16.801,16.801 -9.2776,0 -16.801,-7.5195 -16.801,-16.801 0,-9.2773 7.5234,-16.797 16.801,-16.797 9.2776,0 16.801,7.5195 16.801,16.797"
       id="path1844"
       style="stroke:#000000;stroke-width:17.0649;stroke-miterlimit:4;stroke-dasharray:none;stroke-opacity:0" />
    <path
       d="m 238,235.2 c -16.336,0 -32.004,6.4922 -43.559,18.043 -11.551,11.551 -18.043,27.219 -18.043,43.559 H 210 c 0.004,-6.6328 2.3594,-13.051 6.6523,-18.109 4.293,-5.0586 10.242,-8.4258 16.789,-9.5078 6.543,-1.0781 13.258,0.19922 18.949,3.6094 5.6914,3.4102 9.9844,8.7305 12.121,15.008 2.1328,6.2812 1.9688,13.117 -0.46484,19.289 -2.4375,6.168 -6.9844,11.273 -12.832,14.406 -9.3008,5.2734 -17.004,12.969 -22.289,22.266 -5.2852,9.2969 -7.9531,19.852 -7.7266,30.543 v 12.094 h 33.602 v -12.094 c -0.18359,-4.625 0.86719,-9.2109 3.043,-13.297 2.1719,-4.082 5.3945,-7.5156 9.332,-9.9453 16.234,-8.7227 27.715,-24.258 31.281,-42.34 3.5664,-18.082 -1.1484,-36.809 -12.855,-51.047 -11.707,-14.234 -29.172,-22.48 -47.602,-22.477 z"
       id="path1846"
       style="stroke:#000000;stroke-width:17.0649;stroke-miterlimit:4;stroke-dasharray:none;stroke-opacity:0" />
    <path
       d="m 366.8,308 c 0,9.2773 -7.5234,16.801 -16.801,16.801 -9.2776,0 -16.801,-7.5234 -16.801,-16.801 0,-9.2776 7.5234,-16.801 16.801,-16.801 9.2776,0 16.801,7.5234 16.801,16.801"
       id="path1848"
       style="stroke:#000000;stroke-width:17.0649;stroke-miterlimit:4;stroke-dasharray:none;stroke-opacity:0" />
    <path
       d="m 366.8,239.9 c -0.18359,-4.6211 0.86719,-9.2109 3.043,-13.293 2.1719,-4.0859 5.3945,-7.5156 9.332,-9.9453 12.848,-6.9102 22.828,-18.156 28.16,-31.734 5.332,-13.578 5.6758,-28.609 0.96094,-42.414 -4.7109,-13.805 -14.168,-25.492 -26.691,-32.977 -12.52,-7.4844 -27.293,-10.285 -41.684,-7.8984 -14.391,2.3866 -27.469,9.8047 -36.902,20.93 -9.4375,11.129 -14.617,25.242 -14.621,39.828 h 33.602 c 0.004,-6.6328 2.3594,-13.051 6.6523,-18.105 4.293,-5.0586 10.242,-8.4258 16.789,-9.5078 6.543,-1.082 13.258,0.19922 18.949,3.6094 5.6914,3.4062 9.9844,8.7266 12.121,15.008 2.1328,6.2812 1.9688,13.117 -0.46484,19.285 -2.4375,6.1719 -6.9844,11.277 -12.832,14.41 -9.3008,5.2734 -17.004,12.965 -22.289,22.262 -5.2852,9.2969 -7.9531,19.852 -7.7266,30.543 v 12.098 h 33.602 z"
       id="path1850"
       style="stroke:#000000;stroke-width:17.0649;stroke-miterlimit:4;stroke-dasharray:none;stroke-opacity:0" />
    <path
       d="m 478.8,442.4 c 0,9.2812 -7.5234,16.801 -16.801,16.801 -9.2776,0 -16.801,-7.5195 -16.801,-16.801 0,-9.2773 7.5234,-16.797 16.801,-16.797 9.2776,0 16.801,7.5195 16.801,16.797"
       id="path1852"
       style="stroke:#000000;stroke-width:17.0649;stroke-miterlimit:4;stroke-dasharray:none;stroke-opacity:0" />
    <path
       d="m 462,235.2 c -16.336,0 -32.004,6.4922 -43.559,18.043 -11.551,11.551 -18.043,27.219 -18.043,43.559 H 434 c 0.004,-6.6328 2.3594,-13.051 6.6523,-18.109 4.293,-5.0586 10.242,-8.4258 16.789,-9.5078 6.543,-1.0781 13.258,0.19922 18.949,3.6094 5.6914,3.4102 9.9844,8.7305 12.121,15.008 2.1328,6.2812 1.9688,13.117 -0.46484,19.289 -2.4375,6.168 -6.9844,11.273 -12.832,14.406 -9.3008,5.2734 -17.004,12.969 -22.289,22.266 -5.2852,9.2969 -7.9531,19.852 -7.7266,30.543 v 12.094 h 33.602 v -12.094 c -0.18359,-4.625 0.86719,-9.2109 3.043,-13.297 2.1719,-4.082 5.3945,-7.5156 9.332,-9.9453 16.234,-8.7227 27.715,-24.258 31.281,-42.34 3.5664,-18.082 -1.1484,-36.809 -12.855,-51.047 -11.707,-14.234 -29.172,-22.48 -47.602,-22.477 z"
       id="path1854"
       style="stroke:#000000;stroke-width:17.0649;stroke-miterlimit:4;stroke-dasharray:none;stroke-opacity:0" />
  </g>
</svg>
