<?xml version="1.0" encoding="UTF-8" standalone="no"?>
<svg
   version="1.1"
   id="Layer_1"
   x="0px"
   y="0px"
   width="80"
   height="80"
   viewBox="5 -10 80 108"
   enable-background="new 0 0 100 100"
   xml:space="preserve"
   sodipodi:docname="licenses.svg"
   inkscape:version="1.3.2 (091e20e, 2023-11-25)"
   xmlns:inkscape="http://www.inkscape.org/namespaces/inkscape"
   xmlns:sodipodi="http://sodipodi.sourceforge.net/DTD/sodipodi-0.dtd"
   xmlns="http://www.w3.org/2000/svg"
   xmlns:svg="http://www.w3.org/2000/svg"><defs
   id="defs2" /><sodipodi:namedview
   id="namedview2"
   pagecolor="#ffffff"
   bordercolor="#666666"
   borderopacity="1.0"
   inkscape:showpageshadow="2"
   inkscape:pageopacity="0.0"
   inkscape:pagecheckerboard="0"
   inkscape:deskcolor="#d1d1d1"
   inkscape:zoom="2.36"
   inkscape:cx="50.423729"
   inkscape:cy="50"
   inkscape:window-width="992"
   inkscape:window-height="675"
   inkscape:window-x="0"
   inkscape:window-y="25"
   inkscape:window-maximized="0"
   inkscape:current-layer="Layer_1" />
<path
   fill-rule="evenodd"
   clip-rule="evenodd"
   d="M 52.006397,0.88019234 C 58.210396,3.404626 61.566723,7.3578531 63.008406,13.535081 c 0.62863,2.63251 0.783309,2.677129 -1.013343,2.648375 -0.452137,-0.0079 -4.605653,-0.01586 -5.058782,-0.01586 -2.187314,0 -1.712371,0.526502 -3.206606,-3.683531 C 50.993054,5.2389601 41.690526,5.4828761 37.772002,9.0137121 c -2.905181,2.6166459 -3.171902,7.0537399 0.06148,9.8607589 3.803506,3.301793 8.093854,6.052295 12.233489,8.954502 3.918524,2.747528 8.099803,5.149012 11.83886,8.115667 7.134053,5.658658 6.642255,18.490039 -1.760956,22.792285 -0.873538,0.418425 -1.511091,0.796198 -3.127284,1.595371 1.007394,1.114479 2.155585,2.235898 3.006317,3.113402 6.88518,7.103316 4.675061,19.016541 -4.407348,22.90631 -7.209409,3.087622 -14.503099,2.99541 -21.483466,-0.741664 -4.593755,-2.458993 -7.003171,-6.654153 -8.048243,-11.671291 -0.08825,-0.42735 -0.117992,-1.237429 0.02082,-1.284031 1.896796,-0.630613 3.862007,-1.081758 5.76376,-1.604294 1.156123,-0.31729 1.417887,1.280064 1.868041,2.129805 1.115471,2.106999 1.549761,2.94385 3.619082,4.982434 4.210034,4.147568 12.889881,3.726168 16.12425,0.682173 3.07473,-2.894279 3.143145,-7.866799 -0.459081,-10.790819 C 48.750215,64.58496 44.041442,61.658957 39.575594,58.423597 35.416128,55.411331 31.041501,52.615218 27.269723,49.165687 20.563019,43.035061 22.078076,31.244786 31.110908,26.626243 31.56602,26.394225 31.56602,26.394225 32.706279,25.731883 31.997335,24.765142 31.282443,23.779562 30.645881,22.942711 24.335788,14.637662 27.797217,4.1730611 37.701603,0.70469164 46.05028,-2.2173453 52.006397,0.88019234 52.006397,0.88019234 Z M 59.400231,48.309997 c -0.440239,-3.388055 -2.63251,-6.066176 -5.478199,-8.077989 -5.096461,-3.602226 -10.364456,-6.961527 -15.614604,-10.336693 -0.558231,-0.358934 -1.674693,-0.4799 -2.201195,-0.162611 -7.275842,4.392475 -7.652624,10.943509 -1.788719,15.351849 5.481174,4.119804 11.398621,7.662538 17.164364,11.395646 0.517578,0.335137 1.397065,0.43429 1.995949,0.259781 2.900223,-0.849741 5.947192,-5.120258 5.922404,-8.429983 z"
   id="path1"
   style="stroke-width:0.991529" />
</svg>
