<svg xmlns="http://www.w3.org/2000/svg" xmlns:xlink="http://www.w3.org/1999/xlink" version="1.1" id="Layer_1" x="0px" y="0px" width="100px" height="100px" viewBox="5.0 -10.0 100.0 135.0" enable-background="new 0 0 100 100" xml:space="preserve">
<path fill-rule="evenodd" clip-rule="evenodd" d="M57.067,6.582c6.257,2.546,9.642,6.533,11.096,12.763  c0.634,2.655,0.79,2.7-1.022,2.671C66.685,22.008,62.496,22,62.039,22c-2.206,0-1.727,0.531-3.234-3.715  c-2.76-7.307-12.142-7.061-16.094-3.5c-2.93,2.639-3.199,7.114,0.062,9.945c3.836,3.33,8.163,6.104,12.338,9.031  c3.952,2.771,8.169,5.193,11.94,8.185c7.195,5.707,6.699,18.648-1.776,22.987c-0.881,0.422-1.524,0.803-3.154,1.609  c1.016,1.124,2.174,2.255,3.032,3.14c6.944,7.164,4.715,19.179-4.445,23.102c-7.271,3.114-14.627,3.021-21.667-0.748  c-4.633-2.48-7.063-6.711-8.117-11.771c-0.089-0.431-0.119-1.248,0.021-1.295c1.913-0.636,3.895-1.091,5.813-1.618  c1.166-0.32,1.43,1.291,1.884,2.148c1.125,2.125,1.563,2.969,3.65,5.025c4.246,4.183,13,3.758,16.262,0.688  c3.101-2.919,3.17-7.934-0.463-10.883c-4.308-3.499-9.057-6.45-13.561-9.713c-4.195-3.038-8.607-5.858-12.411-9.337  c-6.764-6.183-5.236-18.074,3.874-22.732c0.459-0.234,0.459-0.234,1.609-0.902c-0.715-0.975-1.436-1.969-2.078-2.813  c-6.364-8.376-2.873-18.93,7.116-22.428C51.06,3.458,57.067,6.582,57.067,6.582z M64.524,54.417  C64.08,51,61.869,48.299,58.999,46.27c-5.14-3.633-10.453-7.021-15.748-10.425c-0.563-0.362-1.689-0.484-2.22-0.164  c-7.338,4.43-7.718,11.037-1.804,15.483c5.528,4.155,11.496,7.728,17.311,11.493c0.522,0.338,1.409,0.438,2.013,0.262  C61.476,62.062,64.549,57.755,64.524,54.417z"/>
<text x="0.0" y="117.5" font-size="5.0" font-weight="bold" font-family="Helvetica Neue, Helvetica, Arial-Unicode, Arial, Sans-serif" fill="#000000">Created by Martin Karachorov</text><text x="0.0" y="122.5" font-size="5.0" font-weight="bold" font-family="Helvetica Neue, Helvetica, Arial-Unicode, Arial, Sans-serif" fill="#000000">from the Noun Project</text></svg>