<svg xmlns="http://www.w3.org/2000/svg" xmlns:xlink="http://www.w3.org/1999/xlink" xml:space="preserve" width="100px" height="100px" version="1.1" style="shape-rendering:geometricPrecision; text-rendering:geometricPrecision; image-rendering:optimizeQuality; fill-rule:evenodd; clip-rule:evenodd" viewBox="500.0 -1000.0 10000.0 13500.0">
 <defs>
  <style type="text/css">
   
    .fil0 {fill:black}
   
  </style>
 </defs>
 <g id="Camada_x0020_1">
  <metadata id="CorelCorpID_0Corel-Layer"/>
  <path class="fil0" d="M4594 4578l812 0c95,0 172,78 172,172l0 641 641 0c94,0 172,77 172,172l0 812c0,95 -78,172 -172,172l-641 0 0 641c0,94 -77,172 -172,172l-812 0c-95,0 -172,-78 -172,-172l0 -641 -641 0c-94,0 -172,-77 -172,-172l0 -812c0,-95 78,-172 172,-172l641 0 0 -641c0,-94 77,-172 172,-172zm-1941 -3953l516 0c60,0 109,49 109,109l0 1618c0,60 -49,109 -109,109l-516 0c-60,0 -110,-49 -110,-109l0 -1618c0,-60 50,-109 110,-109zm4183 0l516 0c60,0 109,49 109,109l0 1618c0,60 -49,109 -109,109l-516 0c-60,0 -109,-49 -109,-109l0 -1618c0,-60 49,-109 109,-109zm-3472 625l0 -516c0,-60 49,-109 109,-109l3059 0c60,0 109,49 109,109l0 516c0,60 -49,109 -109,109l-3059 0c-60,0 -109,-49 -109,-109zm-1802 1313l6876 0c584,0 1062,478 1062,1062l0 4688c0,584 -478,1062 -1062,1062l-6876 0c-584,0 -1062,-478 -1062,-1062l0 -4688c0,-584 478,-1062 1062,-1062zm3438 1312c-1156,0 -2094,938 -2094,2094 0,1156 938,2094 2094,2094 1156,0 2094,-938 2094,-2094 0,-1156 -938,-2094 -2094,-2094z"/>
 </g>
<text x="0.0" y="11750.0" font-size="500.0" font-weight="bold" font-family="Helvetica Neue, Helvetica, Arial-Unicode, Arial, Sans-serif" fill="#000000">Created by Hans Paul M&#246;sl Junior</text><text x="0.0" y="12250.0" font-size="500.0" font-weight="bold" font-family="Helvetica Neue, Helvetica, Arial-Unicode, Arial, Sans-serif" fill="#000000">from the Noun Project</text></svg>