<?xml version="1.0" encoding="UTF-8" standalone="no"?>
<svg
   width="80pt"
   height="80pt"
   version="1.1"
   viewBox="0 0 80 80"
   id="svg64"
   sodipodi:docname="none.svg"
   inkscape:version="1.3.2 (091e20e, 2023-11-25)"
   xmlns:inkscape="http://www.inkscape.org/namespaces/inkscape"
   xmlns:sodipodi="http://sodipodi.sourceforge.net/DTD/sodipodi-0.dtd"
   xmlns="http://www.w3.org/2000/svg"
   xmlns:svg="http://www.w3.org/2000/svg">
  <sodipodi:namedview
     id="namedview64"
     pagecolor="#ffffff"
     bordercolor="#666666"
     borderopacity="1.0"
     inkscape:showpageshadow="2"
     inkscape:pageopacity="0.0"
     inkscape:pagecheckerboard="0"
     inkscape:deskcolor="#d1d1d1"
     inkscape:document-units="pt"
     inkscape:zoom="1.836134"
     inkscape:cx="44.114427"
     inkscape:cy="4.3569805"
     inkscape:window-width="968"
     inkscape:window-height="661"
     inkscape:window-x="0"
     inkscape:window-y="25"
     inkscape:window-maximized="0"
     inkscape:current-layer="svg64" />
  <defs
     id="defs21" />
  <g
     id="g64"
     transform="matrix(0.14256748,0,0,0.14256748,-9.898618,0.08082047)">
    <path
       d="M 462,106.4 H 238 c -16.336,0 -32.004,6.4922 -43.559,18.043 -11.551,11.555 -18.043,27.223 -18.043,43.559 v 224 c 0,16.336 6.4922,32.004 18.043,43.559 11.555,11.551 27.223,18.043 43.559,18.043 h 224 c 16.336,0 32.004,-6.4922 43.559,-18.043 11.551,-11.555 18.043,-27.223 18.043,-43.559 v -224 c 0,-16.336 -6.4922,-32.004 -18.043,-43.559 C 494.004,112.892 478.336,106.4 462,106.4 Z M 490,392 c 0,7.4258 -2.9492,14.547 -8.1992,19.801 -5.2539,5.25 -12.375,8.1992 -19.801,8.1992 h -224 c -7.4258,0 -14.547,-2.9492 -19.801,-8.1992 -5.25,-5.2539 -8.1992,-12.375 -8.1992,-19.801 V 168 c 0,-7.4258 2.9492,-14.547 8.1992,-19.801 5.2539,-5.25 12.375,-8.1992 19.801,-8.1992 h 224 c 7.4258,0 14.547,2.9492 19.801,8.1992 5.25,5.2539 8.1992,12.375 8.1992,19.801 z"
       id="path22" />
    <path
       d="m 276.64,369.6 h 39.199 L 423.359,190.4 H 384.16 Z"
       id="path24" />
  </g>
</svg>
