<?xml version="1.0" encoding="UTF-8" standalone="no"?>
<svg
   version="1.1"
   id="Layer_1"
   x="0px"
   y="0px"
   width="80"
   height="80"
   viewBox="0 0 80 80"
   enable-background="new 0 0 100 100"
   xml:space="preserve"
   sodipodi:docname="source-code.svg"
   inkscape:version="1.3.2 (091e20e, 2023-11-25)"
   xmlns:inkscape="http://www.inkscape.org/namespaces/inkscape"
   xmlns:sodipodi="http://sodipodi.sourceforge.net/DTD/sodipodi-0.dtd"
   xmlns="http://www.w3.org/2000/svg"
   xmlns:svg="http://www.w3.org/2000/svg"><defs
   id="defs6" /><sodipodi:namedview
   id="namedview6"
   pagecolor="#ffffff"
   bordercolor="#666666"
   borderopacity="1.0"
   inkscape:showpageshadow="2"
   inkscape:pageopacity="0.0"
   inkscape:pagecheckerboard="0"
   inkscape:deskcolor="#d1d1d1"
   inkscape:zoom="2.36"
   inkscape:cx="40.254237"
   inkscape:cy="-19.491525"
   inkscape:window-width="1248"
   inkscape:window-height="701"
   inkscape:window-x="0"
   inkscape:window-y="25"
   inkscape:window-maximized="0"
   inkscape:current-layer="Layer_1" />





<g
   id="g6"
   transform="matrix(0.66,0,0,0.66,7,33.4)"><path
     d="M 2.343,14.1 C 0.938,13.162 0,11.289 0,9.648 0,8.008 0.703,6.486 2.46,5.666 H 2.343 C 10.66,0.746 22.258,-5.814 29.99,-10.383 V 0.512 C 26.944,2.269 22.844,4.261 12.535,9.767 l 0.117,0.116 c 5.506,2.461 11.832,6.209 17.338,9.489 v 11.012 z"
     id="path4" /><path
     d="m 97.657,5.9 c 1.404,0.938 2.343,2.812 2.343,4.452 0,1.64 -0.703,3.162 -2.461,3.982 h 0.118 C 89.34,19.254 77.741,25.814 70.01,30.383 V 19.488 c 3.046,-1.756 7.146,-3.748 17.455,-9.254 L 87.348,10.118 C 81.843,7.657 75.516,3.909 70.01,0.629 v -11.012 z"
     id="path5" /><path
     d="M 46.401,31.844 H 39.39 l 14.09,-43.688 h 7.13 z"
     id="path6" /></g>

</svg>
