<?xml version="1.0" encoding="UTF-8" standalone="no"?>
<svg
   version="1.1"
   id="Ebene_1"
   x="0px"
   y="0px"
   width="80"
   height="80"
   viewBox="25.6 -51.2 409.6 552.96"
   enable-background="new 0 0 512 512"
   xml:space="preserve"
   sodipodi:docname="game-info.svg"
   inkscape:version="1.3.2 (091e20e, 2023-11-25)"
   xmlns:inkscape="http://www.inkscape.org/namespaces/inkscape"
   xmlns:sodipodi="http://sodipodi.sourceforge.net/DTD/sodipodi-0.dtd"
   xmlns="http://www.w3.org/2000/svg"
   xmlns:svg="http://www.w3.org/2000/svg"><defs
   id="defs8" /><sodipodi:namedview
   id="namedview8"
   pagecolor="#ffffff"
   bordercolor="#666666"
   borderopacity="1.0"
   inkscape:showpageshadow="2"
   inkscape:pageopacity="0.0"
   inkscape:pagecheckerboard="0"
   inkscape:deskcolor="#d1d1d1"
   inkscape:zoom="2.36"
   inkscape:cx="50"
   inkscape:cy="50.211864"
   inkscape:window-width="736"
   inkscape:window-height="480"
   inkscape:window-x="0"
   inkscape:window-y="25"
   inkscape:window-maximized="0"
   inkscape:current-layer="Ebene_1" />






<g
   id="g8"
   transform="translate(-25.6,-50.72)"><g
     id="g1"
     transform="matrix(1.188,0,0,1.188,-48.128,-51.888)">
	<rect
   x="64"
   y="440"
   width="384"
   height="16"
   id="rect1" />
</g><g
     id="g2"
     transform="matrix(1.188,0,0,1.188,-48.128,-51.888)">
	<rect
   x="88"
   y="96"
   width="16"
   height="320"
   id="rect2" />
</g><g
     id="g3"
     transform="matrix(1.188,0,0,1.188,-48.128,-51.888)">
	<rect
   x="152"
   y="192"
   width="16"
   height="224"
   id="rect3" />
</g><g
     id="g4"
     transform="matrix(1.188,0,0,1.188,-48.128,-51.888)">
	<rect
   x="216"
   y="256"
   width="16"
   height="160"
   id="rect4" />
</g><g
     id="g5"
     transform="matrix(1.188,0,0,1.188,-48.128,-51.888)">
	<rect
   x="280"
   y="160"
   width="16"
   height="256"
   id="rect5" />
</g><g
     id="g6"
     transform="matrix(1.188,0,0,1.188,-48.128,-51.888)">
	<rect
   x="344"
   y="288"
   width="16"
   height="128"
   id="rect6" />
</g><g
     id="g7"
     transform="matrix(1.188,0,0,1.188,-48.128,-51.888)">
	<rect
   x="408"
   y="352"
   width="16"
   height="64"
   id="rect7" />
</g></g>
</svg>
