<?xml version="1.0" encoding="UTF-8" standalone="no"?>
<svg
   xmlns:dc="http://purl.org/dc/elements/1.1/"
   xmlns:cc="http://creativecommons.org/ns#"
   xmlns:rdf="http://www.w3.org/1999/02/22-rdf-syntax-ns#"
   xmlns:svg="http://www.w3.org/2000/svg"
   xmlns="http://www.w3.org/2000/svg"
   xmlns:sodipodi="http://sodipodi.sourceforge.net/DTD/sodipodi-0.dtd"
   xmlns:inkscape="http://www.inkscape.org/namespaces/inkscape"
   version="1.1"
   x="0px"
   y="0px"
   width="100px"
   height="100px"
   viewBox="5.0 -10.0 100.0 135.0"
   enable-background="new 0 0 100 100"
   xml:space="preserve"
   id="svg2"
   inkscape:version="0.91 r13725"
   sodipodi:docname="noun_8926_cc-modified.svg"><metadata
     id="metadata16"><rdf:RDF><cc:Work
         rdf:about=""><dc:format>image/svg+xml</dc:format><dc:type
           rdf:resource="http://purl.org/dc/dcmitype/StillImage" /><dc:title></dc:title></cc:Work></rdf:RDF></metadata><defs
     id="defs14" /><sodipodi:namedview
     pagecolor="#ffffff"
     bordercolor="#666666"
     borderopacity="1"
     objecttolerance="10"
     gridtolerance="10"
     guidetolerance="10"
     inkscape:pageopacity="0"
     inkscape:pageshadow="2"
     inkscape:window-width="1905"
     inkscape:window-height="1240"
     id="namedview12"
     showgrid="false"
     inkscape:object-paths="true"
     inkscape:zoom="4.1680491"
     inkscape:cx="42.195984"
     inkscape:cy="87.927945"
     inkscape:window-x="256"
     inkscape:window-y="87"
     inkscape:window-maximized="0"
     inkscape:current-layer="svg2"
     showguides="true"
     inkscape:guide-bbox="true" /><g
     id="Captions" /><path
     style="fill:#000000"
     inkscape:connector-curvature="0"
     id="path6"
     d="m 71.046,4.312 -42.907,0 C 13.727,4.312 2,17.167 2,32.957 L 2,66.364 C 2,82.15 13.727,95 28.139,95 l 42.907,0 C 85.454,95 97.181,82.15 97.181,66.364 l 0,-33.407 C 97.181,17.167 85.454,4.312 71.046,4.312 Z m -3.689,51.892 3.072,0 0,4.761 -3.072,0 c -0.742,0 -1.347,0.879 -1.347,1.972 l 0,4.201 c 0,1.089 0.604,1.976 1.347,1.976 l 3.072,0 0,4.718 -3.072,0 c -0.742,0 -1.347,0.887 -1.347,1.972 l 0,4.201 c 0,1.093 0.666784,1.677077 1.347,1.976 l 3.072,0 0,5.55 -18.187,0 0,-5.55 2.546,0 c 0.749,0 1.354,-0.883 1.354,-1.976 l 0,-4.201 c 0,-1.085 -0.605,-1.972 -1.354,-1.972 l -2.546,0 0,-4.749 2.546,0 c 0.745,0 1.351,-0.883 1.351,-1.964 l 0,-4.205 c 0,-1.089 -0.605,-1.975 -1.351,-1.975 l -2.546,0 0,-4.762 2.546,0 c 0.745,0 1.351,-0.882 1.351,-1.976 l 0,-4.194 c 0,-1.093 -0.605,-1.975 -1.351,-1.975 l -2.546,0 0,-36.248 18.188,0 0,36.268 -3.072,0 c -0.742,0 -1.347,0.886 -1.347,1.971 l 0,4.209 c 0,1.086 0.604,1.972 1.346,1.972 z m -38.606,-12.261 2.459,0 c 0.742,0 1.351,-0.891 1.351,-1.972 l 0,-4.205 c 0,-1.085 -0.608,-1.976 -1.351,-1.976 l -2.459,0 0,-4.718 2.459,0 c 0.742,0 1.351,-0.887 1.351,-1.976 l 0,-4.196 c 0,-1.089 -0.608,-1.976 -1.351,-1.976 l -2.459,0 0,-11.14 18.187,0 0,36.248 -3.731,0 c -0.75,0 -1.347,0.882 -1.347,1.975 l 0,4.194 c 0,1.094 0.597,1.976 1.347,1.976 l 3.731,0 0,4.762 -3.731,0 c -0.75,0 -1.347,0.886 -1.347,1.975 l 0,4.205 c 0,1.081 0.597,1.964 1.347,1.964 l 3.731,0 0,4.749 -3.728,0 c -0.75,0 -1.351,0.887 -1.351,1.972 l 0,4.201 c 0,1.093 0.601,1.976 1.351,1.976 l 3.728,0 0,5.55 -18.187,0 z m -19.928,22.421 0,-33.407 c 0,-9.892 6.25,-18.159 14.631,-20.47 l 0,10.437 -3.833,0 c -0.742,0 -1.344,0.887 -1.344,1.976 l 0,4.197 c 0,1.089 0.602,1.976 1.344,1.976 l 3.833,0 0,4.718 -3.833,0 c -0.742,0 -1.344,0.891 -1.344,1.976 l 0,4.205 c 0,1.081 0.602,1.972 1.344,1.972 l 3.833,0 0,42.883 C 15.073,84.516 8.823,76.256 8.823,66.364 Z m 81.538,0 c 0,9.892 -6.254,18.155 -14.635,20.462 l 0,-4.847 3.213,0 c 0.745,0 1.354,-0.883 1.354,-1.976 l 0,-4.201 c 0,-1.085 -0.609,-1.972 -1.354,-1.972 l -3.213,0 0,-4.718 3.213,0 c 0.745,0 1.354,-0.887 1.354,-1.976 l 0,-4.201 c 0,-1.093 -0.609,-1.972 -1.354,-1.972 l -3.213,0 0,-4.761 3.213,0 c 0.745,0 1.354,-0.886 1.354,-1.972 l 0,-4.209 c 0,-1.085 -0.609,-1.971 -1.354,-1.971 l -3.213,0 0,-35.563 c 8.381,2.311 14.635,10.578 14.635,20.47 z"
     sodipodi:nodetypes="ssssssssssccssssccssssccccssssccssssccssssccccsssscssssccssssccccssssccssssccssssccccssccssssccssssccssccssssccssssccssssccss"
     inkscape:export-xdpi="90"
     inkscape:export-ydpi="90" /><text
     x="0.0"
     y="117.5"
     font-size="5.0"
     font-weight="bold"
     font-family="Helvetica Neue, Helvetica, Arial-Unicode, Arial, Sans-serif"
     fill="#000000"
     id="text8">Created by Cris Dobbins</text>
<text
     x="0.0"
     y="122.5"
     font-size="5.0"
     font-weight="bold"
     font-family="Helvetica Neue, Helvetica, Arial-Unicode, Arial, Sans-serif"
     fill="#000000"
     id="text10">from the Noun Project</text>
</svg>