<svg xmlns="http://www.w3.org/2000/svg" xmlns:xlink="http://www.w3.org/1999/xlink" version="1.1" x="0px" y="0px" width="100px" height="100px" viewBox="5.0 -10.0 100.0 135.0" enable-background="new 0 0 100 100" xml:space="preserve">
<g id="Captions">
</g>
<g id="Your_Icon">
	<path fill="#000000" d="M71.046,4.312H28.139C13.727,4.312,2,17.167,2,32.957v33.407C2,82.15,13.727,95,28.139,95h42.907   c14.408,0,26.135-12.85,26.135-28.636V32.957C97.181,17.167,85.454,4.312,71.046,4.312z M67.357,57.554h3.072v2.061h-3.072   c-0.742,0-1.347,0.879-1.347,1.972v6.901c0,1.089,0.604,1.976,1.347,1.976h3.072v2.018h-3.072c-0.742,0-1.347,0.887-1.347,1.972   v6.901c0,1.093,0.604,1.976,1.347,1.976h3.072v4.2H52.242v-4.2h2.546c0.749,0,1.354-0.883,1.354-1.976v-6.901   c0-1.085-0.605-1.972-1.354-1.972h-2.546v-2.049h2.546c0.745,0,1.351-0.883,1.351-1.964v-6.905c0-1.089-0.605-1.975-1.351-1.975   h-2.546v-2.062h2.546c0.745,0,1.351-0.882,1.351-1.976v-6.894c0-1.093-0.605-1.975-1.351-1.975h-2.546V11.784H70.43v34.918h-3.072   c-0.742,0-1.347,0.886-1.347,1.971v6.909C66.011,56.668,66.615,57.554,67.357,57.554z M28.751,45.293h2.459   c0.742,0,1.351-0.891,1.351-1.972v-6.905c0-1.085-0.608-1.976-1.351-1.976h-2.459v-2.018h2.459c0.742,0,1.351-0.887,1.351-1.976   V23.55c0-1.089-0.608-1.976-1.351-1.976h-2.459v-9.79h18.187v34.898h-3.731c-0.75,0-1.347,0.882-1.347,1.975v6.894   c0,1.094,0.597,1.976,1.347,1.976h3.731v2.062h-3.731c-0.75,0-1.347,0.886-1.347,1.975v6.905c0,1.081,0.597,1.964,1.347,1.964   h3.731v2.049H43.21c-0.75,0-1.351,0.887-1.351,1.972v6.901c0,1.093,0.601,1.976,1.351,1.976h3.728v4.2H28.751V45.293z    M8.823,66.364V32.957c0-9.892,6.25-18.159,14.631-20.47v9.087h-3.833c-0.742,0-1.344,0.887-1.344,1.976v6.897   c0,1.089,0.602,1.976,1.344,1.976h3.833v2.018h-3.833c-0.742,0-1.344,0.891-1.344,1.976v6.905c0,1.081,0.602,1.972,1.344,1.972   h3.833v41.533C15.073,84.516,8.823,76.256,8.823,66.364z M90.361,66.364c0,9.892-6.254,18.155-14.635,20.462v-3.497h3.213   c0.745,0,1.354-0.883,1.354-1.976v-6.901c0-1.085-0.609-1.972-1.354-1.972h-3.213v-2.018h3.213c0.745,0,1.354-0.887,1.354-1.976   v-6.901c0-1.093-0.609-1.972-1.354-1.972h-3.213v-2.061h3.213c0.745,0,1.354-0.886,1.354-1.972v-6.909   c0-1.085-0.609-1.971-1.354-1.971h-3.213V12.487c8.381,2.311,14.635,10.578,14.635,20.47V66.364z"/>
</g>
<text x="0.0" y="117.5" font-size="5.0" font-weight="bold" font-family="Helvetica Neue, Helvetica, Arial-Unicode, Arial, Sans-serif" fill="#000000">Created by Cris Dobbins</text><text x="0.0" y="122.5" font-size="5.0" font-weight="bold" font-family="Helvetica Neue, Helvetica, Arial-Unicode, Arial, Sans-serif" fill="#000000">from the Noun Project</text></svg>