<?xml version="1.0" encoding="UTF-8" standalone="no"?>
<svg
   version="1.1"
   x="0px"
   y="0px"
   width="80"
   height="80"
   viewBox="5 -10 80 108"
   enable-background="new 0 0 100 100"
   xml:space="preserve"
   id="svg2"
   inkscape:version="1.3.2 (091e20e, 2023-11-25)"
   sodipodi:docname="scoring.svg"
   xmlns:inkscape="http://www.inkscape.org/namespaces/inkscape"
   xmlns:sodipodi="http://sodipodi.sourceforge.net/DTD/sodipodi-0.dtd"
   xmlns="http://www.w3.org/2000/svg"
   xmlns:svg="http://www.w3.org/2000/svg"
   xmlns:rdf="http://www.w3.org/1999/02/22-rdf-syntax-ns#"
   xmlns:cc="http://creativecommons.org/ns#"
   xmlns:dc="http://purl.org/dc/elements/1.1/"><metadata
   id="metadata16"><rdf:RDF><cc:Work
       rdf:about=""><dc:format>image/svg+xml</dc:format><dc:type
         rdf:resource="http://purl.org/dc/dcmitype/StillImage" /></cc:Work></rdf:RDF></metadata><defs
   id="defs14" /><sodipodi:namedview
   pagecolor="#ffffff"
   bordercolor="#666666"
   borderopacity="1"
   objecttolerance="10"
   gridtolerance="10"
   guidetolerance="10"
   inkscape:pageopacity="0"
   inkscape:pageshadow="2"
   inkscape:window-width="1624"
   inkscape:window-height="997"
   id="namedview12"
   showgrid="false"
   inkscape:object-paths="true"
   inkscape:zoom="4.1680491"
   inkscape:cx="42.10603"
   inkscape:cy="87.810866"
   inkscape:window-x="0"
   inkscape:window-y="25"
   inkscape:window-maximized="0"
   inkscape:current-layer="svg2"
   showguides="true"
   inkscape:guide-bbox="true"
   inkscape:showpageshadow="2"
   inkscape:pagecheckerboard="0"
   inkscape:deskcolor="#d1d1d1" /><path
   style="fill:#000000;stroke-width:0.936111"
   inkscape:connector-curvature="0"
   id="path6"
   d="M 65.084734,1.5529739 H 24.919011 C 11.427776,1.5529739 0.45,13.586683 0.45,28.367879 v 31.272667 c 0,14.777451 10.977776,26.80648 24.469011,26.80648 H 65.084734 C 78.572224,86.447026 89.55,74.417997 89.55,59.640546 V 28.367879 C 89.55,13.586683 78.572224,1.5529739 65.084734,1.5529739 Z M 61.63142,50.129656 h 2.875733 v 4.456826 H 61.63142 c -0.694595,0 -1.260942,0.822841 -1.260942,1.846011 v 3.932603 c 0,1.019425 0.565411,1.849756 1.260942,1.849756 h 2.875733 v 4.416572 H 61.63142 c -0.694595,0 -1.260942,0.830331 -1.260942,1.846012 v 3.932603 c 0,1.023169 0.624184,1.56993 1.260942,1.849755 h 2.875733 v 5.195418 H 47.482099 v -5.195418 h 2.383339 c 0.701147,0 1.267495,-0.826586 1.267495,-1.849755 v -3.932603 c 0,-1.015681 -0.566348,-1.846012 -1.267495,-1.846012 h -2.383339 v -4.445592 h 2.383339 c 0.697403,0 1.264686,-0.826586 1.264686,-1.838522 v -3.936348 c 0,-1.019425 -0.566347,-1.848819 -1.264686,-1.848819 h -2.383339 v -4.457762 h 2.383339 c 0.697403,0 1.264686,-0.82565 1.264686,-1.849756 v -3.92605 c 0,-1.02317 -0.566347,-1.84882 -1.264686,-1.84882 H 47.482099 V 8.5475971 h 17.02599 V 42.498478 h -2.875733 c -0.694595,0 -1.260942,0.829394 -1.260942,1.845075 v 3.940092 c 0,1.016617 0.565411,1.846011 1.260006,1.846011 z M 25.491911,38.651997 h 2.301897 c 0.694595,0 1.264686,-0.834075 1.264686,-1.846012 v -3.936347 c 0,-1.015681 -0.569155,-1.849756 -1.264686,-1.849756 h -2.301897 v -4.416573 h 2.301897 c 0.694595,0 1.264686,-0.83033 1.264686,-1.849755 v -3.927923 c 0,-1.019425 -0.569155,-1.849756 -1.264686,-1.849756 H 25.491911 V 8.5475971 H 42.516965 V 42.479755 h -3.492631 c -0.702083,0 -1.260942,0.82565 -1.260942,1.84882 v 3.92605 c 0,1.024106 0.558859,1.849756 1.260942,1.849756 h 3.492631 v 4.457762 h -3.492631 c -0.702083,0 -1.260942,0.829394 -1.260942,1.848819 v 3.936348 c 0,1.011936 0.558859,1.838522 1.260942,1.838522 h 3.492631 v 4.445592 h -3.489823 c -0.702083,0 -1.264686,0.830331 -1.264686,1.846012 v 3.932603 c 0,1.023169 0.562603,1.849755 1.264686,1.849755 h 3.489823 v 5.195418 H 25.491911 Z M 6.837087,59.640546 V 28.367879 c 0,-9.260012 5.850695,-16.998843 13.696243,-19.1621959 v 9.7701919 h -3.588115 c -0.694594,0 -1.258133,0.830331 -1.258133,1.849756 v 3.928859 c 0,1.019425 0.563539,1.849756 1.258133,1.849756 h 3.588115 v 4.416572 h -3.588115 c -0.694594,0 -1.258133,0.834075 -1.258133,1.849756 v 3.936348 c 0,1.011936 0.563539,1.846011 1.258133,1.846011 H 20.53333 V 78.796189 C 12.687782,76.632836 6.837087,68.900558 6.837087,59.640546 Z m 76.328635,0 c 0,9.260012 -5.85444,16.995099 -13.699988,19.154707 v -4.537331 h 3.007726 c 0.697402,0 1.267494,-0.826586 1.267494,-1.849755 v -3.932604 c 0,-1.01568 -0.570092,-1.846011 -1.267494,-1.846011 h -3.007726 v -4.416573 h 3.007726 c 0.697402,0 1.267494,-0.83033 1.267494,-1.849755 v -3.932603 c 0,-1.02317 -0.570092,-1.846012 -1.267494,-1.846012 h -3.007726 v -4.456825 h 3.007726 c 0.697402,0 1.267494,-0.829395 1.267494,-1.846011 v -3.940092 c 0,-1.015681 -0.570092,-1.845076 -1.267494,-1.845076 H 69.465734 V 9.2056831 c 7.845548,2.1633529 13.699988,9.9021839 13.699988,19.1621959 z"
   sodipodi:nodetypes="ssssssssssccssssccssssccccssssccssssccssssccccsssscssssccssssccccssssccssssccssssccccssccssssccssssccssccssssccssssccssssccss"
   inkscape:export-xdpi="90"
   inkscape:export-ydpi="90" />

</svg>
