<?xml version="1.0" encoding="UTF-8" standalone="no"?>
<svg
   width="49.503437pt"
   height="49.502327pt"
   version="1.1"
   viewBox="0 0 49.503437 49.502327"
   id="svg2304"
   sodipodi:docname="cross-mark.svg"
   inkscape:version="1.3.2 (091e20e, 2023-11-25)"
   xmlns:inkscape="http://www.inkscape.org/namespaces/inkscape"
   xmlns:sodipodi="http://sodipodi.sourceforge.net/DTD/sodipodi-0.dtd"
   xmlns="http://www.w3.org/2000/svg"
   xmlns:svg="http://www.w3.org/2000/svg">
  <sodipodi:namedview
     id="namedview2306"
     pagecolor="#ffffff"
     bordercolor="#666666"
     borderopacity="1.0"
     inkscape:pageshadow="2"
     inkscape:pageopacity="0.0"
     inkscape:pagecheckerboard="0"
     inkscape:document-units="pt"
     showgrid="false"
     fit-margin-top="0"
     fit-margin-left="0"
     fit-margin-right="0"
     fit-margin-bottom="0"
     inkscape:zoom="6.1628571"
     inkscape:cx="2.433936"
     inkscape:cy="8.2753825"
     inkscape:window-width="1312"
     inkscape:window-height="429"
     inkscape:window-x="0"
     inkscape:window-y="25"
     inkscape:window-maximized="0"
     inkscape:current-layer="svg2304"
     inkscape:showpageshadow="2"
     inkscape:deskcolor="#d1d1d1" />
  <defs
     id="defs2226" />
  <path
     d="m 4.6686328,1.125 c -0.90833,0 -1.81749,0.34041 -2.51059,1.0336 -1.38641998,1.38558 -1.38641998,3.63509 0,5.02058 L 19.731213,24.75152 2.1580428,42.32386 c -1.38641998,1.3864 -1.38641998,3.63509 0,5.02057 1.38639,1.38642 3.63507,1.38642 5.02056,0 L 24.751793,29.77211 42.324983,47.34443 c 1.3864,1.38642 3.63508,1.38642 5.02057,0 1.3864,-1.38639 1.3864,-3.63423 0,-5.02057 L 29.772373,24.75152 47.345553,7.17918 c 1.3864,-1.3864 1.3864,-3.63508 0,-5.02058 -1.3864,-1.3864 -3.63508,-1.3864 -5.02057,0 L 24.751793,19.73094 7.1786028,2.1586 C 6.4853928,1.46539 5.5762328,1.125 4.6680028,1.125 Z"
     id="path2228"
     style="stroke:#000000;stroke-width:2.25;stroke-miterlimit:4;stroke-dasharray:none;stroke-opacity:0" />
</svg>
