<?xml version="1.0" encoding="UTF-8" standalone="no"?>
<svg
   width="49.500042pt"
   height="24.728947pt"
   version="1.1"
   viewBox="0 0 49.500042 24.728947"
   id="svg826"
   sodipodi:docname="label.svg"
   inkscape:version="1.3.2 (091e20e, 2023-11-25)"
   xmlns:inkscape="http://www.inkscape.org/namespaces/inkscape"
   xmlns:sodipodi="http://sodipodi.sourceforge.net/DTD/sodipodi-0.dtd"
   xmlns="http://www.w3.org/2000/svg"
   xmlns:svg="http://www.w3.org/2000/svg">
  <defs
     id="defs830" />
  <sodipodi:namedview
     id="namedview828"
     pagecolor="#ffffff"
     bordercolor="#666666"
     borderopacity="1.0"
     inkscape:pageshadow="2"
     inkscape:pageopacity="0.0"
     inkscape:pagecheckerboard="0"
     inkscape:document-units="pt"
     showgrid="false"
     fit-margin-top="0"
     fit-margin-left="0"
     fit-margin-right="0"
     fit-margin-bottom="0"
     inkscape:zoom="8.7155961"
     inkscape:cx="19.849474"
     inkscape:cy="21.226316"
     inkscape:window-width="1616"
     inkscape:window-height="997"
     inkscape:window-x="0"
     inkscape:window-y="25"
     inkscape:window-maximized="0"
     inkscape:current-layer="svg826"
     inkscape:showpageshadow="2"
     inkscape:deskcolor="#d1d1d1" />
  <path
     d="m 3.9238422,18.825203 q 0,1.161145 0.848529,1.831036 0.848529,0.669892 2.009674,0.669892 1.4142151,0 2.7391113,-0.655005 2.2329715,-1.086713 2.2329715,-3.557867 V 14.95472 q -0.491254,0.312616 -1.265351,0.521026 -0.7740964,0.208411 -1.5184201,0.29773 l -1.6226257,0.20841 q -1.4588744,0.193525 -2.1883117,0.610346 -1.2355773,0.699664 -1.2355773,2.232971 z m 6.4905028,-5.418677 q 0.922961,-0.119091 1.235577,-0.774096 0.178638,-0.357276 0.178638,-1.027167 0,-1.369556 -0.982507,-1.979901 -0.9676211,-0.6252319 -2.783771,-0.6252319 -2.0989929,0 -2.9772948,1.1313719 -0.4912537,0.625232 -0.6401184,1.860809 H 1.9439411 q 0.074432,-2.9475215 1.9054687,-4.09378 1.8459228,-1.161145 4.2724181,-1.161145 2.8135441,0 4.5701471,1.0718261 1.741718,1.0718262 1.741718,3.3345699 v 9.184955 q 0,0.416821 0.163751,0.669891 0.178638,0.25307 0.729437,0.25307 0.178638,0 0.401935,-0.01489 0.223297,-0.02977 0.476367,-0.07443 v 1.979901 q -0.625232,0.178637 -0.952734,0.223297 -0.327502,0.04466 -0.893188,0.04466 -1.384442,0 -2.009674,-0.982507 -0.327503,-0.521027 -0.461481,-1.473761 -0.818756,1.071826 -2.352063,1.860809 -1.5333069,0.788983 -3.3792297,0.788983 -2.2180847,0 -3.6322997,-1.339782 -1.3993286,-1.35467 -1.3993286,-3.37923 0,-2.218085 1.3844421,-3.438776 1.3844421,-1.22069 3.6322997,-1.503534 z M 8.1962603,6.737386 Z M 18.616792,1.1251852 h 2.605133 v 7.9344907 q 0.878302,-1.1462585 2.098993,-1.7417174 1.220691,-0.6103455 2.649793,-0.6103455 2.977294,0 4.823217,2.0543335 1.860809,2.0394465 1.860809,6.0290225 0,3.781164 -1.831036,6.282092 -1.831036,2.500927 -5.076288,2.500927 -1.816149,0 -3.066613,-0.878302 -0.744324,-0.521026 -1.592853,-1.667285 v 2.039447 h -2.471155 z m 6.96687,20.0818538 q 2.173425,0 3.245252,-1.726831 1.086712,-1.726831 1.086712,-4.555261 0,-2.515814 -1.086712,-4.168213 -1.071827,-1.6523986 -3.170819,-1.6523986 -1.831037,0 -3.215479,1.3546696 -1.369555,1.354669 -1.369555,4.465942 0,2.247857 0.565686,3.647186 1.056939,2.634906 3.944915,2.634906 z M 41.929011,6.6629536 q 2.694452,0 4.376623,1.3100097 1.697058,1.3100098 2.039447,4.5106017 h -2.605133 q -0.238183,-1.473761 -1.086712,-2.441382 -0.848529,-0.9825071 -2.724225,-0.9825071 -2.560474,0 -3.662073,2.5009281 -0.71455,1.622625 -0.71455,4.004461 0,2.396723 1.01228,4.034235 1.01228,1.637512 3.185705,1.637512 1.667285,0 2.634906,-1.01228 0.982508,-1.027167 1.354669,-2.798658 h 2.605133 q -0.446594,3.170819 -2.232971,4.64458 -1.786377,1.458875 -4.570147,1.458875 -3.12616,0 -4.986969,-2.277631 -1.86081,-2.292517 -1.86081,-5.716406 0,-4.197985 2.039447,-6.5351619 2.039447,-2.3371765 5.19538,-2.3371765 z M 41.51219,6.737386 Z"
     id="text2677"
     style="font-size:30.4875px;line-height:1.25;font-family:Helvetica;-inkscape-font-specification:Helvetica;word-spacing:0px;stroke:#000000;stroke-width:2.25037;stroke-opacity:0"
     aria-label="abc" />
</svg>
