<?xml version="1.0" encoding="UTF-8" standalone="no"?>
<svg
   width="49.5pt"
   height="49.500191pt"
   version="1.1"
   viewBox="0 0 49.5 49.500191"
   id="svg826"
   sodipodi:docname="letter-marker.svg"
   inkscape:version="1.3.2 (091e20e, 2023-11-25)"
   xmlns:inkscape="http://www.inkscape.org/namespaces/inkscape"
   xmlns:sodipodi="http://sodipodi.sourceforge.net/DTD/sodipodi-0.dtd"
   xmlns="http://www.w3.org/2000/svg"
   xmlns:svg="http://www.w3.org/2000/svg">
  <defs
     id="defs830" />
  <sodipodi:namedview
     id="namedview828"
     pagecolor="#ffffff"
     bordercolor="#666666"
     borderopacity="1.0"
     inkscape:pageshadow="2"
     inkscape:pageopacity="0.0"
     inkscape:pagecheckerboard="0"
     inkscape:document-units="pt"
     showgrid="false"
     fit-margin-top="0"
     fit-margin-left="0"
     fit-margin-right="0"
     fit-margin-bottom="0"
     inkscape:zoom="8.7155961"
     inkscape:cx="26.733685"
     inkscape:cy="37.174738"
     inkscape:window-width="1616"
     inkscape:window-height="997"
     inkscape:window-x="0"
     inkscape:window-y="25"
     inkscape:window-maximized="0"
     inkscape:current-layer="svg826"
     inkscape:showpageshadow="2"
     inkscape:deskcolor="#d1d1d1" />
  <g
     id="g19094"
     style="stroke:#000000;stroke-width:2.25001;stroke-miterlimit:4;stroke-dasharray:none;stroke-opacity:0"
     transform="matrix(0.99999573,0,0,0.99999573,-0.00211308,-0.00211318)">
    <path
       d="m 24.752219,48.377319 c -6.26572,0 -12.274543,-2.489045 -16.7054951,-6.919606 C 3.6162587,37.026856 1.1271181,31.01726 1.1271181,24.752218 c 0,-6.265041 2.4890461,-12.274543 6.9196058,-16.705494 C 12.477578,3.6162588 18.487175,1.1271182 24.752219,1.1271182 c 6.265041,0 12.274542,2.4890432 16.705494,6.9196058 4.430467,4.430857 6.919607,10.440453 6.919607,16.705494 0,4.14725 -1.091586,8.221021 -3.16521,11.812646 -2.073627,3.591627 -5.05581,6.573811 -8.647438,8.647437 -3.591625,2.073625 -7.665394,3.165211 -11.812645,3.165211 z m 0,-43.8755428 c -5.370659,0 -10.521458,2.1335041 -14.318855,5.9311978 -3.7976943,3.797693 -5.9312071,8.948394 -5.9312071,14.318852 0,5.37047 2.1335128,10.521458 5.9312071,14.318864 3.797696,3.797694 8.948386,5.931198 14.318855,5.931198 5.370466,0 10.521455,-2.133504 14.318852,-5.931198 3.797694,-3.797693 5.93121,-8.948394 5.93121,-14.318864 0,-5.370458 -2.133516,-10.521446 -5.93121,-14.318852 C 35.273378,6.6352803 30.122685,4.5017762 24.752219,4.5017762 Z"
       id="path824"
       style="stroke:#000000;stroke-width:2.25001;stroke-miterlimit:4;stroke-dasharray:none;stroke-opacity:0"
       inkscape:export-filename="/Users/patrick/dev/littlego/resource/icon/markup-types/circle.png"
       inkscape:export-xdpi="96"
       inkscape:export-ydpi="96" />
    <path
       d="M 28.698375,25.580878 24.778801,14.173689 20.613156,25.580878 Z m -5.747536,-15.23888 h 3.954726 l 9.368308,25.81997 H 32.442182 L 29.823275,28.428281 H 19.611292 l -2.794674,7.733687 H 13.231 Z"
       id="text2677"
       style="font-size:35.9968px;line-height:1.25;font-family:Helvetica;-inkscape-font-specification:Helvetica;word-spacing:0px"
       aria-label="A" />
  </g>
</svg>
