<?xml version="1.0" encoding="UTF-8" standalone="no"?>
<svg
   width="49.5pt"
   height="49.500191pt"
   version="1.1"
   viewBox="0 0 49.5 49.500191"
   id="svg826"
   sodipodi:docname="number-marker.svg"
   inkscape:version="1.3.2 (091e20e, 2023-11-25)"
   xmlns:inkscape="http://www.inkscape.org/namespaces/inkscape"
   xmlns:sodipodi="http://sodipodi.sourceforge.net/DTD/sodipodi-0.dtd"
   xmlns="http://www.w3.org/2000/svg"
   xmlns:svg="http://www.w3.org/2000/svg">
  <defs
     id="defs830" />
  <sodipodi:namedview
     id="namedview828"
     pagecolor="#ffffff"
     bordercolor="#666666"
     borderopacity="1.0"
     inkscape:pageshadow="2"
     inkscape:pageopacity="0.0"
     inkscape:pagecheckerboard="0"
     inkscape:document-units="pt"
     showgrid="false"
     fit-margin-top="0"
     fit-margin-left="0"
     fit-margin-right="0"
     fit-margin-bottom="0"
     inkscape:zoom="8.7155961"
     inkscape:cx="26.733685"
     inkscape:cy="37.174738"
     inkscape:window-width="1616"
     inkscape:window-height="997"
     inkscape:window-x="0"
     inkscape:window-y="25"
     inkscape:window-maximized="0"
     inkscape:current-layer="svg826"
     inkscape:showpageshadow="2"
     inkscape:deskcolor="#d1d1d1" />
  <g
     id="g17846"
     inkscape:export-filename="/Users/patrick/dev/littlego/resource/icon/markup-types/number-marker@3x.png"
     inkscape:export-xdpi="96"
     inkscape:export-ydpi="96"
     style="stroke:#000000;stroke-width:2.2502;stroke-miterlimit:4;stroke-dasharray:none;stroke-opacity:0"
     transform="matrix(0.99990628,0,0,0.99990628,1.0000722e-4,1.0000722e-4)">
    <path
       d="m 24.752219,48.379437 c -6.266282,0 -12.275643,-2.489268 -16.7069928,-6.920226 C 3.6143637,37.027957 1.125,31.017822 1.125,24.752218 1.125,18.486615 3.6142692,12.476575 8.0452262,8.0452262 12.476478,3.6143638 18.486613,1.125 24.752219,1.125 c 6.265603,0 12.275643,2.4892664 16.706992,6.9202262 4.430864,4.4312548 6.920227,10.4413888 6.920227,16.7069918 0,4.147622 -1.091684,8.221758 -3.165494,11.813705 -2.073812,3.591949 -5.056263,6.574401 -8.648213,8.648212 -3.591947,2.073811 -7.666081,3.165495 -11.813704,3.165495 z m 0,-43.8794764 c -5.37114,0 -10.522401,2.1336954 -14.320139,5.9317294 -3.7980346,3.798034 -5.9317386,8.949196 -5.9317386,14.320136 0,5.370951 2.133704,10.522401 5.9317386,14.320148 3.798037,3.798034 8.949189,5.93173 14.320139,5.93173 5.370948,0 10.522398,-2.133696 14.320136,-5.93173 3.798034,-3.798034 5.931742,-8.949197 5.931742,-14.320148 0,-5.37094 -2.133708,-10.522389 -5.931742,-14.320136 C 35.274321,6.633656 30.123167,4.4999606 24.752219,4.4999606 Z"
       id="path824"
       style="stroke:#000000;stroke-width:2.2502;stroke-miterlimit:4;stroke-dasharray:none;stroke-opacity:0"
       inkscape:export-filename="/Users/patrick/dev/littlego/resource/icon/markup-types/circle.png"
       inkscape:export-xdpi="96"
       inkscape:export-ydpi="96" />
    <path
       d="m 17.853,19.4613 v -2.425781 q 3.427734,-0.333985 4.78125,-1.107422 1.353515,-0.791016 2.021484,-3.708985 h 2.496094 v 25.066407 h -3.375 V 19.4613 Z"
       id="text2677"
       style="font-size:36px;line-height:1.25;font-family:Helvetica;-inkscape-font-specification:Helvetica;word-spacing:0px"
       aria-label="1" />
  </g>
</svg>
