<?xml version="1.0" encoding="UTF-8" standalone="no"?>
<svg
   width="49.504436pt"
   height="49.504436pt"
   version="1.1"
   viewBox="0 0 49.504436 49.504436"
   id="svg1370"
   sodipodi:docname="square.svg"
   inkscape:version="1.1.2 (b8e25be8, 2022-02-05)"
   xmlns:inkscape="http://www.inkscape.org/namespaces/inkscape"
   xmlns:sodipodi="http://sodipodi.sourceforge.net/DTD/sodipodi-0.dtd"
   xmlns="http://www.w3.org/2000/svg"
   xmlns:svg="http://www.w3.org/2000/svg">
  <defs
     id="defs1374" />
  <sodipodi:namedview
     id="namedview1372"
     pagecolor="#ffffff"
     bordercolor="#666666"
     borderopacity="1.0"
     inkscape:pageshadow="2"
     inkscape:pageopacity="0.0"
     inkscape:pagecheckerboard="0"
     inkscape:document-units="pt"
     showgrid="false"
     fit-margin-top="0"
     fit-margin-left="0"
     fit-margin-right="0"
     fit-margin-bottom="0"
     inkscape:zoom="6.1628571"
     inkscape:cx="28.152527"
     inkscape:cy="21.986555"
     inkscape:window-width="1614"
     inkscape:window-height="997"
     inkscape:window-x="0"
     inkscape:window-y="25"
     inkscape:window-maximized="1"
     inkscape:current-layer="svg1370" />
  <path
     d="M 43.653994,48.379438 H 5.8504438 c -1.253457,0 -2.4551603,-0.497853 -3.3415676,-1.383879 C 1.6228527,46.109181 1.125,44.907449 1.125,43.653994 V 5.8504438 C 1.125,4.5969868 1.6228527,3.3952835 2.5088762,2.5088762 3.3952549,1.6228527 4.5969868,1.125 5.8504438,1.125 H 43.653994 c 1.253455,0 2.455158,0.4978527 3.341565,1.3838762 0.886026,0.8863787 1.383879,2.0881106 1.383879,3.3415676 V 43.653994 c 0,1.253455 -0.497853,2.455158 -1.383879,3.341565 -0.886378,0.886026 -2.08811,1.383879 -3.341565,1.383879 z M 5.8504438,4.2752958 c -0.4176921,0 -0.8185243,0.1659633 -1.1138587,0.4612893 C 4.4412476,5.0319195 4.2752958,5.4327517 4.2752958,5.8504438 V 43.653994 c 0,0.417689 0.1659633,0.818521 0.4612893,1.113858 0.2953344,0.295336 0.6961666,0.46129 1.1138587,0.46129 H 43.653994 c 0.417689,0 0.818521,-0.165963 1.113858,-0.46129 0.295336,-0.295337 0.46129,-0.696169 0.46129,-1.113858 V 5.8504438 c 0,-0.4176921 -0.165963,-0.8185243 -0.46129,-1.1138587 C 44.472515,4.4412476 44.071683,4.2752958 43.653994,4.2752958 Z"
     id="path1368"
     style="stroke:#000000;stroke-width:2.25;stroke-miterlimit:4;stroke-dasharray:none;stroke-opacity:0"
     inkscape:export-filename="/Users/patrick/dev/littlego/resource/icon/markup-types/square.png"
     inkscape:export-xdpi="96"
     inkscape:export-ydpi="96" />
</svg>
