<?xml version="1.0" encoding="UTF-8"?>
<svg width="700pt" height="700pt" version="1.1" viewBox="0 0 700 700" xmlns="http://www.w3.org/2000/svg" xmlns:xlink="http://www.w3.org/1999/xlink">
 <defs>
  <symbol id="t" overflow="visible">
   <path d="m0.015625 0h-0.015625v-0.015625h0.015625-0.015625v0.015625h0.015625z"/>
  </symbol>
  <symbol id="d" overflow="visible">
   <path d="m0.015625-0.015625h-0.015625v0.015625-0.015625h0.015625z"/>
  </symbol>
  <symbol id="b" overflow="visible">
   <path d="m0.015625-0.015625v0.015625h-0.015625 0.015625-0.015625v-0.015625h0.015625zm0 0h-0.015625z"/>
  </symbol>
  <symbol id="k" overflow="visible">
   <path d="m0.015625 0h-0.015625 0.015625zm0-0.015625v0.015625h-0.015625c0-0.0078125 0.0039062-0.015625 0.015625-0.015625h-0.015625 0.015625z"/>
  </symbol>
  <symbol id="c" overflow="visible">
   <path d="m0.015625-0.015625v0.015625h-0.015625v-0.015625z"/>
  </symbol>
  <symbol id="j" overflow="visible">
   <path d="m0.015625-0.015625v0.015625h-0.015625v-0.015625h0.015625zm0 0.015625v-0.015625h-0.015625v0.015625h0.015625z"/>
  </symbol>
  <symbol id="i" overflow="visible">
   <path d="m0.015625 0v-0.015625h-0.015625v0.015625h0.015625zm-0.015625-0.015625h0.015625v0.015625h-0.015625z"/>
  </symbol>
  <symbol id="h" overflow="visible">
   <path d="m0-0.015625 0.015625 0.015625v-0.015625 0.015625h-0.015625z"/>
  </symbol>
  <symbol id="g" overflow="visible">
   <path d="m0-0.015625h0.015625v0.015625h-0.015625z"/>
  </symbol>
  <symbol id="f" overflow="visible">
   <path d="m0.015625-0.015625h-0.015625v0.015625h0.015625-0.015625v-0.015625h0.015625z"/>
  </symbol>
  <symbol id="a" overflow="visible">
   <path d="m0.015625-0.015625h-0.015625v0.015625h0.015625v-0.015625zm0 0v0.015625h-0.015625v-0.015625h0.015625z"/>
  </symbol>
  <symbol id="s" overflow="visible">
   <path d="m0-0.015625h0.03125v0.015625h-0.015625v-0.015625 0.015625l-0.015625-0.015625v0.015625z"/>
  </symbol>
  <symbol id="e" overflow="visible">
   <path d="m0.015625-0.015625v0.015625-0.015625h-0.015625v0.015625-0.015625h0.015625z"/>
  </symbol>
  <symbol id="r" overflow="visible">
   <path d="m0.015625-0.015625v0.015625h-0.015625v-0.015625h0.015625z"/>
  </symbol>
  <symbol id="q" overflow="visible">
   <path d="m0.015625-0.015625h0.015625v0.015625h-0.015625v-0.015625 0.015625-0.015625h-0.015625v0.015625-0.015625h0.015625z"/>
  </symbol>
  <symbol id="p" overflow="visible">
   <path d="m0.015625-0.015625v0.015625-0.015625h-0.015625v0.015625-0.015625h0.015625z"/>
  </symbol>
  <symbol id="o" overflow="visible">
   <path d="m0-0.015625h0.015625v0.015625-0.015625 0.015625l-0.015625-0.015625v0.015625z"/>
  </symbol>
  <symbol id="n" overflow="visible">
   <path d="m0 0v-0.015625 0.015625h0.015625v-0.015625 0.015625h-0.015625z"/>
  </symbol>
  <symbol id="m" overflow="visible">
   <path d="m0-0.015625h0.015625v0.015625h-0.015625z"/>
  </symbol>
  <symbol id="l" overflow="visible">
   <path d="m0-0.015625v0.015625z"/>
  </symbol>
 </defs>
 <g>
  <path d="m399.02 46.73c-22.926 61.438-33.465 129.12-7.7969 155.7 27.961 29.348 71.512 51.348 102.24 94.449 40.797 57.301 47.68 183.38-99.477 216.38 61.898-32.555 75.188-126.98 8.2656-186.13 17.422 57.305-14.672 93.98-54.555 80.691-38.969-13.293-64.641 14.672-63.734 46.766 0.45312 22.004 9.168 40.797 31.629 51.348-95.816-16.961-134.32-96.285-134.32-156.8 0-79.773 71.062-90.77 35.293-157.7 42.637 3.6562 57.305 31.625 53.176 77.469-2.75 30.27 28.891 50.887 52.277 37.133 18.789-11.457 18.34-33.461 1.8359-49.969-64.953-84.172 75.168-209.34 75.168-209.34z" fill-rule="evenodd"/>
  <use x="70" y="560.085938" xlink:href="#t"/>
  <use x="70.019531" y="560.085938" xlink:href="#d"/>
  <use x="70.035156" y="560.085938" xlink:href="#b"/>
  <use x="70.054688" y="560.085938" xlink:href="#k"/>
  <use x="70.070312" y="560.085938" xlink:href="#c"/>
  <use x="70.085938" y="560.085938" xlink:href="#b"/>
  <use x="70.105469" y="560.085938" xlink:href="#j"/>
  <use x="70.132812" y="560.085938" xlink:href="#i"/>
  <use x="70.15625" y="560.085938" xlink:href="#h"/>
  <use x="70.183594" y="560.085938" xlink:href="#g"/>
  <use x="70.191406" y="560.085938" xlink:href="#f"/>
  <use x="70.210938" y="560.085938" xlink:href="#a"/>
  <use x="70.230469" y="560.085938" xlink:href="#s"/>
  <use x="70.257812" y="560.085938" xlink:href="#a"/>
  <use x="70.277344" y="560.085938" xlink:href="#a"/>
  <use x="70.296875" y="560.085938" xlink:href="#e"/>
  <use x="70" y="560.113281" xlink:href="#r"/>
  <use x="70.011719" y="560.113281" xlink:href="#d"/>
  <use x="70.027344" y="560.113281" xlink:href="#a"/>
  <use x="70.046875" y="560.113281" xlink:href="#q"/>
  <use x="70.085938" y="560.113281" xlink:href="#c"/>
  <use x="70.097656" y="560.113281" xlink:href="#p"/>
  <use x="70.117188" y="560.113281" xlink:href="#b"/>
  <use x="70.144531" y="560.113281" xlink:href="#o"/>
  <use x="70.167969" y="560.113281" xlink:href="#a"/>
  <use x="70.1875" y="560.113281" xlink:href="#n"/>
  <use x="70.207031" y="560.113281" xlink:href="#e"/>
  <use x="70.238281" y="560.113281" xlink:href="#m"/>
  <use x="70.257812" y="560.113281" xlink:href="#d"/>
  <use x="70.273438" y="560.113281" xlink:href="#a"/>
  <use x="70.292969" y="560.113281" xlink:href="#l"/>
  <use x="70.300781" y="560.113281" xlink:href="#b"/>
  <use x="70.320312" y="560.113281" xlink:href="#f"/>
  <use x="70.335938" y="560.113281" xlink:href="#c"/>
 </g>
</svg>
