<?xml version="1.0" encoding="UTF-8" standalone="no"?>
<svg
   width="47.622028pt"
   height="49.5pt"
   version="1.1"
   viewBox="0 0 47.622028 49.5"
   id="svg2410"
   sodipodi:docname="edit.svg"
   inkscape:version="1.1.2 (b8e25be8, 2022-02-05)"
   xmlns:inkscape="http://www.inkscape.org/namespaces/inkscape"
   xmlns:sodipodi="http://sodipodi.sourceforge.net/DTD/sodipodi-0.dtd"
   xmlns="http://www.w3.org/2000/svg"
   xmlns:svg="http://www.w3.org/2000/svg">
  <sodipodi:namedview
     id="namedview2412"
     pagecolor="#ffffff"
     bordercolor="#666666"
     borderopacity="1.0"
     inkscape:pageshadow="2"
     inkscape:pageopacity="0.0"
     inkscape:pagecheckerboard="0"
     inkscape:document-units="px"
     showgrid="false"
     fit-margin-top="0"
     fit-margin-left="0"
     fit-margin-right="0"
     fit-margin-bottom="0"
     inkscape:zoom="2.178899"
     inkscape:cx="70.448423"
     inkscape:cy="-9.6378949"
     inkscape:window-width="1432"
     inkscape:window-height="948"
     inkscape:window-x="0"
     inkscape:window-y="25"
     inkscape:window-maximized="0"
     inkscape:current-layer="svg2410" />
  <defs
     id="defs2392">
    <symbol
       id="e"
       overflow="visible">
      <path
         d="m 39.078,-2.3281 c -2.0117,1.043 -4.1094,1.8281 -6.2969,2.3594 -2.1875,0.5313 -4.4648,0.79688 -6.8281,0.79688 -7.0859,0 -12.699,-1.9766 -16.844,-5.9375 -4.1367,-3.957 -6.2031,-9.3281 -6.2031,-16.109 0,-6.7891 2.0664,-12.164 6.2031,-16.125 4.1445,-3.9688 9.7578,-5.9531 16.844,-5.9531 2.3633,0 4.6406,0.26562 6.8281,0.79688 2.1875,0.53126 4.2852,1.3242 6.2969,2.375 v 8.7969 c -2.0312,-1.3828 -4.0391,-2.3984 -6.0156,-3.0469 -1.9688,-0.64453 -4.0469,-0.96875 -6.2344,-0.96875 -3.9062,0 -6.9844,1.2578 -9.2344,3.7656 -2.2422,2.5 -3.3594,5.9531 -3.3594,10.359 0,4.3867 1.1172,7.8359 3.3594,10.344 2.25,2.5 5.3281,3.75 9.2344,3.75 2.1875,0 4.2656,-0.32031 6.2344,-0.96875 1.9766,-0.64453 3.9844,-1.6602 6.0156,-3.0469 z"
         id="path2377" />
    </symbol>
    <symbol
       id="d"
       overflow="visible">
      <path
         d="m 16.031,-40.953 v 9.0625 h 10.516 v 7.2812 H 16.031 v 13.531 c 0,1.4805 0.28906,2.4805 0.875,3 0.59375,0.52344 1.7656,0.78125 3.5156,0.78125 h 5.2344 v 7.2969 h -8.7344 c -4.0312,0 -6.8867,-0.83594 -8.5625,-2.5156 -1.6797,-1.6875 -2.5156,-4.5391 -2.5156,-8.5625 v -13.531 H 0.7654 v -7.2812 h 5.0781 v -9.0625 z"
         id="path2380" />
    </symbol>
    <symbol
       id="a"
       overflow="visible">
      <path
         d="M 26.594,-27.234 V -44.312 H 36.86 V 0 H 26.594 v -4.6094 c -1.3984,1.875 -2.9453,3.25 -4.6406,4.125 -1.6875,0.875 -3.6406,1.3125 -5.8594,1.3125 -3.9297,0 -7.1562,-1.5625 -9.6875,-4.6875 -2.5234,-3.125 -3.7812,-7.1445 -3.7812,-12.062 0,-4.9141 1.2578,-8.9375 3.7812,-12.062 2.5312,-3.125 5.7578,-4.6875 9.6875,-4.6875 2.1953,0 4.1445,0.44531 5.8438,1.3281 1.707,0.88672 3.2578,2.2578 4.6562,4.1094 z m -6.7188,20.656 c 2.1875,0 3.8516,-0.79688 5,-2.3906 1.1445,-1.5938 1.7188,-3.9102 1.7188,-6.9531 0,-3.0391 -0.57422,-5.3594 -1.7188,-6.9531 -1.1484,-1.5938 -2.8125,-2.3906 -5,-2.3906 -2.168,0 -3.8242,0.79688 -4.9688,2.3906 -1.1484,1.5938 -1.7188,3.9141 -1.7188,6.9531 0,3.043 0.57031,5.3594 1.7188,6.9531 1.1445,1.5938 2.8008,2.3906 4.9688,2.3906 z"
         id="path2383" />
    </symbol>
    <symbol
       id="c"
       overflow="visible">
      <path
         d="m 21.875,-6.5781 c 2.1758,0 3.8359,-0.79688 4.9844,-2.3906 1.1562,-1.5938 1.7344,-3.9102 1.7344,-6.9531 0,-3.0391 -0.57812,-5.3594 -1.7344,-6.9531 -1.1484,-1.5938 -2.8086,-2.3906 -4.9844,-2.3906 -2.1875,0 -3.8672,0.80469 -5.0312,2.4062 -1.168,1.6055 -1.75,3.918 -1.75,6.9375 0,3.0234 0.58203,5.3359 1.75,6.9375 1.1641,1.6055 2.8438,2.4062 5.0312,2.4062 z m -6.7812,-20.656 c 1.4062,-1.8516 2.9609,-3.2227 4.6719,-4.1094 1.707,-0.88281 3.6719,-1.3281 5.8906,-1.3281 3.9375,0 7.1641,1.5625 9.6875,4.6875 2.5195,3.125 3.7812,7.1484 3.7812,12.062 0,4.918 -1.2617,8.9375 -3.7812,12.062 -2.5234,3.125 -5.75,4.6875 -9.6875,4.6875 -2.2188,0 -4.1836,-0.44531 -5.8906,-1.3281 -1.7109,-0.88281 -3.2656,-2.2539 -4.6719,-4.1094 V -7e-4 H 4.9058 v -44.312 h 10.188 z"
         id="path2386" />
    </symbol>
    <symbol
       id="b"
       overflow="visible">
      <path
         d="M 31.156,-7.75 H 14.015 L 11.3119,0 H 0.2809 l 15.75,-42.516 h 13.078 L 44.8589,0 H 33.8279 Z M 16.75,-15.6406 h 11.641 l -5.8125,-16.906 z"
         id="path2389" />
    </symbol>
  </defs>
  <path
     d="m 23.810805,3.0026864 c 1.13867,0 2.0626,0.92324 2.0626,2.06189 0,1.05787 -0.79617,1.92929 -1.82236,2.04879 l -0.2403,0.0138 H 9.374075 c -2.1745,0 -3.956,1.6828 -4.11351,3.8172396 l -0.0111,0.30728 v 28.87407 c 0,2.17447 1.68278,3.95599 3.81723,4.1135 l 0.30729,0.0111 h 28.87405 c 2.17449,0 3.956,-1.68278 4.11351,-3.81723 l 0.0111,-0.30728 v -14.43671 c 0,-1.13867 0.92323,-2.06258 2.06258,-2.06258 1.05719,0 1.92929,0.79616 2.04809,1.82235 l 0.0138,0.2403 v 14.43669 c 0,4.4179 -3.47271,8.02459 -7.8374,8.23919 l -0.41155,0.01 H 9.374115 c -4.4179,0 -8.0246,-3.4727 -8.2392,-7.8374 l -0.01,-0.41154 v -28.87406 c 0,-4.4178996 3.47271,-8.0245996 7.8374,-8.2391996 l 0.41155,-0.01 z m 13.1724,3.84339 3.62737,2.64399 -16.44127,21.7624896 c -0.49786,0.65808 -2.08751,1.47979 -4.76932,2.46581 0.31211,-2.6385 0.65322,-4.27914 1.02335,-4.92206 l 0.15536,-0.23478 z m 6.80221,-5.27701 c 0.91563,0.68568 1.15526,1.93354 0.60006,2.89819 l -0.15537,0.23477 -2.26004,2.98852 -3.62737,-2.64398 2.29664,-3.03556 c 0.74644,-0.98742 2.15449,-1.18492003 3.14601,-0.44192 z"
     id="path2394"
     style="stroke:#000000;stroke-width:2.24983;stroke-miterlimit:4;stroke-dasharray:none;stroke-opacity:0" />
</svg>
