<?xml version="1.0" encoding="UTF-8" standalone="no"?>
<svg
   width="47.622028pt"
   height="49.5pt"
   version="1.1"
   viewBox="0 0 47.622028 49.5"
   id="svg2410"
   sodipodi:docname="edit.svg"
   inkscape:version="1.3.2 (091e20e, 2023-11-25)"
   xmlns:inkscape="http://www.inkscape.org/namespaces/inkscape"
   xmlns:sodipodi="http://sodipodi.sourceforge.net/DTD/sodipodi-0.dtd"
   xmlns="http://www.w3.org/2000/svg"
   xmlns:svg="http://www.w3.org/2000/svg">
  <sodipodi:namedview
     id="namedview2412"
     pagecolor="#ffffff"
     bordercolor="#666666"
     borderopacity="1.0"
     inkscape:pageshadow="2"
     inkscape:pageopacity="0.0"
     inkscape:pagecheckerboard="0"
     inkscape:document-units="px"
     showgrid="false"
     fit-margin-top="0"
     fit-margin-left="0"
     fit-margin-right="0"
     fit-margin-bottom="0"
     inkscape:zoom="2.8830706"
     inkscape:cx="22.545407"
     inkscape:cy="38.327192"
     inkscape:window-width="1432"
     inkscape:window-height="948"
     inkscape:window-x="0"
     inkscape:window-y="25"
     inkscape:window-maximized="0"
     inkscape:current-layer="svg2410"
     inkscape:showpageshadow="2"
     inkscape:deskcolor="#d1d1d1" />
  <defs
     id="defs2392" />
  <path
     d="m 23.810805,3.0026864 c 1.13867,0 2.0626,0.92324 2.0626,2.06189 0,1.05787 -0.79617,1.92929 -1.82236,2.04879 l -0.2403,0.0138 H 9.374075 c -2.1745,0 -3.956,1.6828 -4.11351,3.8172396 l -0.0111,0.30728 v 28.87407 c 0,2.17447 1.68278,3.95599 3.81723,4.1135 l 0.30729,0.0111 h 28.87405 c 2.17449,0 3.956,-1.68278 4.11351,-3.81723 l 0.0111,-0.30728 v -14.43671 c 0,-1.13867 0.92323,-2.06258 2.06258,-2.06258 1.05719,0 1.92929,0.79616 2.04809,1.82235 l 0.0138,0.2403 v 14.43669 c 0,4.4179 -3.47271,8.02459 -7.8374,8.23919 l -0.41155,0.01 H 9.374115 c -4.4179,0 -8.0246,-3.4727 -8.2392,-7.8374 l -0.01,-0.41154 v -28.87406 c 0,-4.4178996 3.47271,-8.0245996 7.8374,-8.2391996 l 0.41155,-0.01 z m 13.1724,3.84339 3.62737,2.64399 -16.44127,21.7624896 c -0.49786,0.65808 -2.08751,1.47979 -4.76932,2.46581 0.31211,-2.6385 0.65322,-4.27914 1.02335,-4.92206 l 0.15536,-0.23478 z m 6.80221,-5.27701 c 0.91563,0.68568 1.15526,1.93354 0.60006,2.89819 l -0.15537,0.23477 -2.26004,2.98852 -3.62737,-2.64398 2.29664,-3.03556 c 0.74644,-0.98742 2.15449,-1.18492003 3.14601,-0.44192 z"
     id="path2394"
     style="stroke:#000000;stroke-width:2.24983;stroke-miterlimit:4;stroke-dasharray:none;stroke-opacity:0" />
</svg>
