<?xml version="1.0" encoding="UTF-8" standalone="no"?>
<svg
   xmlns:dc="http://purl.org/dc/elements/1.1/"
   xmlns:cc="http://creativecommons.org/ns#"
   xmlns:rdf="http://www.w3.org/1999/02/22-rdf-syntax-ns#"
   xmlns:svg="http://www.w3.org/2000/svg"
   xmlns="http://www.w3.org/2000/svg"
   xmlns:sodipodi="http://sodipodi.sourceforge.net/DTD/sodipodi-0.dtd"
   xmlns:inkscape="http://www.inkscape.org/namespaces/inkscape"
   version="1.1"
   x="0px"
   y="0px"
   viewBox="0 0 50.000001 70"
   enable-background="new 0 0 100 100"
   xml:space="preserve"
   id="svg22"
   sodipodi:docname="181278-reversed.svg"
   inkscape:version="0.92.2 5c3e80d, 2017-08-06"
   width="50"
   height="70"><metadata
     id="metadata28"><rdf:RDF><cc:Work
         rdf:about=""><dc:format>image/svg+xml</dc:format><dc:type
           rdf:resource="http://purl.org/dc/dcmitype/StillImage" /><dc:title></dc:title></cc:Work></rdf:RDF></metadata><defs
     id="defs26" /><sodipodi:namedview
     pagecolor="#ffffff"
     bordercolor="#666666"
     borderopacity="1"
     objecttolerance="10"
     gridtolerance="10"
     guidetolerance="10"
     inkscape:pageopacity="0"
     inkscape:pageshadow="2"
     inkscape:window-width="1627"
     inkscape:window-height="1005"
     id="namedview24"
     showgrid="false"
     inkscape:snap-global="true"
     inkscape:snap-bbox="true"
     inkscape:snap-bbox-midpoints="true"
     showguides="true"
     inkscape:guide-bbox="true"
     inkscape:snap-bbox-edge-midpoints="true"
     inkscape:measure-start="19.9543,96.5167"
     inkscape:measure-end="21.2692,96.5167"
     inkscape:zoom="3.776"
     inkscape:cx="19.230405"
     inkscape:cy="4.0734539"
     inkscape:window-x="0"
     inkscape:window-y="1"
     inkscape:window-maximized="1"
     inkscape:current-layer="svg22"
     inkscape:snap-nodes="true"
     inkscape:snap-perpendicular="true"
     inkscape:bbox-nodes="true"
     fit-margin-top="0"
     fit-margin-left="0"
     fit-margin-right="0"
     fit-margin-bottom="0"><sodipodi:guide
       position="5.7159561,36.062332"
       orientation="0,1"
       id="guide4659"
       inkscape:locked="false" /><sodipodi:guide
       position="1.5454305e-13,36.064831"
       orientation="1,0"
       id="guide4772"
       inkscape:locked="false" /><sodipodi:guide
       position="35.031445,36.064831"
       orientation="1,0"
       id="guide4774"
       inkscape:locked="false" /></sodipodi:namedview><path
     style="fill:#000000;stroke:#231f20;stroke-width:0.56779349;stroke-miterlimit:10"
     inkscape:connector-curvature="0"
     id="path2"
     d="M 15.802191,48.120003"
     stroke-miterlimit="10" /><path
     style="fill:#000000;stroke:#231f20;stroke-width:0.37852898;stroke-miterlimit:10"
     inkscape:connector-curvature="0"
     id="path4"
     d="M 15.802191,48.120003"
     stroke-miterlimit="10" /><path
     style="fill:#000000;stroke:#231f20;stroke-width:0.37852898;stroke-miterlimit:10"
     inkscape:connector-curvature="0"
     id="path6"
     d="M 15.752793,48.120003"
     stroke-miterlimit="10" /><path
     style="fill:#000000;stroke:#231f20;stroke-width:0.37852898;stroke-miterlimit:10"
     inkscape:connector-curvature="0"
     id="path8"
     d="M 15.802191,48.120003"
     stroke-miterlimit="10" /><path
     style="fill:#000000;stroke:#231f20;stroke-width:0.56779349;stroke-miterlimit:10"
     inkscape:connector-curvature="0"
     id="path14"
     d="M 16.062808,48.120003"
     stroke-miterlimit="10" /><g
     inkscape:export-filename="/Users/patrick/dev/littlego/resource/icon/switch-color/switch-to-black.png"
     transform="matrix(0.55924147,0,0,0.55924147,-10.446071,5.9722572)"
     inkscape:export-ydpi="96"
     inkscape:export-xdpi="96"
     id="g3805"><path
       style="fill:#000000;stroke:#231f20;stroke-width:3;stroke-miterlimit:10"
       inkscape:connector-curvature="0"
       id="path3791"
       d="M 48.17,61.454"
       stroke-miterlimit="10" /><path
       style="fill:#000000;stroke:#231f20;stroke-width:2;stroke-miterlimit:10"
       inkscape:connector-curvature="0"
       id="path3793"
       d="M 48.17,61.454"
       stroke-miterlimit="10" /><path
       style="fill:#000000;stroke:#231f20;stroke-width:2;stroke-miterlimit:10"
       inkscape:connector-curvature="0"
       id="path3795"
       d="M 47.909,61.454"
       stroke-miterlimit="10" /><path
       style="fill:#000000;stroke:#231f20;stroke-width:2;stroke-miterlimit:10"
       inkscape:connector-curvature="0"
       id="path3797"
       d="M 48.17,61.454"
       stroke-miterlimit="10" /><path
       style="fill:#000000"
       inkscape:connector-curvature="0"
       id="path3799"
       d="m 31.933,60.895 c -0.087,0 -0.174,-0.021 -0.253,-0.066 -0.257,-0.145 -6.275,-3.636 -6.037,-12.324 0.225,-8.08 7.65,-11.906 7.967,-12.064 0.218,-0.113 0.485,-0.051 0.639,0.142 0.151,0.194 0.145,0.468 -0.014,0.655 -4.822,5.625 -5.613,15.473 -1.841,22.908 0.103,0.202 0.061,0.449 -0.104,0.606 -0.1,0.095 -0.227,0.143 -0.357,0.143 z M 31.745,38.956 c -2.12,1.743 -4.941,4.925 -5.07,9.577 -0.145,5.295 2.249,8.534 3.928,10.144 -2.587,-6.558 -2.119,-14.195 1.142,-19.721 z" /><path
       style="fill:#ffffff;fill-opacity:1;stroke:#aa0000;stroke-opacity:1"
       inkscape:connector-curvature="0"
       id="path3801"
       d="m 50.338,35.323 c -3.416,-2.89 -7.729,-4.491 -12.221,-4.491 -10.442,0 -18.938,8.495 -18.938,18.938 0,10.441 8.495,18.937 18.938,18.937 4.211,0 8.296,-1.425 11.606,-3.996 m 0,0 c 3.293,2.779 7.54,4.46 12.185,4.46 10.446,0 18.912,-8.466 18.912,-18.911 0,-10.446 -8.466,-18.913 -18.912,-18.913 -4.363,0 -8.37,1.493 -11.57,3.976 m -2.073,1.862 c -3.257,3.397 -5.269,7.996 -5.269,13.072 10e-4,4.8 1.804,9.167 4.75,12.503 m 0,0 c -2.776,2.058 -6.153,3.19 -9.629,3.19 -8.923,0 -16.183,-7.261 -16.183,-16.182 0,-8.923 7.26,-16.183 16.183,-16.183 3.709,0 7.276,1.28 10.148,3.6 m 7.641,24.81 c 0,0 -6.531,-3.68 -6.279,-12.9 0.237,-8.555 8.355,-12.638 8.355,-12.638 -5.567,6.498 -6.206,17.399 -2.076,25.538 z"
       sodipodi:nodetypes="csssccssscccccsssccccc" /><path
       style="fill:#000000;stroke:#231f20;stroke-width:3;stroke-miterlimit:10"
       inkscape:connector-curvature="0"
       id="path3803"
       d="M 49.547,36.899"
       stroke-miterlimit="10" /></g><path
     style="fill:#000000;stroke-width:0.74558794"
     d="M 10.88883,48.120003 C 4.874913,48.120003 -9.9999985e-7,52.995671 0,59.008831 c 0,6.014655 4.874913,10.890781 10.88883,10.890781 2.081565,0 4.020336,-0.593251 5.672728,-1.607956 a 11.901813,11.901813 0 0 1 -4.404316,-9.232087 11.901813,11.901813 0 0 1 4.470664,-9.292582 C 14.961609,48.727229 12.99788,48.120003 10.88883,48.120003 Z m -2.259726,2.942716 c -3.20752,3.741354 -3.572685,10.019012 -1.194258,14.705774 0,0 -3.763291,-2.120868 -3.617902,-7.430943 0.136438,-4.925352 4.81216,-7.274832 4.81216,-7.274831 z"
     id="path14-4"
     inkscape:connector-curvature="0"
     inkscape:export-filename="/Users/patrick/dev/littlego/resource/icon/switch-color/switch-to-white@3x.png"
     inkscape:export-xdpi="96.441422"
     inkscape:export-ydpi="96.441422" /><g
     id="g4832"
     transform="matrix(0.99911845,0,0,0.99911845,-3.312788,-21.845787)"
     style="stroke-width:0.1;stroke-miterlimit:4;stroke-dasharray:none"
     inkscape:export-filename="/Users/patrick/dev/littlego/resource/icon/switch-color/switch-to-white@3x.png"
     inkscape:export-xdpi="96.441422"
     inkscape:export-ydpi="96.441422"><path
       style="fill:#000000;fill-opacity:1;stroke:none;stroke-width:0.1;stroke-miterlimit:4;stroke-dasharray:none"
       inkscape:connector-curvature="0"
       id="path4819"
       d="m 23.867091,87.381067 c -0.05008,0 -0.100142,-0.01209 -0.145608,-0.03799 -0.147916,-0.08346 -3.61159,-2.092706 -3.474608,-7.093103 0.129493,-4.650459 4.402974,-6.852522 4.585423,-6.94346 0.125468,-0.06505 0.279142,-0.02935 0.367777,0.08172 0.08691,0.11166 0.08346,0.26936 -0.008,0.37699 -2.775312,3.237475 -3.230575,8.905514 -1.059592,13.184744 0.05929,0.116258 0.03511,0.258424 -0.05986,0.348783 -0.05756,0.05469 -0.130655,0.08231 -0.205473,0.08231 z M 23.758883,74.75403 c -1.22017,1.003188 -2.843803,2.834596 -2.918049,5.512062 -0.08345,3.04755 1.294416,4.911764 2.26077,5.8384 -1.488955,-3.774471 -1.219596,-8.169961 0.657279,-11.350462 z" /><path
       id="path4821"
       d="m 27.426823,70.077523 c -0.496859,0 -0.982043,0.04551 -1.461478,0.110244 -0.09077,0.01257 -0.180596,0.02614 -0.270879,0.04095 -5.187985,0.834132 -9.168881,5.330378 -9.168881,10.750047 0,5.045871 3.452915,9.288319 8.116871,10.523268 0.04411,0.01193 0.08804,0.02334 0.132293,0.03463 0.356682,0.08964 0.720273,0.160784 1.089809,0.214183 0.09483,0.014 0.188177,0.03256 0.283476,0.0441 0.420465,0.04948 0.845261,0.08188 1.278793,0.08188 0.433531,0 0.858329,-0.03244 1.278793,-0.08188 0.09529,-0.01161 0.188656,-0.03003 0.283476,-0.0441 0.369536,-0.0534 0.733127,-0.124562 1.089808,-0.214183 0.04427,-0.0113 0.08818,-0.02278 0.132293,-0.03463 4.663953,-1.234949 8.116868,-5.477397 8.116868,-10.523268 0,-5.419669 -3.980895,-9.915915 -9.168878,-10.750047 -0.09028,-0.01479 -0.180098,-0.02843 -0.27088,-0.04095 -0.479434,-0.06471 -0.964618,-0.110244 -1.461476,-0.110244 z m 0,1.584317 c 0.405569,0 0.806852,0.03085 1.203199,0.08503 0.05729,0.0075 0.113124,0.01987 0.170085,0.02835 1.226565,0.191836 2.39866,0.629374 3.458412,1.278793 a 13.323641,13.002808 0 0 1 0.01575,-0.01575 c 2.673191,1.639667 4.466327,4.581783 4.466327,7.940483 0,3.618223 -2.079996,6.755103 -5.102573,8.296406 a 13.323641,13.002808 0 0 1 -0.0032,-0.0032 c -0.323933,0.16471 -0.658282,0.311255 -0.998466,0.437812 -0.334894,0.124594 -0.676347,0.226151 -1.023665,0.311823 -0.0087,0.0021 -0.0165,0.0073 -0.0252,0.0095 -0.314736,0.07666 -0.635243,0.133152 -0.957519,0.176386 -0.04766,0.006 -0.09388,0.01658 -0.141743,0.02205 -0.351069,0.04149 -0.704933,0.063 -1.06146,0.063 -0.356528,0 -0.710392,-0.02152 -1.061461,-0.063 -0.04788,-0.0056 -0.09408,-0.01575 -0.141743,-0.02205 -0.322276,-0.04322 -0.642782,-0.09971 -0.957519,-0.176386 -0.0087,-0.0021 -0.01653,-0.0073 -0.0252,-0.0095 -0.347316,-0.08568 -0.688771,-0.187236 -1.023663,-0.311823 C 23.87702,89.583216 23.542669,89.43668 23.218736,89.27197 a 13.323641,13.002808 0 0 1 -0.0032,0.0032 c -3.022581,-1.541303 -5.102574,-4.678183 -5.102574,-8.296406 0,-3.3587 1.793132,-6.300816 4.466327,-7.940483 a 13.323641,13.002808 0 0 1 0.01575,0.01575 c 1.059749,-0.649419 2.231845,-1.086957 3.458411,-1.278793 0.05695,-0.0086 0.112806,-0.02089 0.170085,-0.02835 0.396346,-0.05418 0.797631,-0.08503 1.2032,-0.08503 z"
       style="fill:#000000;fill-opacity:1;stroke:#ffffff;stroke-width:0.1;stroke-miterlimit:4;stroke-dasharray:none;stroke-opacity:1"
       inkscape:connector-curvature="0" /></g></svg>