<svg xmlns="http://www.w3.org/2000/svg" xmlns:xlink="http://www.w3.org/1999/xlink" version="1.1" id="Your_Icon" x="0px" y="0px" width="100px" height="100px" viewBox="5.0 -10.0 100.0 135.0" enable-background="new 0 0 100 100" xml:space="preserve">
<g>
	<g>
		<g>
			<g>
			</g>
		</g>
		<g>
		</g>
	</g>
</g>
<g>
	<path d="M6.866,13.238C5.84,13.238,5,14.078,5,15.104v56.938c0,1.026,0.84,1.866,1.866,1.866h86.268   c1.026,0,1.866-0.84,1.866-1.866V15.104c0-1.026-0.84-1.866-1.866-1.866H6.866z M89.734,64.428c0,1.026-0.84,1.866-1.866,1.866   H12.127c-1.026,0-1.866-0.84-1.866-1.866V20.597c0-1.026,0.84-1.866,1.866-1.866h75.741c1.026,0,1.866,0.84,1.866,1.866V64.428z"/>
</g>
<path d="M69.362,82.894c-2.417-0.227-4.666-2.476-4.666-5.117c0-0.309,0-0.563,0-0.82H35.3c0,0.257,0,0.512,0,0.82  c0,2.642-2.249,4.891-4.666,5.117c-2.269,0.213-2.604,1.955-2.604,2.771c0,0.816,0.131,2.724,2.723,2.724c2.591,0,15.597,0,15.597,0  h10.425c0,0,9.877,0,12.469,0c2.591,0,2.723-1.907,2.723-2.724C71.968,84.849,71.631,83.106,69.362,82.894z"/>
<text x="0.0" y="117.5" font-size="5.0" font-weight="bold" font-family="Helvetica Neue, Helvetica, Arial-Unicode, Arial, Sans-serif" fill="#000000">Created by Kunsung Kim</text><text x="0.0" y="122.5" font-size="5.0" font-weight="bold" font-family="Helvetica Neue, Helvetica, Arial-Unicode, Arial, Sans-serif" fill="#000000">from the Noun Project</text></svg>