<svg xmlns="http://www.w3.org/2000/svg" xmlns:xlink="http://www.w3.org/1999/xlink" version="1.1" x="0px" y="0px" width="100px" height="100px" viewBox="5.0 -10.0 100.0 135.0" enable-background="new 0 0 100 100" xml:space="preserve">
<g id="Your_Icon">
	<polygon fill="#000000" points="13.185,11.56 25.783,0 76.555,0 87.125,11.56  "/>
	<path fill="#000000" d="M87.125,100h-73.94V13.555h73.94V100z M82.351,17.964H17.959v23.579h64.391V17.964z M19.959,19.96h60.391   v19.586H19.959V19.96z M82.351,72.319H17.959v23.579h64.391V72.319z M19.959,74.315h60.391v19.587H19.959V74.315z M82.351,44.988   H17.959v23.578h64.391V44.988z M19.959,46.984h60.391v19.587H19.959V46.984z M56.154,29.754c0-3.302-2.691-5.988-6-5.988   c-3.308,0-6,2.686-6,5.988c0,3.301,2.691,5.986,6,5.986C53.463,35.74,56.154,33.055,56.154,29.754z M54.154,29.754   c0,2.201-1.794,3.991-4,3.991c-2.205,0-4-1.791-4-3.991c0-2.201,1.794-3.992,4-3.992C52.36,25.762,54.154,27.553,54.154,29.754z    M56.154,56.777c0-3.301-2.691-5.986-6-5.986c-3.308,0-6,2.686-6,5.986c0,3.302,2.691,5.987,6,5.987   C53.463,62.765,56.154,60.079,56.154,56.777z M54.154,56.777c0,2.201-1.794,3.991-4,3.991c-2.205,0-4-1.79-4-3.991   c0-2.2,1.794-3.991,4-3.991C52.36,52.786,54.154,54.577,54.154,56.777z M56.154,84.109c0-3.302-2.691-5.987-6-5.987   c-3.308,0-6,2.686-6,5.987c0,3.301,2.691,5.986,6,5.986C53.463,90.096,56.154,87.41,56.154,84.109z M54.154,84.109   c0,2.2-1.794,3.99-4,3.99c-2.205,0-4-1.79-4-3.99c0-2.201,1.794-3.991,4-3.991C52.36,80.118,54.154,81.908,54.154,84.109z"/>
</g>
<g id="Layer_2" display="none">
	<path display="inline" d="M100,82.91h-4.464V53C95.536,27.892,75.108,7.464,50,7.464S4.464,27.892,4.464,53v29.91H0V53   C0,25.43,22.43,3,50,3c27.569,0,50,22.43,50,50V82.91z"/>
	<path display="inline" d="M91.064,91.478c0,2.979-2.416,5.395-5.395,5.395l0,0c-2.979,0-5.396-2.415-5.396-5.395V63.034   c0-2.979,2.417-5.393,5.396-5.393l0,0c2.979,0,5.395,2.414,5.395,5.393V91.478z"/>
	<path display="inline" d="M19.72,91.478c0,2.979-2.415,5.395-5.395,5.395l0,0c-2.979,0-5.394-2.415-5.394-5.395V63.034   c0-2.979,2.415-5.393,5.394-5.393l0,0c2.98,0,5.395,2.414,5.395,5.393V91.478z"/>
</g>
<text x="0.0" y="117.5" font-size="5.0" font-weight="bold" font-family="Helvetica Neue, Helvetica, Arial-Unicode, Arial, Sans-serif" fill="#000000">Created by Gustav Salomonsson</text><text x="0.0" y="122.5" font-size="5.0" font-weight="bold" font-family="Helvetica Neue, Helvetica, Arial-Unicode, Arial, Sans-serif" fill="#000000">from the Noun Project</text></svg>