<?xml version="1.0" encoding="UTF-8" standalone="no"?>
<svg
   width="31.745039pt"
   height="49.5pt"
   version="1.1"
   viewBox="0 0 31.745039 49.5"
   id="svg1838"
   sodipodi:docname="unclear.svg"
   inkscape:version="1.3.2 (091e20e, 2023-11-25)"
   xmlns:inkscape="http://www.inkscape.org/namespaces/inkscape"
   xmlns:sodipodi="http://sodipodi.sourceforge.net/DTD/sodipodi-0.dtd"
   xmlns="http://www.w3.org/2000/svg"
   xmlns:svg="http://www.w3.org/2000/svg">
  <sodipodi:namedview
     id="namedview1840"
     pagecolor="#ffffff"
     bordercolor="#666666"
     borderopacity="1.0"
     inkscape:pageshadow="2"
     inkscape:pageopacity="0.0"
     inkscape:pagecheckerboard="0"
     inkscape:document-units="px"
     showgrid="false"
     fit-margin-top="0"
     fit-margin-left="0"
     fit-margin-right="0"
     fit-margin-bottom="0"
     inkscape:zoom="5.721504"
     inkscape:cx="7.165948"
     inkscape:cy="14.856234"
     inkscape:window-width="1456"
     inkscape:window-height="907"
     inkscape:window-x="0"
     inkscape:window-y="25"
     inkscape:window-maximized="0"
     inkscape:current-layer="svg1838"
     inkscape:showpageshadow="2"
     inkscape:deskcolor="#d1d1d1" />
  <defs
     id="defs1766" />
  <g
     id="g2038"
     style="stroke:#000000;stroke-width:26.2014;stroke-miterlimit:4;stroke-dasharray:none;stroke-opacity:0"
     transform="matrix(0.08456646,0,0,0.0846946,-13.73757,1.1135054)"
     inkscape:export-filename="/Users/patrick/dev/littlego/resource/icon/position-valuation/even.png"
     inkscape:export-xdpi="96"
     inkscape:export-ydpi="96">
    <path
       d="m 217.34,182.05 h -41.887 c -2.5195,0 -4.4805,-0.28125 -4.3125,-3.5273 1.5117,-28.504 4.9844,-56.617 17.527,-82.77 v 0.0039 c 15.227,-32.66 41.453,-58.926 74.09,-74.203 26.18,-12.66 54.641,-19.922 83.688,-21.344 29.047,-1.4258 58.082,3.0156 85.375,13.059 39.527,12.648 71.324,42.309 86.688,80.863 9.2695,24.227 12.555,50.336 9.5742,76.102 -2.8672,31.703 -17.488,61.188 -40.988,82.656 -17.977,17.359 -37.184,33.602 -56,49.84 -13.945,12.098 -27.105,24.586 -33.602,42.559 v 0.004 c -4.5352,13.25 -7.0664,27.105 -7.5039,41.102 0,4.9844 -0.78516,9.9102 -0.95312,14.895 v 0.004 c 0.20312,1.0312 -0.12109,2.0977 -0.85938,2.8477 -0.73829,0.75 -1.8008,1.0898 -2.8359,0.90234 h -74.145 c -0.94922,0.25 -1.9609,-0.008 -2.6758,-0.67578 -0.71484,-0.67188 -1.0391,-1.6641 -0.85156,-2.6289 0.89453,-24.191 0.89453,-48.551 7.3906,-72.129 v 0.004 c 7.207,-24.641 21.27,-46.723 40.547,-63.672 16.801,-15.344 33.098,-30.855 48.832,-47.098 13.332,-13.422 22.391,-30.492 26.039,-49.055 6.1055,-31.527 -5.6016,-54.77 -35.895,-65.688 h -0.004 c -29.168,-11.246001 -61.668,-10.051001 -89.934,3.3008 -20.383,9.4648 -31.305,26.938 -36.68,48.047 v 0.004 c -1.7148,6.9961 -2.9336,14.109 -3.6406,21.277 0.25,1.6875 -0.36719,3.3867 -1.6445,4.5195 -1.2773,1.1289 -3.0391,1.5352 -4.6836,1.082 -13.664,-0.28125 -27.273,0 -40.938,0 z"
       id="path1768"
       style="stroke:#000000;stroke-width:26.2014;stroke-miterlimit:4;stroke-dasharray:none;stroke-opacity:0" />
    <path
       d="m 349.33,459.59 c 13.277,-0.35938 26.105,4.8281 35.406,14.316 9.2969,9.4883 14.223,22.422 13.594,35.691 -0.26953,17.633 -9.9297,33.785 -25.336,42.371 -15.41,8.582 -34.227,8.2969 -49.363,-0.75781 -15.141,-9.0508 -24.301,-25.492 -24.027,-43.125 -0.19531,-13.137 5.0195,-25.777 14.426,-34.949 9.4065,-9.172 22.172,-14.074 35.301,-13.547 z"
       id="path1770"
       style="stroke:#000000;stroke-width:26.2014;stroke-miterlimit:4;stroke-dasharray:none;stroke-opacity:0" />
  </g>
</svg>
