<?xml version="1.0" encoding="UTF-8"?>
<svg width="700pt" height="700pt" version="1.1" viewBox="0 0 700 700" xmlns="http://www.w3.org/2000/svg">
 <path d="m350 511.7c-3.082 0.011719-6.1172-0.78906-8.7891-2.3281-2.6758-1.5352-4.8945-3.75-6.4375-6.4219l-247.27-428.4c-2.0625-3.5703-2.7969-7.7539-2.0742-11.812 0.71875-4.0586 2.8516-7.7344 6.0156-10.375 3.1641-2.6406 7.1602-4.0781 11.285-4.0625h494.55c4.125-0.015625 8.1211 1.4219 11.285 4.0625 3.1641 2.6406 5.2969 6.3164 6.0156 10.375 0.72266 4.0586-0.011719 8.2422-2.0742 11.812l-247.27 428.4c-1.543 2.6719-3.7617 4.8867-6.4375 6.4219-2.6719 1.5391-5.707 2.3398-8.7891 2.3281zm-217-428.4 217 375.9 217-375.9z"/>
</svg>
