<?xml version="1.0" encoding="UTF-8" standalone="no"?>
<!-- Created with Inkscape (http://www.inkscape.org/) -->

<svg
   width="80"
   height="80"
   viewBox="0 0 21.166666 21.166667"
   version="1.1"
   id="svg1"
   inkscape:version="1.3.2 (091e20e, 2023-11-25)"
   sodipodi:docname="human-vs-human.svg"
   xmlns:inkscape="http://www.inkscape.org/namespaces/inkscape"
   xmlns:sodipodi="http://sodipodi.sourceforge.net/DTD/sodipodi-0.dtd"
   xmlns="http://www.w3.org/2000/svg"
   xmlns:svg="http://www.w3.org/2000/svg">
  <sodipodi:namedview
     id="namedview1"
     pagecolor="#ffffff"
     bordercolor="#666666"
     borderopacity="1.0"
     inkscape:showpageshadow="2"
     inkscape:pageopacity="0.0"
     inkscape:pagecheckerboard="0"
     inkscape:deskcolor="#d1d1d1"
     inkscape:document-units="mm"
     inkscape:zoom="1.6934021"
     inkscape:cx="21.849507"
     inkscape:cy="53.442712"
     inkscape:window-width="1064"
     inkscape:window-height="674"
     inkscape:window-x="0"
     inkscape:window-y="25"
     inkscape:window-maximized="0"
     inkscape:current-layer="layer1" />
  <defs
     id="defs1" />
  <g
     inkscape:label="Layer 1"
     inkscape:groupmode="layer"
     id="layer1"
     transform="translate(-92.138422,-100.09849)">
    <g
       id="g1"
       transform="translate(4.894738,-3.4416667)">
      <path
         inkscape:export-ydpi="90"
         inkscape:export-xdpi="90"
         id="path5444"
         d="m 97.079134,116.36563 -2.87599,-1.227 v -0.79525 c 0.271583,-0.26806 0.440725,-1.15505 0.440725,-1.15505 v -1.24467 c 0,-0.81609 -0.661662,-1.38181 -1.477557,-1.38181 -0.816374,0 -1.478035,0.56572 -1.478035,1.38181 v 1.24458 c 0,0 0.169239,0.88699 0.440725,1.15523 v 0.79506 l -2.875416,1.227 c -0.210329,0.21043 -0.210329,1.10984 -5.77e-4,1.3196 h 7.826121 c 0.209851,-0.20976 0.210329,-1.10917 0,-1.3195 z"
         inkscape:connector-curvature="0"
         style="stroke-width:0.169538" />
      <path
         inkscape:connector-curvature="0"
         d="m 106.40064,116.36563 -2.876,-1.227 v -0.79525 c 0.27159,-0.26806 0.44073,-1.15505 0.44073,-1.15505 v -1.24467 c 0,-0.81609 -0.66166,-1.38181 -1.47756,-1.38181 -0.81637,0 -1.47803,0.56572 -1.47803,1.38181 v 1.24458 c 0,0 0.16924,0.88699 0.44072,1.15523 v 0.79506 l -2.875415,1.227 c -0.210328,0.21043 -0.210328,1.10984 -5.09e-4,1.3196 h 7.826124 c 0.20985,-0.20976 0.21033,-1.10917 0,-1.3195 z"
         id="path5446"
         inkscape:export-xdpi="90"
         inkscape:export-ydpi="90"
         style="stroke-width:0.169538" />
    </g>
  </g>
</svg>
