<?xml version="1.0" encoding="UTF-8" standalone="no"?>
<svg
   version="1.1"
   x="0px"
   y="0px"
   viewBox="0 0 80 80"
   enable-background="new 0 0 100 100"
   xml:space="preserve"
   id="svg2"
   sodipodi:docname="board-setup.svg"
   width="80"
   height="80"
   inkscape:version="1.3.2 (091e20e, 2023-11-25)"
   xmlns:inkscape="http://www.inkscape.org/namespaces/inkscape"
   xmlns:sodipodi="http://sodipodi.sourceforge.net/DTD/sodipodi-0.dtd"
   xmlns="http://www.w3.org/2000/svg"
   xmlns:svg="http://www.w3.org/2000/svg"><defs
     id="defs2" /><sodipodi:namedview
     id="namedview2"
     pagecolor="#ffffff"
     bordercolor="#666666"
     borderopacity="1.0"
     inkscape:showpageshadow="2"
     inkscape:pageopacity="0.0"
     inkscape:pagecheckerboard="0"
     inkscape:deskcolor="#d1d1d1"
     showgrid="false"
     showguides="true"
     inkscape:zoom="7.94"
     inkscape:cx="46.473552"
     inkscape:cy="45.843829"
     inkscape:window-width="1624"
     inkscape:window-height="997"
     inkscape:window-x="0"
     inkscape:window-y="25"
     inkscape:window-maximized="0"
     inkscape:current-layer="svg2"><inkscape:grid
       id="grid4"
       units="px"
       originx="0"
       originy="0"
       spacingx="1"
       spacingy="1"
       empcolor="#0099e5"
       empopacity="0.30196078"
       color="#0099e5"
       opacity="0.14901961"
       empspacing="5"
       dotted="false"
       gridanglex="30"
       gridanglez="30"
       visible="false" /></sodipodi:namedview><g
     id="g1"
     transform="matrix(0.97058829,0,0,0.97058829,0.20588016,0.20588016)"><path
       style="color:#000000;fill:#000000;stroke-width:0.982143;stroke-linejoin:round;-inkscape-stroke:none"
       d="m 59.285711,7.0000018 c -8.667115,0 -15.714282,7.0471672 -15.714282,15.7142822 0,8.66713 7.047167,15.714285 15.714282,15.714285 8.667119,0 15.714285,-7.047155 15.714285,-15.714285 0,-8.667115 -7.047166,-15.7142822 -15.714285,-15.7142822 z m 0,1.9642856 c 7.605546,0 13.749999,6.1444596 13.749999,13.7499966 0,7.605546 -6.144453,13.749999 -13.749999,13.749999 -7.605536,0 -13.749997,-6.144453 -13.749997,-13.749999 0,-7.605537 6.144461,-13.7499966 13.749997,-13.7499966 z"
       id="path4" /><circle
       style="fill:#000000;fill-opacity:1;stroke:none;stroke-width:1.96429;stroke-linejoin:round;stroke-dasharray:none;stroke-opacity:1"
       id="circle10"
       cx="59.285713"
       cy="59.285713"
       r="15.714285" /><path
       style="color:#000000;fill:#000000;stroke-width:0.982143;stroke-linejoin:round;-inkscape-stroke:none"
       d="m 22.714284,74.999996 c -8.667115,0 -15.7142822,-7.047166 -15.7142822,-15.714275 0,-8.66713 7.0471672,-15.714285 15.7142822,-15.714285 8.667119,0 15.714285,7.047155 15.714285,15.714285 0,8.667109 -7.047166,15.714275 -15.714285,15.714275 z m 0,-1.964286 c 7.605546,0 13.749999,-6.144453 13.749999,-13.749989 0,-7.605546 -6.144453,-13.749999 -13.749999,-13.749999 -7.605536,0 -13.7499965,6.144453 -13.7499965,13.749999 0,7.605536 6.1444605,13.749989 13.7499965,13.749989 z"
       id="path11" /><circle
       style="fill:#000000;fill-opacity:1;stroke:none;stroke-width:1.96429;stroke-linejoin:round;stroke-dasharray:none;stroke-opacity:1"
       id="circle11"
       cx="22.714287"
       cy="-22.714287"
       r="15.714285"
       transform="scale(1,-1)" /></g></svg>
