<svg xmlns="http://www.w3.org/2000/svg" xmlns:xlink="http://www.w3.org/1999/xlink" xmlns:sketch="http://www.bohemiancoding.com/sketch/ns" viewBox="0 0 64 80" version="1.1" x="0px" y="0px"><title>Slice 1</title><desc>Created with Sketch.</desc><g stroke="none" stroke-width="1" fill="none" fill-rule="evenodd" sketch:type="MSPage"><path d="M19.4467474,44 L56,44 L56,49 L19.5009039,49 C20.093319,50.9430708 21,53 21,53 L6,46.5 L21,40 C21,40 20.0362288,41.9898957 19.4467474,44 Z M44.5142798,14 L17,14 L17,19 L44.538543,19 C43.9478872,20.9895196 43,23 43,23 L58,16.5 L43,10 C43,10 43.9223117,12.0404495 44.5142798,14 Z M17,29 L56,29 L56,34 L17,34 L17,29 Z M10,29 L15,29 L15,34 L10,34 L10,29 Z M10,14 L15,14 L15,19 L10,19 L10,14 Z" fill="#000000" sketch:type="MSShapeGroup"/></g><text x="0" y="79" fill="#000000" font-size="5px" font-weight="bold" font-family="'Helvetica Neue', Helvetica, Arial-Unicode, Arial, Sans-serif">Created by Tolga Inam</text><text x="0" y="84" fill="#000000" font-size="5px" font-weight="bold" font-family="'Helvetica Neue', Helvetica, Arial-Unicode, Arial, Sans-serif">from the Noun Project</text></svg>