<svg xmlns="http://www.w3.org/2000/svg" xmlns:xlink="http://www.w3.org/1999/xlink" version="1.1" x="0px" y="0px" viewBox="0 0 100 125" enable-background="new 0 0 100 100" xml:space="preserve"><path fill="#000000" d="M94.218,35.959v-1h-28.25V8.584h-1v26.375H50.68c-0.267-7.763-6.648-14-14.475-14  c-7.995,0-14.5,6.505-14.5,14.5c0,7.915,6.378,14.359,14.263,14.488v14.012H5.782v1h30.187v26.457h1V64.959h13.525  c0.267,8.039,6.872,14.5,14.975,14.5c8.271,0,15-6.729,15-15c0-8.103-6.461-14.708-14.5-14.975V35.959H94.218z M23.706,35.459  c0-6.893,5.607-12.5,12.5-12.5s12.5,5.607,12.5,12.5s-5.607,12.5-12.5,12.5S23.706,42.352,23.706,35.459z M64.968,49.484  c-7.871,0.262-14.213,6.604-14.475,14.475H36.968V49.92c7.473-0.391,13.454-6.453,13.712-13.961h14.288V49.484z"/><text x="0" y="115" fill="#000000" font-size="5px" font-weight="bold" font-family="'Helvetica Neue', Helvetica, Arial-Unicode, Arial, Sans-serif">Created by Duygu Ozkan</text><text x="0" y="120" fill="#000000" font-size="5px" font-weight="bold" font-family="'Helvetica Neue', Helvetica, Arial-Unicode, Arial, Sans-serif">from the Noun Project</text></svg>