<svg xmlns="http://www.w3.org/2000/svg" xmlns:xlink="http://www.w3.org/1999/xlink" version="1.1" x="0px" y="0px" viewBox="0 0 100 125" enable-background="new 0 0 100 100" xml:space="preserve"><g><path fill="#000000" d="M91.811,5.363H8.189c-1.559,0-2.826,1.268-2.826,2.826v83.622c0,1.558,1.268,2.826,2.826,2.826h83.621   c1.559,0,2.826-1.268,2.826-2.826V8.189C94.637,6.631,93.369,5.363,91.811,5.363z M94.323,91.811c0,1.385-1.127,2.512-2.513,2.512   H8.189c-1.386,0-2.513-1.127-2.513-2.512V8.189c0-1.385,1.127-2.512,2.513-2.512h83.621c1.386,0,2.513,1.126,2.513,2.512V91.811z"/><path fill="#000000" d="M76.738,9.921c-2.199,0-3.995,1.74-4.096,3.915h-0.909c-0.101-2.175-1.896-3.915-4.096-3.915   s-3.995,1.74-4.097,3.915h-0.438c-0.101-2.175-1.896-3.915-4.096-3.915c-2.2,0-3.996,1.74-4.097,3.915h-9.851   c-0.084-2.191-1.887-3.949-4.098-3.949c-2.212,0-4.016,1.757-4.1,3.949h-0.435c-0.101-2.175-1.896-3.915-4.097-3.915   s-3.996,1.74-4.097,3.915H14.13v72.181h71.396V13.836h-4.69C80.734,11.662,78.938,9.921,76.738,9.921z M76.738,10.549   c1.919,0,3.479,1.561,3.479,3.478c0,1.918-1.56,3.479-3.479,3.479c-1.917,0-3.478-1.56-3.478-3.479   C73.261,12.109,74.821,10.549,76.738,10.549z M73.261,22.854c0-1.918,1.561-3.479,3.478-3.479c1.919,0,3.479,1.561,3.479,3.479   c0,1.917-1.56,3.478-3.479,3.478C74.821,26.332,73.261,24.771,73.261,22.854z M76.582,26.952v1.067   c-2.09,0.133-3.757,1.833-3.836,3.936h-1.011c-0.081-2.139-1.802-3.86-3.94-3.941v-1.062c2.139-0.081,3.859-1.802,3.94-3.941   l0.905,0C72.723,25.149,74.443,26.87,76.582,26.952z M71.737,14.15h0.901c0.064,2.154,1.794,3.893,3.943,3.975v0.63   c-2.139,0.082-3.859,1.803-3.941,3.941l-0.905,0c-0.081-2.139-1.802-3.86-3.94-3.941v-0.631   C69.944,18.043,71.673,16.305,71.737,14.15z M62.485,22.854c0,1.917-1.561,3.478-3.478,3.478c-1.918,0-3.479-1.561-3.479-3.478   c0-1.918,1.561-3.479,3.479-3.479C60.925,19.375,62.485,20.936,62.485,22.854z M45.902,49.843h-0.836   c-0.024-2.191-1.771-3.971-3.947-4.053v-0.793c2.139-0.082,3.859-1.803,3.941-3.941h0.803c0.081,2.151,1.823,3.881,3.98,3.943   v0.902C47.705,45.983,45.983,47.705,45.902,49.843z M49.844,54.098v0.905c-2.139,0.081-3.86,1.802-3.941,3.94h-0.842   c-0.082-2.138-1.803-3.859-3.941-3.94v-1.018c2.101-0.08,3.799-1.743,3.936-3.829h0.848C45.983,52.295,47.705,54.017,49.844,54.098   z M36.531,32.288c0-0.006-0.001-0.013-0.001-0.019h0.333c0.082,2.138,1.803,3.859,3.942,3.94v0.591   c-2.14,0.081-3.86,1.803-3.942,3.941H36.43c-0.081-2.138-1.802-3.859-3.94-3.941v-0.41C34.723,36.356,36.531,34.531,36.531,32.288z    M32.489,28.186v-1.234c2.139-0.082,3.859-1.803,3.94-3.941h0.434c0.082,2.139,1.803,3.86,3.942,3.941v1.062   c-2.14,0.082-3.86,1.803-3.942,3.941h-0.35C36.346,29.868,34.611,28.218,32.489,28.186z M37.483,32.112   c0-1.917,1.561-3.479,3.479-3.479c1.917,0,3.478,1.561,3.478,3.479c0,1.918-1.561,3.478-3.478,3.478   C39.044,35.59,37.483,34.03,37.483,32.112z M54.909,49.843h-0.812c-0.081-2.139-1.803-3.86-3.941-3.941v-0.907   c2.121-0.101,3.821-1.813,3.902-3.939h0.851c0.081,2.138,1.803,3.86,3.941,3.941v0.597c-2.191,0.083-3.949,1.887-3.949,4.098   C54.901,49.743,54.907,49.792,54.909,49.843z M54.909,40.742h-0.851c-0.081-2.139-1.803-3.859-3.941-3.941v-4.532h4.792   c0.081,2.139,1.803,3.859,3.941,3.941v0.591C56.712,36.883,54.99,38.604,54.909,40.742z M50.117,31.955v-5.012   c2.059-0.165,3.69-1.852,3.769-3.933h1.023c0.081,2.139,1.803,3.86,3.941,3.941v1.062c-2.139,0.081-3.86,1.802-3.941,3.941H50.117z    M49.788,26.332c-1.917,0-3.478-1.561-3.478-3.478c0-1.918,1.561-3.479,3.478-3.479c1.919,0,3.479,1.561,3.479,3.479   C53.267,24.771,51.707,26.332,49.788,26.332z M49.788,26.959c0.006,0,0.011,0,0.016,0v4.996h-4.743   c-0.082-2.139-1.803-3.859-3.941-3.941v-1.062c2.139-0.082,3.859-1.803,3.941-3.941h0.63   C45.773,25.202,47.577,26.959,49.788,26.959z M41.119,36.209c2.139-0.081,3.859-1.802,3.941-3.941h4.743v4.532   c-2.138,0.082-3.859,1.803-3.94,3.941l-0.803,0c-0.082-2.138-1.803-3.859-3.941-3.941V36.209z M46.482,40.899   c0-1.918,1.561-3.479,3.479-3.479s3.479,1.561,3.479,3.479c0,1.917-1.561,3.478-3.479,3.478S46.482,42.817,46.482,40.899z    M50.156,54.098c2.139-0.082,3.86-1.803,3.941-3.941h0.832c0.226,1.995,1.886,3.556,3.921,3.633v1.214   c-2.139,0.081-3.86,1.803-3.941,3.941h-0.812c-0.081-2.138-1.803-3.86-3.941-3.941V54.098z M54.909,59.258   c0.081,2.139,1.803,3.859,3.941,3.941v0.591c-2.139,0.082-3.86,1.802-3.941,3.941h-4.846v-4.528   c2.182-0.033,3.952-1.775,4.034-3.945H54.909z M55.529,59.102c0-1.918,1.561-3.479,3.479-3.479c1.917,0,3.478,1.561,3.478,3.479   c0,1.917-1.561,3.478-3.478,3.478C57.09,62.58,55.529,61.019,55.529,59.102z M55.529,32.112c0-1.918,1.561-3.479,3.479-3.479   c1.917,0,3.478,1.561,3.478,3.479c0,1.917-1.561,3.478-3.478,3.478C57.09,35.59,55.529,34.029,55.529,32.112z M50.156,14.15h4.751   c0.064,2.154,1.793,3.893,3.943,3.975v0.63c-2.139,0.082-3.86,1.802-3.941,3.941h-1.023c-0.078-2.068-1.688-3.748-3.729-3.931   V14.15z M41.119,18.091c2.139-0.082,3.859-1.803,3.941-3.941h4.783v4.6c-0.019,0-0.036-0.003-0.056-0.003   c-2.211,0-4.015,1.758-4.098,3.949h-0.63c-0.082-2.139-1.803-3.86-3.941-3.941V18.091z M44.44,22.854   c0,1.917-1.561,3.478-3.478,3.478c-1.919,0-3.479-1.561-3.479-3.478c0-1.918,1.561-3.479,3.479-3.479   C42.88,19.375,44.44,20.936,44.44,22.854z M36.432,14.15h0.432c0.082,2.138,1.803,3.859,3.942,3.941v0.664   c-2.14,0.082-3.86,1.802-3.942,3.941H36.43c-0.081-2.139-1.802-3.86-3.94-3.941v-0.63C34.639,18.043,36.367,16.305,36.432,14.15z    M32.332,10.549c1.918,0,3.479,1.561,3.479,3.478c0,1.918-1.561,3.479-3.479,3.479s-3.479-1.56-3.479-3.479   C28.854,12.109,30.414,10.549,32.332,10.549z M28.233,40.742h-0.916c-0.081-2.138-1.803-3.859-3.941-3.941v-0.591   c2.139-0.082,3.859-1.802,3.941-3.94h1.002c0,0.006-0.001,0.013-0.001,0.019c0,2.18,1.709,3.963,3.856,4.093v0.419   C30.036,36.882,28.315,38.604,28.233,40.742z M32.175,44.997v0.866c-2.151,0.082-3.882,1.823-3.943,3.98h-0.909   c-0.023-2.191-1.771-3.971-3.946-4.053v-0.793c2.139-0.082,3.859-1.803,3.941-3.941h0.916   C28.315,43.194,30.036,44.915,32.175,44.997z M28.336,31.955h-1.019c-0.081-2.139-1.803-3.86-3.941-3.941v-1.062   c2.139-0.081,3.86-1.803,3.941-3.941h0.916c0.082,2.139,1.803,3.86,3.941,3.941v1.243C30.138,28.318,28.5,29.929,28.336,31.955z    M26.697,32.112c0,1.917-1.56,3.478-3.479,3.478c-1.917,0-3.479-1.561-3.479-3.478c0-1.918,1.562-3.479,3.479-3.479   C25.138,28.633,26.697,30.194,26.697,32.112z M26.697,40.899c0,1.918-1.56,3.478-3.479,3.478c-1.917,0-3.479-1.56-3.479-3.478   s1.562-3.479,3.479-3.479C25.138,37.42,26.697,38.981,26.697,40.899z M26.697,49.888c0,1.917-1.56,3.478-3.479,3.478   c-1.917,0-3.479-1.561-3.479-3.478c0-1.918,1.562-3.479,3.479-3.479C25.138,46.41,26.697,47.97,26.697,49.888z M23.376,53.986   c2.102-0.08,3.799-1.743,3.936-3.829h0.924c0.102,2.121,1.814,3.821,3.939,3.902v0.944c-2.139,0.081-3.859,1.802-3.941,3.941   h-0.916c-0.081-2.139-1.803-3.859-3.941-3.941V53.986z M28.233,59.258c0.082,2.139,1.803,3.859,3.941,3.941v0.591   c-2.139,0.082-3.859,1.803-3.941,3.941h-4.857v-4.532c2.139-0.082,3.859-1.803,3.941-3.941H28.233z M28.854,59.101   c0-1.918,1.561-3.479,3.479-3.479s3.479,1.561,3.479,3.479s-1.561,3.479-3.479,3.479S28.854,61.019,28.854,59.101z M23.376,14.15   h4.856c0.063,2.154,1.792,3.893,3.942,3.975v0.63c-2.139,0.082-3.859,1.802-3.941,3.941h-0.916   c-0.082-2.139-1.803-3.859-3.941-3.941V14.15z M26.697,22.854c0,1.918-1.56,3.478-3.479,3.478c-1.917,0-3.479-1.56-3.479-3.478   s1.562-3.479,3.479-3.479C25.138,19.375,26.697,20.936,26.697,22.854z M14.444,14.15h8.618v4.605   c-2.139,0.082-3.859,1.803-3.941,3.941h-4.677V14.15z M14.444,23.011h4.677c0.082,2.139,1.803,3.86,3.941,3.941v1.062   c-2.096,0.08-3.789,1.731-3.935,3.81h-4.684V23.011z M14.444,32.137h4.67c0.014,2.199,1.766,3.99,3.948,4.073v0.591   c-2.139,0.081-3.859,1.803-3.941,3.941h-4.677V32.137z M14.444,41.056h4.677c0.082,2.138,1.803,3.859,3.941,3.941v0.793   c-2.139,0.082-3.859,1.802-3.941,3.941h-4.677V41.056z M14.444,50.045h4.677c0.082,2.139,1.803,3.86,3.941,3.941v1.017   c-2.139,0.081-3.859,1.802-3.941,3.941h-4.677V50.045z M23.063,85.704h-8.618v-8.714h8.618V85.704z M23.063,76.675h-8.618v-8.63   h8.618V76.675z M23.063,67.731h-8.618v-8.474h4.677c0.082,2.139,1.803,3.859,3.941,3.941V67.731z M19.74,59.101   c0-1.918,1.562-3.479,3.479-3.479c1.919,0,3.479,1.561,3.479,3.479s-1.56,3.479-3.479,3.479   C21.302,62.58,19.74,61.019,19.74,59.101z M32.175,85.704h-8.799v-8.714h8.799V85.704z M32.175,76.675h-8.799v-8.63h4.857   c0.082,2.139,1.803,3.86,3.941,3.941V76.675z M28.854,67.889c0-1.918,1.561-3.479,3.479-3.479s3.479,1.561,3.479,3.479   c0,1.917-1.561,3.479-3.479,3.479S28.854,69.806,28.854,67.889z M40.806,85.704h-8.316v-8.714h8.316V85.704z M40.806,76.675h-8.316   v-4.688c2.139-0.082,3.859-1.803,3.94-3.941h0.434c0.082,2.139,1.803,3.86,3.942,3.941V76.675z M40.806,63.791   c-2.14,0.082-3.86,1.802-3.942,3.941H36.43c-0.081-2.139-1.803-3.859-3.94-3.941v-0.591c2.139-0.082,3.859-1.803,3.94-3.941h0.434   c0.082,2.139,1.803,3.86,3.942,3.941V63.791z M40.806,55.003c-2.14,0.081-3.86,1.802-3.942,3.94H36.43   c-0.081-2.139-1.802-3.859-3.94-3.941v-0.944c2.125-0.081,3.838-1.781,3.938-3.902h0.441c0.137,2.086,1.835,3.75,3.937,3.829   V55.003z M40.806,45.79c-2.177,0.083-3.924,1.862-3.948,4.053h-0.426c-0.062-2.157-1.792-3.899-3.942-3.98v-0.866   c2.139-0.082,3.859-1.803,3.94-3.941h0.434c0.082,2.138,1.803,3.859,3.942,3.941V45.79z M37.483,40.899   c0-1.918,1.561-3.479,3.479-3.479c1.917,0,3.478,1.561,3.478,3.479s-1.561,3.478-3.478,3.478   C39.044,44.377,37.483,42.817,37.483,40.899z M49.749,85.704h-8.63v-8.714h8.63V85.704z M49.749,76.675h-8.63v-4.688   c2.139-0.082,3.859-1.803,3.941-3.941h4.688V76.675z M49.749,67.731h-4.688c-0.082-2.139-1.803-3.859-3.941-3.941v-0.591   c2.139-0.082,3.859-1.803,3.941-3.941h0.842c0.08,2.107,1.752,3.809,3.847,3.937V67.731z M46.521,59.102   c0-1.918,1.561-3.479,3.479-3.479c1.919,0,3.479,1.561,3.479,3.479c0,1.917-1.56,3.478-3.479,3.478   C48.082,62.58,46.521,61.019,46.521,59.102z M58.851,85.704h-8.787v-8.714h8.787V85.704z M58.851,76.675h-8.787v-8.63h4.846   c0.081,2.139,1.803,3.86,3.941,3.941V76.675z M55.529,67.889c0-1.918,1.561-3.479,3.479-3.479c1.917,0,3.478,1.561,3.478,3.479   c0,1.917-1.561,3.479-3.478,3.479C57.09,71.367,55.529,69.806,55.529,67.889z M67.48,85.704h-8.316v-8.714h8.316V85.704z    M67.48,76.675h-8.316v-4.688c2.139-0.082,3.859-1.803,3.941-3.941h0.591c0.082,2.052,1.732,3.703,3.784,3.784V76.675z    M67.48,63.947c-2.052,0.082-3.702,1.732-3.784,3.784h-0.591c-0.082-2.138-1.803-3.859-3.941-3.941v-0.591   c2.139-0.082,3.859-1.803,3.941-3.941l0.435,0c0.081,2.139,1.803,3.859,3.94,3.941V63.947z M67.48,55.003   c-2.138,0.081-3.86,1.803-3.94,3.941l-0.435,0c-0.082-2.139-1.803-3.86-3.941-3.941V53.79c2.035-0.077,3.694-1.638,3.922-3.633   h0.455c0.102,2.121,1.813,3.821,3.939,3.902V55.003z M67.48,45.863c-2.151,0.082-3.882,1.823-3.943,3.98h-0.432   c0.002-0.051,0.008-0.101,0.008-0.151c0-2.211-1.758-4.015-3.949-4.098v-0.597c2.139-0.082,3.859-1.803,3.941-3.941h4.375V45.863z    M67.48,40.742h-4.375c-0.082-2.138-1.803-3.859-3.941-3.941v-0.591c2.139-0.082,3.859-1.802,3.941-3.941l0.435,0   c0.08,2.138,1.803,3.859,3.94,3.94V40.742z M67.48,28.014c-2.138,0.082-3.859,1.802-3.94,3.941l-0.435,0   c-0.082-2.139-1.803-3.859-3.941-3.941v-1.062c2.139-0.082,3.859-1.803,3.941-3.941l0.435,0c0.08,2.138,1.803,3.86,3.94,3.941   V28.014z M67.48,18.756c-2.138,0.082-3.859,1.802-3.94,3.941l-0.435,0c-0.082-2.139-1.803-3.86-3.941-3.941v-0.63   c2.149-0.082,3.878-1.82,3.943-3.975h0.431c0.064,2.154,1.793,3.893,3.942,3.975V18.756z M64.159,14.027   c0-1.917,1.561-3.478,3.479-3.478s3.479,1.561,3.479,3.478c0,1.918-1.561,3.479-3.479,3.479S64.159,15.945,64.159,14.027z    M76.582,85.704h-8.787v-8.714h8.787V85.704z M76.582,76.675h-8.787V71.83c2.052-0.082,3.702-1.732,3.784-3.784h5.003V76.675z    M76.582,67.731h-5.003c-0.082-2.052-1.732-3.703-3.784-3.784v-0.748c2.139-0.082,3.859-1.803,3.94-3.941h4.847V67.731z    M76.582,58.944h-4.847c-0.081-2.139-1.802-3.859-3.94-3.941v-0.944c2.125-0.081,3.838-1.781,3.938-3.902h4.849V58.944z    M76.582,49.843h-4.844c-0.062-2.157-1.792-3.899-3.943-3.98v-4.807h8.787V49.843z M76.582,40.742h-8.787v-4.532   c2.139-0.081,3.859-1.802,3.94-3.94h1.011c0.079,2.104,1.746,3.803,3.836,3.936V40.742z M73.365,32.112   c0-1.917,1.561-3.479,3.479-3.479c1.917,0,3.479,1.561,3.479,3.479c0,1.918-1.562,3.478-3.479,3.478   C74.926,35.59,73.365,34.03,73.365,32.112z M85.212,85.704h-8.315v-8.714h8.315V85.704z M85.212,76.675h-8.315v-8.63h8.315V76.675z    M85.212,67.731h-8.315v-8.474h8.315V67.731z M85.212,58.944h-8.315v-8.787h8.315V58.944z M85.212,49.843h-8.315v-8.787h8.315   V49.843z M85.212,40.742h-8.315v-4.526c2.187-0.028,3.963-1.773,4.045-3.946h4.271V40.742z M85.212,31.955h-4.271   c-0.082-2.174-1.858-3.919-4.045-3.947v-1.057c2.138-0.082,3.859-1.803,3.939-3.941h4.376V31.955z M85.212,14.15v8.546h-4.376   c-0.08-2.139-1.802-3.86-3.939-3.941v-0.63c2.148-0.082,3.877-1.82,3.942-3.975H85.212z"/></g><text x="0" y="115" fill="#000000" font-size="5px" font-weight="bold" font-family="'Helvetica Neue', Helvetica, Arial-Unicode, Arial, Sans-serif">Created by Duygu Ozkan</text><text x="0" y="120" fill="#000000" font-size="5px" font-weight="bold" font-family="'Helvetica Neue', Helvetica, Arial-Unicode, Arial, Sans-serif">from the Noun Project</text></svg>