<svg xmlns="http://www.w3.org/2000/svg" xmlns:xlink="http://www.w3.org/1999/xlink" version="1.1" x="0px" y="0px" viewBox="0 0 100 125" enable-background="new 0 0 100 100" xml:space="preserve"><path fill="#000000" d="M77.588,31.672h6.256v-0.65h-6.219c0.004-0.109,0.016-0.215,0.016-0.325c0-4.951-3.943-8.989-8.855-9.16  v-5.183h-0.646v5.183c-4.908,0.175-8.85,4.211-8.85,9.16c0,0.109,0.014,0.215,0.018,0.325h-1.102  c-0.26-4.352-3.639-7.873-7.932-8.342v-6.326h-0.65v6.287c-0.107-0.004-0.215-0.017-0.324-0.017c-4.816,0-8.744,3.833-8.916,8.607  h-8.949V16.265h-0.648v14.968H16.791v0.65h13.994v8.7c-4.516,0.328-8.104,4.017-8.268,8.575h-6.361v0.65h6.361  c0.164,4.557,3.752,8.247,8.268,8.574v0.781c-4.801,0.169-8.666,4.035-8.836,8.834h-5.793v0.65h5.793  c0.17,4.8,4.035,8.666,8.836,8.835v6.252h0.648v-6.252c4.801-0.169,8.666-4.035,8.836-8.835h0.771  c0.25,4.59,3.973,8.262,8.582,8.429v6.659h0.65v-6.659c4.666-0.168,8.424-3.926,8.592-8.591h9.273v15.25h0.646v-15.25h14.988v-0.649  H68.785v-8.543c0.111,0.003,0.219,0.016,0.33,0.016c5.061,0,9.178-4.117,9.178-9.176c0-0.11-0.016-0.215-0.018-0.324h5.498v-0.65  h-5.535c-0.488-4.603-4.393-8.202-9.123-8.202c-0.111,0-0.219,0.013-0.33,0.017v-1.116C73.371,39.698,77.111,36.17,77.588,31.672z   M49.299,23.925c4.209,0,7.633,3.424,7.633,7.634c0,4.208-3.424,7.633-7.633,7.633c-4.207,0-7.635-3.425-7.635-7.633  C41.664,27.349,45.092,23.925,49.299,23.925z M40.383,31.883c0.172,4.775,4.1,8.608,8.916,8.608c0.109,0,0.217-0.013,0.324-0.017  v8.684h-9.275c-0.172-4.774-4.1-8.608-8.914-8.608v-8.667H40.383z M49.623,59.245c-4.719,0.171-8.514,4.012-8.6,8.753H40.27  c-0.17-4.799-4.035-8.666-8.836-8.834v-0.748c4.814,0,8.742-3.833,8.914-8.606h9.275V59.245z M23.801,49.483  c0-4.208,3.424-7.633,7.633-7.633s7.633,3.425,7.633,7.633s-3.424,7.633-7.633,7.633S23.801,53.691,23.801,49.483z M49.949,75.794  c-4.211,0-7.633-3.424-7.633-7.634c0-4.208,3.422-7.633,7.633-7.633c4.207,0,7.633,3.425,7.633,7.633  C57.582,72.37,54.156,75.794,49.949,75.794z M68.139,67.836h-9.273c-0.168-4.666-3.926-8.423-8.592-8.591v-9.436h9.682  c-0.004,0.108-0.016,0.214-0.016,0.324c0,4.729,3.596,8.632,8.199,9.123V67.836z M59.992,49.158h-9.719v-8.723  c4.432-0.483,7.895-4.219,7.951-8.763h1.117c0.477,4.495,4.215,8.022,8.797,8.185v1.152C63.855,41.466,60.447,44.877,59.992,49.158z  "/><text x="0" y="115" fill="#000000" font-size="5px" font-weight="bold" font-family="'Helvetica Neue', Helvetica, Arial-Unicode, Arial, Sans-serif">Created by Duygu Ozkan</text><text x="0" y="120" fill="#000000" font-size="5px" font-weight="bold" font-family="'Helvetica Neue', Helvetica, Arial-Unicode, Arial, Sans-serif">from the Noun Project</text></svg>