<svg xmlns="http://www.w3.org/2000/svg" xmlns:xlink="http://www.w3.org/1999/xlink" version="1.1" x="0px" y="0px" viewBox="0 0 100 125" enable-background="new 0 0 100 100" xml:space="preserve"><g><path fill="#000000" d="M91.862,5.309H8.138c-1.561,0-2.829,1.269-2.829,2.829v83.725c0,1.561,1.269,2.829,2.829,2.829h83.725   c1.561,0,2.829-1.269,2.829-2.829V8.138C94.691,6.577,93.423,5.309,91.862,5.309z M94.378,91.862c0,1.387-1.129,2.516-2.516,2.516   H8.138c-1.387,0-2.515-1.129-2.515-2.516V8.138c0-1.387,1.128-2.515,2.515-2.515h83.725c1.387,0,2.516,1.128,2.516,2.515V91.862z"/><path fill="#000000" d="M14.085,86.063h71.484V13.792H14.085V86.063z M28.096,32.247c0.082,2.202,1.854,3.976,4.058,4.057v4.427   h-8.811v-8.483H28.096z M76.614,32.247v4.427c-2.202,0.081-3.975,1.854-4.057,4.057h-0.841c-0.082-2.115-1.784-3.818-3.9-3.899   v-0.527c2.202-0.081,3.976-1.854,4.058-4.057H76.614z M71.717,67.753c-0.082-2.115-1.784-3.818-3.9-3.899V59.27h8.798v8.483H71.717   z M28.253,67.753h-4.91V59.27h4.753c0.082,2.202,1.854,3.976,4.058,4.058v0.526C30.037,63.935,28.334,65.638,28.253,67.753z    M28.096,50.157c0.082,2.202,1.854,3.976,4.058,4.057v0.685c-2.203,0.081-3.976,1.854-4.058,4.057h-4.753v-8.798H28.096z    M32.467,36.304c2.202-0.081,3.977-1.854,4.058-4.057h0.352c0.08,2.155,1.78,3.9,3.918,4.05v0.534   c-2.116,0.081-3.819,1.784-3.9,3.899h-4.427V36.304z M49.749,32.247v4.423c-2.231,0.05-4.038,1.837-4.12,4.061h-0.621   c-0.081-2.115-1.784-3.818-3.899-3.899v-0.521c2.268-0.009,4.113-1.814,4.196-4.063H49.749z M63.445,32.247   c0.081,2.202,1.854,3.976,4.058,4.057v0.527c-2.116,0.081-3.819,1.784-3.9,3.899h-4.427v-8.483H63.445z M67.503,63.854   c-2.116,0.081-3.819,1.784-3.9,3.899h-4.427v-4.584c2.115-0.081,3.818-1.784,3.899-3.899h4.428V63.854z M36.367,67.753   c-0.082-2.115-1.784-3.818-3.9-3.899v-0.526c2.202-0.082,3.977-1.855,4.058-4.058h0.509c0.082,2.115,1.785,3.818,3.9,3.899v4.584   H36.367z M40.794,50.157v4.905c-2.051,0.148-3.681,1.824-3.761,3.893h-0.509c-0.081-2.202-1.855-3.976-4.058-4.057v-0.685   c2.202-0.081,3.977-1.854,4.058-4.057H40.794z M40.951,37.451c1.895,0,3.437,1.542,3.437,3.437c0,1.896-1.542,3.437-3.437,3.437   c-1.896,0-3.438-1.541-3.438-3.437C37.514,38.993,39.056,37.451,40.951,37.451z M41.108,44.945c2.115-0.081,3.818-1.785,3.899-3.9   h0.621c0.082,2.224,1.889,4.011,4.12,4.061v0.685c-2.159,0.128-3.883,1.882-3.963,4.053h-4.678V44.945z M58.861,41.045v4.897   c-2.115,0.082-3.818,1.785-3.9,3.9h-0.747c-0.082-2.233-1.904-4.028-4.15-4.062v-0.683c2.173-0.112,3.913-1.873,3.994-4.054H58.861   z M59.019,62.549c-1.896,0-3.437-1.541-3.437-3.437s1.541-3.437,3.437-3.437c1.895,0,3.437,1.541,3.437,3.437   S60.913,62.549,59.019,62.549z M54.961,58.955h-4.897v-4.736c2.246-0.033,4.068-1.828,4.15-4.062h0.747   c0.082,2.116,1.785,3.818,3.9,3.9v0.998C56.746,55.136,55.043,56.84,54.961,58.955z M59.019,53.437   c-1.896,0-3.437-1.541-3.437-3.437s1.541-3.437,3.437-3.437c1.895,0,3.437,1.541,3.437,3.437S60.913,53.437,59.019,53.437z    M45.786,50.157c0.08,2.171,1.804,3.925,3.963,4.053v4.745h-4.601c-0.083-2.162-1.86-3.897-4.04-3.907v-4.891H45.786z    M41.091,62.549c-1.895,0-3.437-1.541-3.437-3.437s1.542-3.437,3.437-3.437s3.437,1.541,3.437,3.437S42.985,62.549,41.091,62.549z    M41.248,63.169c2.116-0.081,3.818-1.784,3.9-3.899h4.601v8.483h-8.501V63.169z M50.063,59.27h4.897   c0.082,2.115,1.785,3.818,3.9,3.899v4.584h-8.798V59.27z M63.075,58.955c-0.081-2.115-1.784-3.819-3.899-3.899v-0.998   c2.115-0.082,3.818-1.784,3.899-3.9h4.428v8.798H63.075z M63.075,49.843c-0.081-2.115-1.784-3.818-3.899-3.9v-4.897h4.427   c0.081,2.115,1.784,3.819,3.9,3.9v4.897H63.075z M67.659,44.324c-1.895,0-3.437-1.541-3.437-3.437c0-1.895,1.542-3.437,3.437-3.437   c1.896,0,3.437,1.542,3.437,3.437C71.096,42.783,69.555,44.324,67.659,44.324z M58.861,40.73h-4.804   c-0.081-2.182-1.821-3.94-3.994-4.054v-4.43h8.798V40.73z M36.894,41.045c0.081,2.115,1.784,3.819,3.9,3.9v4.897h-4.27   c-0.081-2.202-1.855-3.976-4.058-4.057v-4.741H36.894z M32.311,64.474c1.895,0,3.437,1.541,3.437,3.438   c0,1.895-1.542,3.436-3.437,3.436c-1.896,0-3.438-1.541-3.438-3.436C28.873,66.015,30.415,64.474,32.311,64.474z M32.467,71.968   c2.116-0.081,3.818-1.784,3.9-3.9h4.566v8.641h-8.467V71.968z M41.248,68.067h8.501v8.641h-8.501V68.067z M50.063,68.067h8.798   v8.641h-8.798V68.067z M59.176,68.067h4.427c0.081,2.116,1.784,3.819,3.9,3.9v4.74h-8.327V68.067z M67.659,71.347   c-1.895,0-3.437-1.541-3.437-3.436c0-1.896,1.542-3.438,3.437-3.438c1.896,0,3.437,1.541,3.437,3.438   C71.096,69.806,69.555,71.347,67.659,71.347z M67.816,58.955v-8.798h8.798v8.798H67.816z M67.816,49.843v-4.897   c2.116-0.081,3.818-1.785,3.9-3.9h0.841c0.082,2.202,1.854,3.976,4.057,4.058v4.74H67.816z M67.503,27.875   c-2.203,0.082-3.977,1.855-4.058,4.058h-4.27v-8.955h8.327V27.875z M58.861,31.933h-8.798v-8.955h8.798V31.933z M49.749,31.933   h-4.444c-0.083-2.249-1.929-4.055-4.196-4.064v-4.891h8.641V31.933z M40.794,27.883c-2.138,0.149-3.838,1.895-3.918,4.05h-0.352   c-0.081-2.202-1.855-3.976-4.058-4.058v-4.897h8.327V27.883z M32.153,41.045v4.741c-2.203,0.081-3.976,1.854-4.058,4.057h-4.753   v-8.798H32.153z M23.029,49.843h-8.63v-8.798h8.63V49.843z M14.399,50.157h8.63v8.798h-8.63V50.157z M14.399,59.27h8.63v8.483   h-8.63V59.27z M14.399,68.067h8.63v8.641h-8.63V68.067z M23.343,68.067h4.91c0.081,2.116,1.784,3.819,3.9,3.9v4.74h-8.811V68.067z    M32.153,77.022v8.726h-8.811v-8.726H32.153z M32.467,77.022h8.467v8.726h-8.467V77.022z M41.248,77.022h8.501v8.726h-8.501V77.022   z M50.063,77.022h8.798v8.726h-8.798V77.022z M59.176,77.022h8.327v8.726h-8.327V77.022z M67.816,77.022h8.798v8.726h-8.798V77.022   z M67.816,76.708v-4.74c2.116-0.081,3.818-1.784,3.9-3.9h4.897v8.641H67.816z M76.929,68.067h8.327v8.641h-8.327V68.067z    M76.929,67.753V59.27h8.327v8.483H76.929z M76.929,58.955v-8.798h8.327v8.798H76.929z M76.929,49.843v-4.74   c2.202-0.082,3.976-1.855,4.057-4.058h4.271v8.798H76.929z M80.985,40.73c-0.081-2.202-1.854-3.976-4.057-4.057v-4.427h8.327v8.483   H80.985z M76.929,31.933v-8.955h8.327v8.955H76.929z M76.614,31.933h-4.74c-0.082-2.202-1.855-3.976-4.058-4.058v-4.897h8.798   V31.933z M67.816,22.663v-8.557h8.798v8.557H67.816z M67.503,22.663h-8.327v-8.557h8.327V22.663z M58.861,22.663h-8.798v-8.557   h8.798V22.663z M49.749,22.663h-8.641v-8.557h8.641V22.663z M40.794,22.663h-8.327v-8.557h8.327V22.663z M32.153,22.663h-8.811   v-8.557h8.811V22.663z M32.153,22.978v4.897c-2.203,0.082-3.976,1.855-4.058,4.058h-4.753v-8.955H32.153z M23.029,31.933h-8.63   v-8.955h8.63V31.933z M23.029,32.247v8.483h-8.63v-8.483H23.029z M14.399,77.022h8.63v8.726h-8.63V77.022z M76.929,85.748v-8.726   h8.327v8.726H76.929z M85.256,22.663h-8.327v-8.557h8.327V22.663z M23.029,14.106v8.557h-8.63v-8.557H23.029z"/></g><text x="0" y="115" fill="#000000" font-size="5px" font-weight="bold" font-family="'Helvetica Neue', Helvetica, Arial-Unicode, Arial, Sans-serif">Created by Duygu Ozkan</text><text x="0" y="120" fill="#000000" font-size="5px" font-weight="bold" font-family="'Helvetica Neue', Helvetica, Arial-Unicode, Arial, Sans-serif">from the Noun Project</text></svg>