<svg xmlns="http://www.w3.org/2000/svg" xmlns:xlink="http://www.w3.org/1999/xlink" version="1.1" x="0px" y="0px" viewBox="0 0 100 125" enable-background="new 0 0 100 100" xml:space="preserve"><g><path fill="#000000" stroke="#231F20" stroke-width="3" stroke-miterlimit="10" d="M48.17,61.454"/><path fill="#000000" stroke="#231F20" stroke-width="2" stroke-miterlimit="10" d="M48.17,61.454"/><path fill="#000000" stroke="#231F20" stroke-width="2" stroke-miterlimit="10" d="M47.909,61.454"/><path fill="#000000" stroke="#231F20" stroke-width="2" stroke-miterlimit="10" d="M48.17,61.454"/><path fill="#000000" d="M31.933,60.895c-0.087,0-0.174-0.021-0.253-0.066c-0.257-0.145-6.275-3.636-6.037-12.324   c0.225-8.08,7.65-11.906,7.967-12.064c0.218-0.113,0.485-0.051,0.639,0.142c0.151,0.194,0.145,0.468-0.014,0.655   c-4.822,5.625-5.613,15.473-1.841,22.908c0.103,0.202,0.061,0.449-0.104,0.606C32.19,60.847,32.063,60.895,31.933,60.895z    M31.745,38.956c-2.12,1.743-4.941,4.925-5.07,9.577c-0.145,5.295,2.249,8.534,3.928,10.144   C28.016,52.119,28.484,44.482,31.745,38.956z"/><path fill="#000000" d="M61.908,31.347c-4.363,0-8.37,1.493-11.57,3.976c-3.416-2.89-7.729-4.491-12.221-4.491   c-10.442,0-18.938,8.495-18.938,18.938c0,10.441,8.495,18.937,18.938,18.937c4.211,0,8.296-1.425,11.606-3.996   c3.293,2.779,7.54,4.46,12.185,4.46c10.446,0,18.912-8.466,18.912-18.911C80.82,39.814,72.354,31.347,61.908,31.347z M47.746,62.76   c-2.776,2.058-6.153,3.19-9.629,3.19c-8.923,0-16.183-7.261-16.183-16.182c0-8.923,7.26-16.183,16.183-16.183   c3.709,0,7.276,1.28,10.148,3.6c-3.257,3.397-5.269,7.996-5.269,13.072C42.997,55.057,44.8,59.424,47.746,62.76z M55.906,61.995   c0,0-6.531-3.68-6.279-12.9c0.237-8.555,8.355-12.638,8.355-12.638C52.415,42.955,51.776,53.856,55.906,61.995z"/><path fill="#000000" stroke="#231F20" stroke-width="3" stroke-miterlimit="10" d="M49.547,36.899"/></g><text x="0" y="115" fill="#000000" font-size="5px" font-weight="bold" font-family="'Helvetica Neue', Helvetica, Arial-Unicode, Arial, Sans-serif">Created by Duygu Ozkan</text><text x="0" y="120" fill="#000000" font-size="5px" font-weight="bold" font-family="'Helvetica Neue', Helvetica, Arial-Unicode, Arial, Sans-serif">from the Noun Project</text></svg>