<svg xmlns="http://www.w3.org/2000/svg" xmlns:xlink="http://www.w3.org/1999/xlink" version="1.1" x="0px" y="0px" viewBox="0 0 100 125" enable-background="new 0 0 100 100" xml:space="preserve"><path fill="#000000" d="M94.9,35.697v-1.015H66.225V7.91h-1.016v26.772H50.707c-0.262-7.621-6.334-13.775-13.918-14.171V7.878  h-1.016v12.605c-7.834,0.128-14.184,6.4-14.451,14.199H5.1v1.015h16.223c0.268,7.799,6.617,14.071,14.451,14.199v14.223H5.133v1.015  h30.641V91.99h1.016V65.134h13.729c0.266,7.99,6.703,14.427,14.691,14.692v12.295h1.016V79.827  c7.99-0.266,14.428-6.703,14.693-14.692H94.9v-1.015H80.918c-0.266-7.99-6.703-14.427-14.693-14.692V35.697H94.9z M23.326,35.19  c0-6.997,5.691-12.688,12.688-12.688s12.689,5.692,12.689,12.688S43.01,47.878,36.014,47.878S23.326,42.187,23.326,35.19z   M65.209,49.427c-7.988,0.266-14.426,6.703-14.691,14.692H36.789v-14.25c7.584-0.396,13.656-6.55,13.918-14.171h14.502V49.427z"/><text x="0" y="115" fill="#000000" font-size="5px" font-weight="bold" font-family="'Helvetica Neue', Helvetica, Arial-Unicode, Arial, Sans-serif">Created by Duygu Ozkan</text><text x="0" y="120" fill="#000000" font-size="5px" font-weight="bold" font-family="'Helvetica Neue', Helvetica, Arial-Unicode, Arial, Sans-serif">from the Noun Project</text></svg>