<svg xmlns="http://www.w3.org/2000/svg" xmlns:xlink="http://www.w3.org/1999/xlink" version="1.1" x="0px" y="0px" viewBox="0 0 100 125" enable-background="new 0 0 100 100" xml:space="preserve"><path fill="#000000" d="M94.224,22.617v-0.632H77.526V5.412h-0.633v16.573H59.183V5.414H58.55v16.571H41.154V5.34h-0.633v16.646  H23.759V5.405h-0.633v16.58H5.966v0.632h17.16v18.028H5.885v0.633h17.241v17.079H5.777v0.632h17.349v17.712H5.776v0.633h17.35V94.66  h0.633V77.334h16.763V94.66h0.633V77.334H58.55V94.66h0.633V77.334h17.711V94.66h0.633V77.334h16.551v-0.633H77.526V58.989h16.551  v-0.632H77.526V41.278h16.697v-0.633H77.526V22.617H94.224z M58.55,22.617v10.012c-4.3,0.255-7.741,3.712-7.972,8.017h-9.424V22.617  H58.55z M49.538,58.357c-0.113-4.618-3.792-8.355-8.384-8.571v-8.508h9.41c0.09,4.436,3.592,8.039,7.985,8.299v8.78H49.538z   M40.739,66.12c-4.161,0-7.545-3.385-7.545-7.545s3.384-7.545,7.545-7.545c4.16,0,7.545,3.385,7.545,7.545  S44.899,66.12,40.739,66.12z M23.759,22.617h16.763v18.028H23.759V22.617z M23.759,41.278h16.763v8.498  c-4.684,0.114-8.467,3.897-8.581,8.581h-8.182V41.278z M23.759,76.701V58.989h8.19c0.216,4.592,3.955,8.271,8.572,8.385v9.327  H23.759z M41.154,76.701v-9.338c4.525-0.212,8.161-3.848,8.374-8.374h9.021v17.712H41.154z M76.894,76.701H59.183V58.989h17.711  V76.701z M76.894,58.357H59.183v-8.761c4.568-0.068,8.27-3.755,8.363-8.318h9.348V58.357z M76.894,40.646h-9.362  c-0.237-4.432-3.875-7.97-8.349-8.036v-9.992h17.711V40.646z"/><text x="0" y="115" fill="#000000" font-size="5px" font-weight="bold" font-family="'Helvetica Neue', Helvetica, Arial-Unicode, Arial, Sans-serif">Created by Duygu Ozkan</text><text x="0" y="120" fill="#000000" font-size="5px" font-weight="bold" font-family="'Helvetica Neue', Helvetica, Arial-Unicode, Arial, Sans-serif">from the Noun Project</text></svg>