<svg xmlns="http://www.w3.org/2000/svg" xmlns:xlink="http://www.w3.org/1999/xlink" version="1.1" x="0px" y="0px" viewBox="0 0 100 125" enable-background="new 0 0 100 100" xml:space="preserve"><g><path fill="#000000" stroke="#231F20" stroke-miterlimit="10" d="M91.348,5.858H8.652c-1.541,0-2.794,1.253-2.794,2.794v82.695   c0,1.541,1.253,2.794,2.794,2.794h82.695c1.541,0,2.794-1.254,2.794-2.794V8.652C94.142,7.111,92.889,5.858,91.348,5.858z    M93.832,91.348c0,1.369-1.114,2.484-2.484,2.484H8.652c-1.37,0-2.484-1.115-2.484-2.484V8.652c0-1.37,1.115-2.484,2.484-2.484   h82.695c1.37,0,2.484,1.115,2.484,2.484V91.348z"/><path fill="#000000" stroke="#231F20" stroke-miterlimit="10" d="M14.527,85.618h70.605v-71.38H14.527V85.618z M14.838,50.155h8.522   v8.69h-8.522V50.155z M49.752,59.155v8.379h-8.535v-8.379H49.752z M41.217,58.845v-8.69h8.535v8.69H41.217z M50.063,59.155h8.69   v8.379h-8.69V59.155z M50.063,58.845v-8.69h8.69v8.69H50.063z M59.063,50.155h8.224v8.69h-8.224V50.155z M59.063,49.845v-8.69   h8.224v8.69H59.063z M58.752,49.845h-8.69v-8.69h8.69V49.845z M50.063,40.845v-8.38h8.69v8.38H50.063z M49.752,40.845h-8.535v-8.38   h8.535V40.845z M49.752,41.155v8.69h-8.535v-8.69H49.752z M40.907,49.845h-8.224v-8.69h8.224V49.845z M40.907,50.155v8.69h-8.224   v-8.69H40.907z M32.373,58.845h-8.702v-8.69h8.702V58.845z M14.838,59.155h8.522v8.379h-8.522V59.155z M23.671,59.155h8.702v8.379   h-8.702V59.155z M32.683,59.155h8.224v8.379h-8.224V59.155z M40.907,67.845v8.534h-8.224v-8.534H40.907z M41.217,67.845h8.535   v8.534h-8.535V67.845z M50.063,67.845h8.69v8.534h-8.69V67.845z M59.063,67.845h8.224v8.534h-8.224V67.845z M59.063,67.535v-8.379   h8.224v8.379H59.063z M67.597,59.155h8.689v8.379h-8.689V59.155z M67.597,58.845v-8.69h8.689v8.69H67.597z M67.597,49.845v-8.69   h8.689v8.69H67.597z M67.597,40.845v-8.38h8.689v8.38H67.597z M67.287,40.845h-8.224v-8.38h8.224V40.845z M59.063,32.155V23.31   h8.224v8.845H59.063z M58.752,32.155h-8.69V23.31h8.69V32.155z M49.752,32.155h-8.535V23.31h8.535V32.155z M40.907,32.155h-8.224   V23.31h8.224V32.155z M40.907,32.465v8.38h-8.224v-8.38H40.907z M32.373,40.845h-8.702v-8.38h8.702V40.845z M32.373,41.155v8.69   h-8.702v-8.69H32.373z M23.36,49.845h-8.522v-8.69h8.522V49.845z M14.838,67.845h8.522v8.534h-8.522V67.845z M23.671,67.845h8.702   v8.534h-8.702V67.845z M32.373,76.69v8.618h-8.702V76.69H32.373z M32.683,76.69h8.224v8.618h-8.224V76.69z M41.217,76.69h8.535   v8.618h-8.535V76.69z M50.063,76.69h8.69v8.618h-8.69V76.69z M59.063,76.69h8.224v8.618h-8.224V76.69z M67.597,76.69h8.689v8.618   h-8.689V76.69z M67.597,76.379v-8.534h8.689v8.534H67.597z M76.597,67.845h8.225v8.534h-8.225V67.845z M76.597,67.535v-8.379h8.225   v8.379H76.597z M76.597,58.845v-8.69h8.225v8.69H76.597z M76.597,49.845v-8.69h8.225v8.69H76.597z M76.597,40.845v-8.38h8.225v8.38   H76.597z M76.597,32.155V23.31h8.225v8.845H76.597z M76.287,32.155h-8.689V23.31h8.689V32.155z M67.597,23v-8.452h8.689V23H67.597z    M67.287,23h-8.224v-8.452h8.224V23z M58.752,23h-8.69v-8.452h8.69V23z M49.752,23h-8.535v-8.452h8.535V23z M40.907,23h-8.224   v-8.452h8.224V23z M32.373,23h-8.702v-8.452h8.702V23z M32.373,23.31v8.845h-8.702V23.31H32.373z M23.36,32.155h-8.522V23.31h8.522   V32.155z M23.36,32.465v8.38h-8.522v-8.38H23.36z M14.838,76.69h8.522v8.618h-8.522V76.69z M76.597,85.308V76.69h8.225v8.618   H76.597z M84.822,23h-8.225v-8.452h8.225V23z M23.36,14.548V23h-8.522v-8.452H23.36z"/></g><text x="0" y="115" fill="#000000" font-size="5px" font-weight="bold" font-family="'Helvetica Neue', Helvetica, Arial-Unicode, Arial, Sans-serif">Created by Duygu Ozkan</text><text x="0" y="120" fill="#000000" font-size="5px" font-weight="bold" font-family="'Helvetica Neue', Helvetica, Arial-Unicode, Arial, Sans-serif">from the Noun Project</text></svg>