<svg xmlns="http://www.w3.org/2000/svg" xmlns:xlink="http://www.w3.org/1999/xlink" version="1.1" x="0px" y="0px" viewBox="0 0 100 125" enable-background="new 0 0 100 100" xml:space="preserve"><path fill="#000000" d="M65.274,49.622V35.56h-0.499v-0.464H49.986c-0.267-7.763-6.648-14-14.475-14c-7.995,0-14.5,6.505-14.5,14.5  c0,7.915,6.378,14.359,14.263,14.488v14.512h0.479v0.5H49.8c0.267,8.039,6.872,14.5,14.975,14.5c8.271,0,15-6.729,15-15  C79.774,56.494,73.313,49.888,65.274,49.622z M49.986,36.096h14.288v13.525c-7.871,0.262-14.213,6.604-14.475,14.475H36.274V50.057  C43.747,49.667,49.729,43.604,49.986,36.096z M23.012,35.596c0-6.893,5.607-12.5,12.5-12.5s12.5,5.607,12.5,12.5  s-5.607,12.5-12.5,12.5S23.012,42.489,23.012,35.596z"/><text x="0" y="115" fill="#000000" font-size="5px" font-weight="bold" font-family="'Helvetica Neue', Helvetica, Arial-Unicode, Arial, Sans-serif">Created by Duygu Ozkan</text><text x="0" y="120" fill="#000000" font-size="5px" font-weight="bold" font-family="'Helvetica Neue', Helvetica, Arial-Unicode, Arial, Sans-serif">from the Noun Project</text></svg>