<svg xmlns="http://www.w3.org/2000/svg" xmlns:xlink="http://www.w3.org/1999/xlink" version="1.1" x="0px" y="0px" viewBox="0 0 100 125" enable-background="new 0 0 100 100" xml:space="preserve"><path fill="#000000" d="M94.831,27.296v-0.551h-13.7V12.908h-0.552v13.837H65.416V12.703h-0.552v14.042h-15.44V12.909h-0.551v13.836  H33.707V12.909h-0.552v13.836H19.231V12.98H18.68v13.765H5.169v0.551H18.68v14.843H5.169v0.552H18.68v15.303H5.169v0.552H18.68  v14.474H5.244v0.551H18.68v13.728h0.552V73.569h14.062v13.458h0.551V73.569h15.029v13.458h0.551V73.569h15.44v13.465h0.552V73.569  h15.163v13.119h0.552V73.569h13.307v-0.551H81.131V58.682h13.628V58.13H81.131V42.69h13.641v-0.552H81.131V27.296H94.831z   M64.864,27.296v7.344c-4.074,0.144-7.355,3.425-7.499,7.499h-0.373c-0.147-4.053-3.48-7.307-7.568-7.307v-7.536H64.864z   M56.923,58.13c-0.144-4.074-3.425-7.355-7.499-7.499v-0.635c4.088,0,7.421-3.253,7.568-7.306h0.373  c0.144,4.074,3.425,7.355,7.499,7.499v0.304c-4.12,0.146-7.434,3.499-7.507,7.637H56.923z M41.006,58.13  c-0.072-3.978-3.219-7.209-7.162-7.423v-0.731c3.896-0.211,7.014-3.371,7.155-7.285h0.856c0.14,3.868,3.185,7.001,7.018,7.278v0.662  c-4.074,0.144-7.356,3.425-7.5,7.499H41.006z M33.431,64.748c-3.479,0-6.319-2.759-6.466-6.203h0.004v-0.552h-0.004  c0.146-3.444,2.986-6.204,6.466-6.204c3.572,0,6.479,2.907,6.479,6.479S37.003,64.748,33.431,64.748z M26.965,42.139  c0.146-3.444,2.986-6.204,6.466-6.204c3.572,0,6.479,2.907,6.479,6.479s-2.906,6.479-6.479,6.479c-3.479,0-6.319-2.759-6.466-6.203  h0.004v-0.552H26.965z M49.424,35.935c3.572,0,6.479,2.907,6.479,6.479s-2.906,6.479-6.479,6.479s-6.479-2.907-6.479-6.479  S45.852,35.935,49.424,35.935z M48.873,27.296v7.564c-3.833,0.277-6.878,3.409-7.018,7.278h-0.856  c-0.143-3.96-3.332-7.149-7.292-7.292v-7.551H48.873z M19.231,27.296h13.924v7.551c-3.961,0.143-7.15,3.332-7.293,7.292h-6.631  V27.296z M19.231,42.69h6.631c0.145,4.007,3.406,7.227,7.431,7.3v0.703c-4.024,0.072-7.286,3.293-7.431,7.3h-6.631V42.69z   M19.231,73.019V58.545h6.631c0.145,4.006,3.406,7.226,7.431,7.299v7.175H19.231z M33.844,73.019v-7.189  c3.851-0.209,6.939-3.297,7.148-7.147h0.381c0.144,4.074,3.426,7.355,7.5,7.5v6.837H33.844z M49.424,73.019v-6.837  c4.074-0.145,7.355-3.426,7.499-7.5h0.45c0.211,4.011,3.463,7.22,7.491,7.362v6.975H49.424z M80.579,73.019H65.416v-6.975  c4.027-0.143,7.28-3.352,7.492-7.362h7.671V73.019z M80.579,58.13h-7.656c-0.073-4.138-3.387-7.491-7.507-7.637v-0.304  c4.074-0.144,7.355-3.425,7.499-7.499h7.664V58.13z M80.579,42.139h-7.664c-0.144-4.074-3.425-7.355-7.499-7.499v-7.344h15.163  V42.139z"/><text x="0" y="115" fill="#000000" font-size="5px" font-weight="bold" font-family="'Helvetica Neue', Helvetica, Arial-Unicode, Arial, Sans-serif">Created by Duygu Ozkan</text><text x="0" y="120" fill="#000000" font-size="5px" font-weight="bold" font-family="'Helvetica Neue', Helvetica, Arial-Unicode, Arial, Sans-serif">from the Noun Project</text></svg>