<svg xmlns="http://www.w3.org/2000/svg" xmlns:xlink="http://www.w3.org/1999/xlink" version="1.1" x="0px" y="0px" viewBox="0 0 100 125" enable-background="new 0 0 100 100" xml:space="preserve"><g><path fill="#000000" stroke="#231F20" stroke-miterlimit="10" d="M31.298,34.197c-8.852,0-16.029,7.176-16.029,16.027   c0,8.853,7.177,16.028,16.029,16.028c8.852,0,16.028-7.176,16.028-16.028C47.326,41.373,40.149,34.197,31.298,34.197z    M26.21,60.172c0,0-5.536-3.118-5.322-10.934c0.199-7.25,7.083-10.71,7.083-10.71C23.25,44.034,22.709,53.274,26.21,60.172z"/><path fill="#000000" d="M67.429,32.698c-9.553,0-17.3,7.747-17.3,17.302c0,9.556,7.747,17.302,17.3,17.302   c9.558,0,17.303-7.746,17.303-17.302C84.731,40.445,76.987,32.698,67.429,32.698z M61.938,60.738c0,0-5.976-3.367-5.745-11.803   c0.217-7.825,7.645-11.562,7.645-11.562C58.743,43.318,58.161,53.293,61.938,60.738z"/></g><text x="0" y="115" fill="#000000" font-size="5px" font-weight="bold" font-family="'Helvetica Neue', Helvetica, Arial-Unicode, Arial, Sans-serif">Created by Duygu Ozkan</text><text x="0" y="120" fill="#000000" font-size="5px" font-weight="bold" font-family="'Helvetica Neue', Helvetica, Arial-Unicode, Arial, Sans-serif">from the Noun Project</text></svg>