<svg xmlns="http://www.w3.org/2000/svg" xmlns:xlink="http://www.w3.org/1999/xlink" version="1.1" x="0px" y="0px" viewBox="0 0 100 125" enable-background="new 0 0 100 100" xml:space="preserve"><path fill="#000000" d="M86.435,59.767v-1.063c4.554-0.169,8.207-3.916,8.207-8.509s-3.653-8.339-8.207-8.508v-2.039  c4.146-0.409,7.396-3.914,7.396-8.166c0-4.251-3.25-7.757-7.396-8.166V13.256H75.926c-0.202-4.345-3.793-7.82-8.187-7.82  c-4.395,0-7.982,3.476-8.188,7.82H40.693c-0.204-4.52-3.935-8.138-8.503-8.138c-4.571,0-8.301,3.618-8.506,8.138H13.502v9.722  c-4.523,0.201-8.144,3.934-8.144,8.505s3.62,8.305,8.144,8.505v2.031c-4.251,0.304-7.618,3.851-7.618,8.177  c0,4.419,3.512,8.022,7.89,8.191v19.452c-4.649,0.059-8.415,3.855-8.415,8.519c0,4.7,3.823,8.524,8.524,8.524  c4.7,0,8.523-3.824,8.523-8.524c0-4.522-3.544-8.224-7.998-8.498v-9.585h9.275c0.165,4.272,3.602,7.709,7.874,7.874v2.018  c-4.378,0.169-7.891,3.773-7.891,8.191c0,4.525,3.682,8.207,8.207,8.207c4.418,0,8.022-3.512,8.191-7.89h19.207  c0.475,4.253,4.088,7.572,8.467,7.572c4.377,0,7.992-3.319,8.467-7.572h10.229V76.148c4.377-0.169,7.891-3.773,7.891-8.191  S90.812,59.936,86.435,59.767z M77.927,67.641h-1.68c-0.165-4.447-3.745-8.026-8.19-8.191v-0.731  c4.577-0.019,8.304-3.664,8.473-8.205h1.08c0.166,4.447,3.744,8.026,8.191,8.191v1.063C81.528,59.932,78.092,63.368,77.927,67.641z   M58.802,67.641c-0.164-4.447-3.744-8.026-8.189-8.191v-1.063c4.271-0.165,7.708-3.602,7.873-7.874h1.028  c0.16,4.353,3.593,7.874,7.908,8.177v0.76c-4.447,0.165-8.026,3.744-8.19,8.191H58.802z M32.191,78.166v-2.018  c4.271-0.165,7.709-3.602,7.874-7.874h1.722c0.164,4.447,3.743,8.026,8.19,8.191v9.574h-9.912  C39.9,81.769,36.463,78.331,32.191,78.166z M23.999,49.878h-1.718c-0.168-4.361-3.747-7.862-8.145-7.887v-1.998  c4.476-0.133,8.087-3.726,8.254-8.193h1.291c0.161,4.341,3.576,7.857,7.876,8.175v2.047C27.433,42.338,24.158,45.712,23.999,49.878z   M67.422,21.833v1.458c-4.272,0.166-7.709,3.603-7.874,7.874h-0.746c-0.164-4.446-3.744-8.025-8.189-8.19v-9.084h8.932  C59.674,18.194,63.127,21.668,67.422,21.833z M58.485,49.878c-0.165-4.271-3.602-7.708-7.873-7.873V39.99  c4.445-0.164,8.025-3.744,8.189-8.19h0.746c0.165,4.271,3.602,7.709,7.874,7.873v2.029c-4.315,0.303-7.748,3.824-7.908,8.176H58.485  z M50.294,57.134c-3.826,0-6.938-3.112-6.938-6.938c0-3.825,3.111-6.938,6.938-6.938s6.938,3.113,6.938,6.938  C57.232,54.021,54.12,57.134,50.294,57.134z M42.114,49.648h-1.746c-0.284-4.27-3.838-7.658-8.177-7.659v-1.983  c4.593-0.001,8.337-3.654,8.506-8.206h1.09c0.164,4.446,3.743,8.026,8.19,8.19v2.015C45.784,42.167,42.392,45.484,42.114,49.648z   M67.739,38.421c-3.826,0-6.938-3.112-6.938-6.938s3.112-6.938,6.938-6.938s6.938,3.112,6.938,6.938S71.565,38.421,67.739,38.421z   M49.978,22.975c-4.447,0.165-8.026,3.744-8.19,8.19h-1.09c-0.169-4.552-3.913-8.205-8.506-8.206v-0.792  c4.615-0.001,8.378-3.692,8.51-8.276h9.276V22.975z M32.19,43.257c3.825,0,6.938,3.113,6.938,6.938c0,3.826-3.112,6.938-6.938,6.938  c-3.826,0-6.939-3.112-6.939-6.938C25.251,46.37,28.364,43.257,32.19,43.257z M32.191,58.402c4.495-0.001,8.153-3.636,8.2-8.12h1.7  c0.047,4.379,3.537,7.937,7.886,8.104v1.063c-4.447,0.165-8.026,3.744-8.19,8.191h-1.722c-0.165-4.272-3.603-7.709-7.874-7.874  V58.402z M85.801,41.688c-4.447,0.165-8.025,3.744-8.191,8.19h-1.08c-0.169-4.54-3.896-8.187-8.473-8.204v-2.001  c4.271-0.164,7.708-3.602,7.873-7.873h1.504c0.169,4.378,3.773,7.889,8.19,7.889c0.06,0,0.117-0.007,0.177-0.008V41.688z   M92.562,31.482c0,3.826-3.111,6.938-6.938,6.938s-6.938-3.112-6.938-6.938s3.111-6.938,6.938-6.938S92.562,27.656,92.562,31.482z   M85.801,23.284c-0.06-0.001-0.117-0.009-0.177-0.009c-4.417,0-8.021,3.513-8.19,7.89H75.93c-0.165-4.271-3.602-7.708-7.873-7.874  v-1.458c4.295-0.165,7.747-3.639,7.876-7.942h9.868V23.284z M67.739,6.705c3.826,0,6.938,3.111,6.938,6.938  s-3.112,6.938-6.938,6.938s-6.938-3.112-6.938-6.938S63.913,6.705,67.739,6.705z M23.678,13.891c0.126,4.373,3.557,7.925,7.88,8.243  v0.856c-4.3,0.317-7.715,3.834-7.876,8.175h-1.291c-0.167-4.468-3.778-8.061-8.254-8.193v-9.081H23.678z M7.152,50.195  c0-3.825,3.112-6.938,6.938-6.938s6.938,3.113,6.938,6.938c0,3.826-3.112,6.938-6.938,6.938S7.152,54.021,7.152,50.195z   M14.408,58.387c4.271-0.165,7.709-3.602,7.873-7.874h1.718c0.159,4.167,3.434,7.541,7.559,7.857v1.396  c-4.272,0.165-7.709,3.602-7.874,7.874h-9.275V58.387z M24.937,67.957c0-3.825,3.111-6.938,6.938-6.938s6.938,3.113,6.938,6.938  c0,3.826-3.112,6.938-6.938,6.938S24.937,71.783,24.937,67.957z M31.874,93.296c-3.826,0-6.938-3.112-6.938-6.938  s3.111-6.938,6.938-6.938s6.938,3.112,6.938,6.938S35.7,93.296,31.874,93.296z M50.612,86.04v-9.574  c4.445-0.165,8.025-3.744,8.189-8.191h0.43c0.164,4.447,3.743,8.026,8.19,8.191v0.75c-4.554,0.167-8.206,3.914-8.206,8.507  c0,0.107,0.012,0.212,0.016,0.317H50.612z M76.247,86.04c0.004-0.105,0.016-0.21,0.016-0.317c0-4.593-3.653-8.34-8.206-8.507v-0.75  c4.445-0.165,8.025-3.744,8.19-8.191h1.68c0.165,4.272,3.602,7.709,7.874,7.874v9.892H76.247z M86.117,74.896  c-3.825,0-6.938-3.112-6.938-6.938c0-3.825,3.112-6.938,6.938-6.938c3.826,0,6.938,3.113,6.938,6.938  C93.056,71.783,89.943,74.896,86.117,74.896z"/><text x="0" y="115" fill="#000000" font-size="5px" font-weight="bold" font-family="'Helvetica Neue', Helvetica, Arial-Unicode, Arial, Sans-serif">Created by Duygu Ozkan</text><text x="0" y="120" fill="#000000" font-size="5px" font-weight="bold" font-family="'Helvetica Neue', Helvetica, Arial-Unicode, Arial, Sans-serif">from the Noun Project</text></svg>