<svg xmlns="http://www.w3.org/2000/svg" xmlns:xlink="http://www.w3.org/1999/xlink" version="1.1" x="0px" y="0px" viewBox="0 0 100 125" enable-background="new 0 0 100 100" xml:space="preserve"><path fill="#000000" d="M94.589,5.392h-0.616H5.55v0.52H4.965v88.037h0.022v0.1c0,0.246,0,0.377,0.531,0.449v0.082l85.643,0.028  v-1.063l-22.484-0.007c-1.457-0.001-2.949-0.001-4.462-0.001v-27.57h29.758v27.579l-1.545-0.001v0.53l-0.004-0.53h-1.259v1.063  l2.808,0.001l0,0h0.507h0.01h0.022h0.293h0.179h0.025h0.026V5.392H94.589z M6.027,6.454h27.1v29.757h-27.1V6.454z M6.027,37.273  h27.1v13.575c-7.632,0.275-13.778,6.422-14.054,14.054H6.027V37.273z M33.127,93.525c-13.597-0.004-24.687-0.008-27.1-0.01v-27.55  h13.046c0.275,7.632,6.422,13.777,14.054,14.054V93.525z M21.172,65.435c0-6.886,5.602-12.488,12.486-12.488  s12.487,5.603,12.487,12.488c0,6.884-5.603,12.486-12.487,12.486S21.172,72.318,21.172,65.435z M63.152,93.535  c-9.449-0.003-19.728-0.006-28.963-0.01V80.02c7.633-0.276,13.778-6.422,14.054-14.054h14.909V93.535z M63.152,64.902H48.243  c-0.275-7.632-6.421-13.778-14.054-14.054V37.273H48.7c0.276,7.853,6.6,14.176,14.452,14.453V64.902z M48.7,36.211H34.189V6.454  h28.943v1.247h0.02v14.057C55.3,22.035,48.977,28.358,48.7,36.211z M64.195,6.84V6.454h29.777v29.757H78.668  c-0.277-7.853-6.601-14.176-14.453-14.453V6.84H64.195z M64.215,64.902V51.727c7.853-0.277,14.176-6.601,14.453-14.453h15.305  v27.629H64.215z"/><text x="0" y="115" fill="#000000" font-size="5px" font-weight="bold" font-family="'Helvetica Neue', Helvetica, Arial-Unicode, Arial, Sans-serif">Created by Duygu Ozkan</text><text x="0" y="120" fill="#000000" font-size="5px" font-weight="bold" font-family="'Helvetica Neue', Helvetica, Arial-Unicode, Arial, Sans-serif">from the Noun Project</text></svg>