<svg xmlns="http://www.w3.org/2000/svg" xmlns:xlink="http://www.w3.org/1999/xlink" version="1.1" x="0px" y="0px" viewBox="0 0 100 125" enable-background="new 0 0 100 100" xml:space="preserve"><g><path fill="#000000" d="M9.999,34.256c-0.188,6.84,4.562,9.594,4.764,9.708l1.529,0.861l-0.795-1.566   c-2.913-5.741-2.305-13.345,1.416-17.685l1.724-2.011l-2.367,1.19C16.022,24.879,10.175,27.891,9.999,34.256z M13.664,41.683   c-1.234-1.329-2.703-3.699-2.602-7.397c0.087-3.177,1.815-5.464,3.343-6.874C12.261,31.526,11.96,36.923,13.664,41.683z"/><path fill="#000000" d="M19.319,21.041c-7.755,0-14.064,6.309-14.064,14.063c0,7.754,6.309,14.063,14.064,14.063   c7.754,0,14.063-6.309,14.063-14.063C33.382,27.349,27.073,21.041,19.319,21.041z M19.319,48.103c-7.168,0-13-5.832-13-12.999   c0-7.168,5.832-13,13-13c7.167,0,13,5.832,13,13C32.318,42.271,26.486,48.103,19.319,48.103z"/><path fill="#000000" d="M19.319,51.567c-7.755,0-14.064,6.308-14.064,14.063c0,7.755,6.309,14.063,14.064,14.063   c7.754,0,14.063-6.309,14.063-14.063C33.382,57.875,27.073,51.567,19.319,51.567z M19.319,78.629c-7.168,0-13-5.832-13-13   c0-7.167,5.832-12.999,13-12.999c7.167,0,13,5.832,13,12.999C32.318,72.797,26.486,78.629,19.319,78.629z"/><path fill="#000000" d="M9.999,64.782c-0.188,6.84,4.562,9.594,4.764,9.708l1.529,0.861l-0.795-1.565   c-2.913-5.742-2.305-13.346,1.416-17.686l1.724-2.011l-2.367,1.19C16.022,55.405,10.175,58.417,9.999,64.782z M13.664,72.208   c-1.234-1.328-2.703-3.699-2.602-7.397c0.087-3.177,1.815-5.464,3.343-6.874C12.261,62.052,11.96,67.449,13.664,72.208z"/><path fill="#000000" d="M49.823,51.567c-7.754,0-14.064,6.308-14.064,14.063c0,7.755,6.31,14.063,14.064,14.063   s14.064-6.309,14.064-14.063C63.887,57.875,57.578,51.567,49.823,51.567z M49.823,78.629c-7.168,0-13-5.832-13-13   c0-7.167,5.832-12.999,13-12.999c7.168,0,13,5.832,13,12.999C62.823,72.797,56.991,78.629,49.823,78.629z"/><path fill="#000000" d="M40.503,64.782c-0.188,6.84,4.562,9.594,4.764,9.708l1.529,0.861l-0.794-1.565   c-2.914-5.742-2.305-13.346,1.416-17.686l1.725-2.011l-2.367,1.19C46.526,55.405,40.679,58.417,40.503,64.782z M44.169,72.208   c-1.234-1.328-2.704-3.699-2.602-7.397c0.088-3.177,1.816-5.464,3.344-6.874C42.765,62.052,42.465,67.449,44.169,72.208z"/><path fill="#000000" d="M49.823,20.307c-8.066,0-14.607,6.541-14.607,14.606c0,8.067,6.541,14.606,14.607,14.606   c8.068,0,14.606-6.539,14.606-14.606C64.429,26.848,57.891,20.307,49.823,20.307z M45.187,43.979c0,0-5.045-2.842-4.85-9.964   c0.183-6.606,6.454-9.76,6.454-9.76C42.489,29.273,41.997,37.693,45.187,43.979z"/><path fill="#000000" d="M80.139,49.52c8.068,0,14.606-6.539,14.606-14.606c0-8.066-6.538-14.606-14.606-14.606   c-8.066,0-14.606,6.541-14.606,14.606C65.532,42.981,72.073,49.52,80.139,49.52z M77.106,24.255   c-4.301,5.018-4.793,13.438-1.604,19.725c0,0-5.045-2.842-4.85-9.964C70.836,27.409,77.106,24.255,77.106,24.255z"/><path fill="#000000" d="M80.139,50.091c-8.066,0-14.606,6.541-14.606,14.606c0,8.067,6.541,14.607,14.606,14.607   c8.068,0,14.606-6.54,14.606-14.607C94.745,56.632,88.207,50.091,80.139,50.091z M75.502,73.763c0,0-5.045-2.842-4.85-9.964   c0.183-6.606,6.454-9.76,6.454-9.76C72.806,59.058,72.313,67.478,75.502,73.763z"/></g><text x="0" y="115" fill="#000000" font-size="5px" font-weight="bold" font-family="'Helvetica Neue', Helvetica, Arial-Unicode, Arial, Sans-serif">Created by Duygu Ozkan</text><text x="0" y="120" fill="#000000" font-size="5px" font-weight="bold" font-family="'Helvetica Neue', Helvetica, Arial-Unicode, Arial, Sans-serif">from the Noun Project</text></svg>