<?xml version="1.0" encoding="UTF-8" standalone="no"?>
<svg
   width="51.660782pt"
   height="49.499992pt"
   version="1.1"
   viewBox="0 0 51.660782 49.499992"
   id="svg909"
   sodipodi:docname="bad.svg"
   inkscape:version="1.3.2 (091e20e, 2023-11-25)"
   xmlns:inkscape="http://www.inkscape.org/namespaces/inkscape"
   xmlns:sodipodi="http://sodipodi.sourceforge.net/DTD/sodipodi-0.dtd"
   xmlns="http://www.w3.org/2000/svg"
   xmlns:svg="http://www.w3.org/2000/svg">
  <sodipodi:namedview
     id="namedview911"
     pagecolor="#ffffff"
     bordercolor="#666666"
     borderopacity="1.0"
     inkscape:pageshadow="2"
     inkscape:pageopacity="0.0"
     inkscape:pagecheckerboard="0"
     inkscape:document-units="px"
     showgrid="false"
     fit-margin-top="0"
     fit-margin-left="0"
     fit-margin-right="0"
     fit-margin-bottom="0"
     inkscape:zoom="3.0814286"
     inkscape:cx="-20.120538"
     inkscape:cy="2.433936"
     inkscape:window-width="1448"
     inkscape:window-height="978"
     inkscape:window-x="0"
     inkscape:window-y="25"
     inkscape:window-maximized="0"
     inkscape:current-layer="svg909"
     inkscape:showpageshadow="2"
     inkscape:deskcolor="#d1d1d1" />
  <defs
     id="defs869" />
  <path
     d="M 48.829576,1.3467934 H 37.857903 c -0.919211,0 -1.664097,0.7448855 -1.664097,1.6641059 V 3.5655949 C 31.456596,1.6242084 23.579845,1.1249132 20.606392,1.1249132 H 12.563161 C 10.949145,1.1229926 9.3855841,1.6845736 8.1403951,2.7107825 6.8952926,3.7374812 6.0468567,5.1652928 5.7402866,6.7496448 L 2.7557993,17.521747 C 0.10413696,25.043364 1.258173,29.037206 2.7002933,31.079263 3.829006,32.727014 5.7065798,33.70126 7.7035012,33.675515 h 6.5901058 c -0.337782,2.715561 -0.24417,5.467259 0.277347,8.15404 1.419908,5.691166 4.337567,6.54547 5.979864,6.54547 0.188702,9.61e-4 0.377892,-0.0099 0.565596,-0.03371 2.241119,-0.266459 4.271257,-2.218802 4.271257,-4.082471 -0.216426,-3.383227 0.971231,-6.706484 3.283577,-9.185713 2.146538,-1.889405 4.732775,-3.209277 7.522126,-3.838282 v 0.100046 -5.09e-4 c 0,0.91922 0.744886,1.664105 1.664097,1.664105 h 10.972172 -4.99e-4 c 0.919211,0 1.664097,-0.744885 1.664097,-1.664105 V 3.0110817 c 0,-0.4412923 -0.175325,-0.8647419 -0.487349,-1.176757 C 49.693876,1.5223097 49.270418,1.3469759 48.829144,1.3469759 Z M 36.193806,27.806336 c -2.296529,0.521527 -6.833669,1.875086 -9.873681,4.903691 -2.922605,3.079567 -4.461438,7.219099 -4.260348,11.46005 -0.334304,0.543315 -0.926155,0.875132 -1.564071,0.87663 -1.064823,-0.03313 -2.074649,-1.542252 -2.695779,-4.016159 -0.842943,-3.383739 0.02228,-8.697963 0.03323,-8.753372 0.07779,-0.481406 -0.05945,-0.97271 -0.375407,-1.344207 -0.31599,-0.371459 -0.779053,-0.585906 -1.266901,-0.585906 H 7.7038563 c -0.915264,0.02478 -1.7789688,-0.423959 -2.285111,-1.187167 -0.6547505,-0.920699 -1.9082941,-3.79428 0.4992279,-10.583947 0.010851,-0.04456 0.022279,-0.07779 0.033227,-0.110936 L 8.968895,7.5705581 C 8.9797465,7.5259996 8.9911742,7.4705127 9.0021217,7.4264441 9.1531789,6.5924128 9.5924737,5.8376457 10.243268,5.2938497 10.894542,4.7505338 11.715667,4.452885 12.563633,4.4533844 h 8.043219 c 5.691166,0 13.146733,1.1757584 15.587415,2.8289072 z"
     id="path871"
     style="stroke:#000000;stroke-width:2.24982;stroke-miterlimit:4;stroke-dasharray:none;stroke-opacity:0" />
</svg>
