<?xml version="1.0" encoding="UTF-8" standalone="no"?>
<svg
   width="68.896767pt"
   height="49.5pt"
   version="1.1"
   viewBox="0 0 68.896766 49.5"
   id="svg1646"
   sodipodi:docname="very-bad.svg"
   inkscape:version="1.3.2 (091e20e, 2023-11-25)"
   xmlns:inkscape="http://www.inkscape.org/namespaces/inkscape"
   xmlns:sodipodi="http://sodipodi.sourceforge.net/DTD/sodipodi-0.dtd"
   xmlns="http://www.w3.org/2000/svg"
   xmlns:svg="http://www.w3.org/2000/svg">
  <sodipodi:namedview
     id="namedview1648"
     pagecolor="#ffffff"
     bordercolor="#666666"
     borderopacity="1.0"
     inkscape:pageshadow="2"
     inkscape:pageopacity="0.0"
     inkscape:pagecheckerboard="0"
     inkscape:document-units="px"
     showgrid="false"
     fit-margin-top="0"
     fit-margin-left="0"
     fit-margin-right="0"
     fit-margin-bottom="0"
     inkscape:zoom="4.3577981"
     inkscape:cx="16.063158"
     inkscape:cy="2.8684211"
     inkscape:window-width="1512"
     inkscape:window-height="950"
     inkscape:window-x="0"
     inkscape:window-y="25"
     inkscape:window-maximized="0"
     inkscape:current-layer="svg1646"
     inkscape:showpageshadow="2"
     inkscape:deskcolor="#d1d1d1" />
  <defs
     id="defs1606" />
  <g
     id="g2467"
     style="stroke:#000000;stroke-width:2.24999997;stroke-miterlimit:4;stroke-dasharray:none;stroke-opacity:0"
     transform="matrix(0.99997782,0,0,-0.99997782,-0.00804819,49.499575)"
     inkscape:export-filename="/Users/patrick/dev/littlego/resource/icon/thumbs-up-down/very-good@3x.png"
     inkscape:export-xdpi="96"
     inkscape:export-ydpi="96">
    <path
       id="path1608"
       style="stroke:#000000;stroke-width:3.00000004;stroke-miterlimit:4;stroke-dasharray:none;stroke-opacity:0"
       transform="scale(0.74999998)"
       d="m 27.306641,1.5 c -2.206443,0.029294 -6.027821,1.2492175 -7.908203,8.728516 -0.696354,3.581821 -0.820279,7.251113 -0.369141,10.871093 h -8.804688 c -2.6675981,-0.03432 -5.1758585,1.263832 -6.6835934,3.460938 -1.9265986,2.722116 -3.46814401,8.048501 0.074219,18.078125 l 3.9882812,14.363281 c 0.4095372,2.112494 1.5417588,4.015943 3.2050782,5.384766 1.66328,1.368285 3.751933,2.115304 5.908203,2.113281 h 10.744141 c 2.023955,0 5.751429,-0.177307 9.755859,-0.689453 -0.863444,-0.350636 -1.678341,-0.823412 -2.408203,-1.423828 -0.871684,-0.71735 -1.591855,-1.584564 -2.144532,-2.548828 -1.782153,0.138556 -3.550623,0.224609 -5.203124,0.224609 H 16.716797 c -1.132668,6.79e-4 -2.229556,-0.396682 -3.099609,-1.121094 -0.869351,-0.725078 -1.456411,-1.731719 -1.658204,-2.84375 -0.0145,-0.05941 -0.03042,-0.132634 -0.04492,-0.191406 L 7.8828125,41.378906 c -0.014496,-0.0443 -0.028344,-0.089 -0.042969,-0.148437 C 4.6238131,32.177467 6.2972271,28.347487 7.171875,27.119141 7.8480401,26.101531 9.0020783,25.5041 10.224609,25.537109 H 21.5625 c 0.651689,0 1.26931,-0.285974 1.691406,-0.78125 0.42211,-0.495277 0.605839,-1.151016 0.501953,-1.792968 -0.01449,-0.07401 -1.171586,-7.145111 -0.04492,-11.671875 0.829644,-3.2985722 2.179007,-5.3092253 3.601562,-5.353516 0.846192,0.025096 1.62671,0.4607141 2.089844,1.1679688 -0.241808,5.0905862 1.40556,10.0669382 4.583984,14.0058592 0.07993,-0.0014 0.158043,-0.01275 0.238281,-0.01172 h 6.453125 C 39.825739,20.534109 39.007223,19.915321 38.234376,19.236327 35.145375,15.930482 33.560496,11.49914 33.84961,6.9882802 33.84961,4.5033559 31.136395,1.8994254 28.142579,1.5449209 27.903575,1.5153708 27.621874,1.4958149 27.306641,1.5 Z"
       sodipodi:nodetypes="sccccccccscccsccccccccscccccccccccs" />
    <path
       d="M 66.113679,16.501708 H 55.121268 c -0.92095,0 -1.667242,0.744893 -1.667242,1.664127 v 0.100047 -5.08e-4 c -2.794626,-0.629 -5.385751,-1.948896 -7.536343,-3.838325 -2.316751,-2.479384 -3.506618,-5.802689 -3.289782,-9.185834 0,-1.863694 -2.033978,-3.816641 -4.27934,-4.082519 -1.434019,-0.17730697 -4.946228,0.100038 -6.557839,6.512329 v -5.09e-4 c -0.522508,2.686816 -0.616287,5.438674 -0.277874,8.154137 h -6.602559 c -2.000699,-0.02574 -3.881862,0.948456 -5.012663,2.596285 -1.444949,2.041587 -2.60116,6.035475 0.05561,13.557693 l 2.990124,10.772241 c 0.307152,1.58437 1.157154,3.012283 2.404643,4.038898 1.24746,1.02622 2.813936,1.58742 4.431138,1.5859 h 8.058426 c 2.978684,0 10.870326,-0.49924 15.616871,-2.440712 v 0.554702 c 0,0.91923 0.746293,1.66412 1.667251,1.66412 H 66.1146 66.11409 c 0.920959,0 1.667251,-0.74489 1.667251,-1.66412 V 18.165969 c 0,-0.441293 -0.175657,-0.864753 -0.488275,-1.176766 -0.312599,-0.312021 -0.736864,-0.48736 -1.178976,-0.48736 z m -12.659653,25.71562 c -2.445303,1.653217 -9.9147,2.828945 -15.61688,2.828945 h -8.058427 c -0.849501,5.09e-4 -1.672206,-0.297175 -2.324747,-0.840484 -0.652013,-0.543809 -1.092153,-1.298584 -1.243497,-2.132607 -0.01087,-0.04456 -0.02232,-0.100048 -0.03319,-0.144127 L 23.153877,31.034468 c -0.01087,-0.03323 -0.02232,-0.06636 -0.03329,-0.110938 -2.412023,-6.789751 -1.156163,-9.662823 -0.500177,-10.584083 0.507124,-0.763207 1.372538,-1.211932 2.289437,-1.187175 h 8.503021 c 0.488767,0 0.95272,-0.214453 1.269292,-0.58591 0.316582,-0.371458 0.454033,-0.862765 0.376119,-1.344229 -0.01087,-0.05551 -0.878288,-5.358409 -0.03329,-8.753482 0.622234,-2.473929 1.633961,-3.98299 2.700877,-4.016208 0.634644,0.01882 1.219674,0.346201 1.567024,0.876642 -0.201452,4.241012 1.340279,8.380585 4.268411,11.460196 3.045755,3.028647 7.591473,4.382133 9.89234,4.90375 z"
       id="path940"
       style="stroke:#000000;stroke-width:2.24999997;stroke-miterlimit:4;stroke-dasharray:none;stroke-opacity:0" />
  </g>
</svg>
