<?xml version="1.0" encoding="UTF-8" standalone="no"?>
<svg
   width="68.896767pt"
   height="49.5pt"
   version="1.1"
   viewBox="0 0 68.896766 49.5"
   id="svg1646"
   sodipodi:docname="very-good.svg"
   inkscape:version="1.1.2 (b8e25be8, 2022-02-05)"
   xmlns:inkscape="http://www.inkscape.org/namespaces/inkscape"
   xmlns:sodipodi="http://sodipodi.sourceforge.net/DTD/sodipodi-0.dtd"
   xmlns="http://www.w3.org/2000/svg"
   xmlns:svg="http://www.w3.org/2000/svg">
  <sodipodi:namedview
     id="namedview1648"
     pagecolor="#ffffff"
     bordercolor="#666666"
     borderopacity="1.0"
     inkscape:pageshadow="2"
     inkscape:pageopacity="0.0"
     inkscape:pagecheckerboard="0"
     inkscape:document-units="px"
     showgrid="false"
     fit-margin-top="0"
     fit-margin-left="0"
     fit-margin-right="0"
     fit-margin-bottom="0"
     inkscape:zoom="4.3577981"
     inkscape:cx="44.517895"
     inkscape:cy="49.79579"
     inkscape:window-width="1511"
     inkscape:window-height="950"
     inkscape:window-x="0"
     inkscape:window-y="25"
     inkscape:window-maximized="0"
     inkscape:current-layer="svg1646" />
  <defs
     id="defs1606">
    <symbol
       id="o"
       overflow="visible">
      <path
         d="m 29.312,-1.75 c -1.5117,0.78125 -3.0898,1.3711 -4.7344,1.7656 -1.6367,0.40625 -3.3398,0.60938 -5.1094,0.60938 -5.3125,0 -9.5273,-1.4844 -12.641,-4.4531 -3.1055,-2.9688 -4.6562,-7 -4.6562,-12.094 0,-5.094 1.5508,-9.125 4.6562,-12.094 3.1133,-2.9688 7.3281,-4.4531 12.641,-4.4531 1.7695,0 3.4727,0.19922 5.1094,0.59375 1.6445,0.39844 3.2227,0.99219 4.7344,1.7812 v 6.5938 c -1.5312,-1.0391 -3.0391,-1.8008 -4.5156,-2.2812 -1.4805,-0.48828 -3.0391,-0.73438 -4.6719,-0.73438 -2.9375,0 -5.2461,0.94531 -6.9219,2.8281 -1.6797,1.875 -2.5156,4.4648 -2.5156,7.7656 0,3.293 0.83594,5.8828 2.5156,7.7656 1.6758,1.875 3.9844,2.8125 6.9219,2.8125 1.6328,0 3.1914,-0.23828 4.6719,-0.71875 1.4766,-0.48828 2.9844,-1.2539 4.5156,-2.2969 z"
         id="path1561" />
    </symbol>
    <symbol
       id="h"
       overflow="visible">
      <path
         d="m 21.453,-17.406 c -0.67969,-0.3125 -1.3516,-0.53906 -2.0156,-0.6875 -0.65625,-0.15625 -1.3203,-0.23438 -1.9844,-0.23438 -1.9688,0 -3.4844,0.63281 -4.5469,1.8906 -1.0547,1.2617 -1.5781,3.0703 -1.5781,5.4219 V 6.2e-4 H 3.6718 v -23.922 h 7.6562 v 3.9219 c 0.97656,-1.5625 2.1016,-2.7031 3.375,-3.4219 1.2812,-0.71875 2.8125,-1.0781 4.5938,-1.0781 0.25,0 0.52344,0.01172 0.82812,0.03125 0.30078,0.02344 0.73438,0.07031 1.2969,0.14062 z"
         id="path1564" />
    </symbol>
    <symbol
       id="a"
       overflow="visible">
      <path
         d="m 27.562,-12.031 v 2.1875 H 9.671 c 0.1875,1.793 0.83203,3.1367 1.9375,4.0312 1.1133,0.89844 2.6719,1.3438 4.6719,1.3438 1.6016,0 3.25,-0.23438 4.9375,-0.70312 1.6875,-0.47656 3.4219,-1.2031 5.2031,-2.1719 v 5.8906 c -1.8047,0.6875 -3.6094,1.2031 -5.4219,1.5469 -1.8125,0.35156 -3.6211,0.53125 -5.4219,0.53125 -4.3359,0 -7.7031,-1.0977 -10.109,-3.2969 -2.3984,-2.207 -3.5938,-5.2969 -3.5938,-9.2656 0,-3.9062 1.1758,-6.9727 3.5312,-9.2031 2.3633,-2.2383 5.6094,-3.3594 9.7344,-3.3594 3.7578,0 6.7695,1.1367 9.0312,3.4062 2.2578,2.2617 3.3906,5.2812 3.3906,9.0625 z m -7.8594,-2.5312 c 0,-1.457 -0.42969,-2.6289 -1.2812,-3.5156 -0.84375,-0.89453 -1.9492,-1.3438 -3.3125,-1.3438 -1.4922,0 -2.6992,0.41797 -3.625,1.25 -0.91797,0.83594 -1.4922,2.0391 -1.7188,3.6094 z"
         id="path1567" />
    </symbol>
    <symbol
       id="g"
       overflow="visible">
      <path
         d="m 14.391,-10.766 c -1.5938,0 -2.793,0.27344 -3.5938,0.8125 -0.80469,0.54297 -1.2031,1.3398 -1.2031,2.3906 0,0.96875 0.32031,1.7305 0.96875,2.2812 0.64453,0.54297 1.5469,0.8125 2.7031,0.8125 1.4375,0 2.6445,-0.51562 3.625,-1.5469 0.98828,-1.0312 1.4844,-2.3203 1.4844,-3.875 v -0.875 z m 11.688,-2.8906 V -6e-4 h -7.7031 v -3.5469 c -1.0312,1.4492 -2.1875,2.5078 -3.4688,3.1719 -1.2813,0.6641 -2.8398,1 -4.6719,1 -2.4805,0 -4.4961,-0.72266 -6.0469,-2.1719 -1.543,-1.4453 -2.3125,-3.3203 -2.3125,-5.625 0,-2.8125 0.96094,-4.8672 2.8906,-6.1719 1.9375,-1.3125 4.9688,-1.9688 9.0938,-1.9688 h 4.5156 v -0.60938 c 0,-1.207 -0.48047,-2.0938 -1.4375,-2.6562 -0.94922,-0.5625 -2.4375,-0.84375 -4.4688,-0.84375 -1.6367,0 -3.1562,0.16797 -4.5625,0.5 -1.4062,0.32422 -2.7188,0.8125 -3.9375,1.4688 v -5.8281 c 1.6445,-0.40625 3.2891,-0.70703 4.9375,-0.90625 1.6562,-0.20703 3.3047,-0.3125 4.9531,-0.3125 4.3203,0 7.4375,0.85547 9.3438,2.5625 1.9141,1.6992 2.875,4.4609 2.875,8.2812 z"
         id="path1570" />
    </symbol>
    <symbol
       id="f"
       overflow="visible">
      <path
         d="m 12.031,-30.719 v 6.7969 h 7.875 v 5.4688 h -7.875 v 10.141 c 0,1.1172 0.21875,1.8711 0.65625,2.2656 0.4375,0.38672 1.3125,0.57812 2.625,0.57812 h 3.9375 v 5.4688 h -6.5625 c -3.0234,0 -5.1641,-0.62891 -6.4219,-1.8906 -1.2617,-1.2578 -1.8906,-3.3984 -1.8906,-6.4219 v -10.141 h -3.7969 v -5.4688 h 3.7969 v -6.7969 z"
         id="path1573" />
    </symbol>
    <symbol
       id="e"
       overflow="visible">
      <path
         d="m 19.953,-20.422 v -12.812 h 7.6875 V 0 H 19.953 v -3.4531 c -1.0547,1.4062 -2.2148,2.4375 -3.4844,3.0938 -1.2734,0.65625 -2.7422,0.98438 -4.4062,0.98438 -2.9492,0 -5.3711,-1.1719 -7.2656,-3.5156 -1.8867,-2.3438 -2.8281,-5.3594 -2.8281,-9.0469 0,-3.6875 0.94141,-6.7031 2.8281,-9.0469 1.8945,-2.3438 4.3164,-3.5156 7.2656,-3.5156 1.6562,0 3.1172,0.33594 4.3906,1 1.2812,0.65625 2.4453,1.6836 3.5,3.0781 z m -5.0469,15.484 c 1.6445,0 2.8945,-0.59766 3.75,-1.7969 0.86328,-1.1953 1.2969,-2.9297 1.2969,-5.2031 0,-2.2812 -0.43359,-4.0195 -1.2969,-5.2188 -0.85547,-1.1953 -2.1055,-1.7969 -3.75,-1.7969 -1.625,0 -2.8711,0.60156 -3.7344,1.7969 -0.85547,1.1992 -1.2812,2.9375 -1.2812,5.2188 0,2.2734 0.42578,4.0078 1.2812,5.2031 0.86328,1.1992 2.1094,1.7969 3.7344,1.7969 z"
         id="path1576" />
    </symbol>
    <symbol
       id="d"
       overflow="visible">
      <path
         d="m 16.406,-4.9375 c 1.6328,0 2.8828,-0.59766 3.75,-1.7969 0.86328,-1.1953 1.2969,-2.9297 1.2969,-5.2031 0,-2.2812 -0.43359,-4.0195 -1.2969,-5.2188 -0.86719,-1.1953 -2.1172,-1.7969 -3.75,-1.7969 -1.6367,0 -2.8906,0.60547 -3.7656,1.8125 -0.875,1.1992 -1.3125,2.9336 -1.3125,5.2031 0,2.2617 0.4375,3.9961 1.3125,5.2031 0.875,1.1992 2.1289,1.7969 3.7656,1.7969 z m -5.0781,-15.484 c 1.0508,-1.3945 2.2188,-2.4219 3.5,-3.0781 1.2812,-0.66406 2.7539,-1 4.4219,-1 2.9453,0 5.3672,1.1719 7.2656,3.5156 1.8945,2.3438 2.8438,5.3594 2.8438,9.0469 0,3.6875 -0.94922,6.7031 -2.8438,9.0469 -1.8984,2.3438 -4.3203,3.5156 -7.2656,3.5156 -1.668,0 -3.1406,-0.33594 -4.4219,-1 -1.2813,-0.66406 -2.4492,-1.6914 -3.5,-3.0781 V 4e-4 H 3.6717 v -33.234 h 7.6562 z"
         id="path1579" />
    </symbol>
    <symbol
       id="c"
       overflow="visible">
      <path
         d="m 0.53125,-23.922 h 7.6562 l 6.4219,16.234 5.4688,-16.234 h 7.6562 l -10.062,26.188 c -1.0117,2.6641 -2.1953,4.5234 -3.5469,5.5781 -1.3438,1.0625 -3.1211,1.5938 -5.3281,1.5938 H 4.37545 V 4.4223 h 2.3906 c 1.3008,0 2.2422,-0.21094 2.8281,-0.625 0.59375,-0.40625 1.0547,-1.1484 1.3906,-2.2188 l 0.20312,-0.65625 z"
         id="path1582" />
    </symbol>
    <symbol
       id="b"
       overflow="visible">
      <path
         d="m 0.21875,-31.891 h 29.391 v 6.2188 h -10.578 V -2e-4 h -8.2188 v -25.672 h -10.594 z"
         id="path1585" />
    </symbol>
    <symbol
       id="n"
       overflow="visible">
      <path
         d="M 27.734,-14.562 V 0 h -7.7031 v -11.109 c 0,-2.0938 -0.04687,-3.5312 -0.14062,-4.3125 -0.08594,-0.78125 -0.24219,-1.3594 -0.46875,-1.7344 -0.30469,-0.5 -0.71094,-0.88281 -1.2188,-1.1562 -0.51172,-0.28125 -1.0938,-0.42188 -1.75,-0.42188 -1.5938,0 -2.8516,0.61719 -3.7656,1.8438 -0.90625,1.2305 -1.3594,2.9375 -1.3594,5.125 v 11.766 h -7.6562 v -33.234 h 7.6562 v 12.812 c 1.1445,-1.3945 2.3633,-2.4219 3.6562,-3.0781 1.3008,-0.66406 2.7383,-1 4.3125,-1 2.7578,0 4.8516,0.85156 6.2812,2.5469 1.4375,1.6875 2.1562,4.1523 2.1562,7.3906 z"
         id="path1588" />
    </symbol>
    <symbol
       id="m"
       overflow="visible">
      <path
         d="m 4.0156,-31.891 h 8.2188 V 0 H 4.0156 Z"
         id="path1591" />
    </symbol>
    <symbol
       id="l"
       overflow="visible">
      <path
         d="m 23,-23.172 v 6.2344 c -1.0312,-0.71875 -2.0742,-1.2422 -3.125,-1.5781 -1.043,-0.34375 -2.125,-0.51562 -3.25,-0.51562 -2.1367,0 -3.8047,0.625 -5,1.875 -1.1875,1.2422 -1.7812,2.9805 -1.7812,5.2188 0,2.2305 0.59375,3.9688 1.7812,5.2188 1.1953,1.25 2.8633,1.875 5,1.875 1.1953,0 2.332,-0.17578 3.4062,-0.53125 1.0703,-0.36328 2.0625,-0.89453 2.9688,-1.5938 v 6.2656 c -1.1875,0.4375 -2.4023,0.76562 -3.6406,0.98438 -1.2305,0.22656 -2.4648,0.34375 -3.7031,0.34375 -4.3125,0 -7.6875,-1.1094 -10.125,-3.3281 -2.4375,-2.2187 -3.6562,-5.2969 -3.6562,-9.2344 0,-3.9453 1.2188,-7.0234 3.6562,-9.2344 2.4375,-2.2188 5.8125,-3.3281 10.125,-3.3281 1.25,0 2.4844,0.10938 3.7031,0.32812 1.2187,0.21874 2.4297,0.55469 3.6406,1 z"
         id="path1594" />
    </symbol>
    <symbol
       id="k"
       overflow="visible">
      <path
         d="m 15.062,-19.031 c -1.6992,0 -2.9961,0.60938 -3.8906,1.8281 -0.88672,1.2188 -1.3281,2.9766 -1.3281,5.2656 0,2.293 0.44141,4.0469 1.3281,5.2656 0.89453,1.2188 2.1914,1.8281 3.8906,1.8281 1.6641,0 2.9375,-0.60938 3.8125,-1.8281 0.88281,-1.2188 1.3281,-2.9727 1.3281,-5.2656 0,-2.2891 -0.44531,-4.0469 -1.3281,-5.2656 -0.875,-1.2188 -2.1484,-1.8281 -3.8125,-1.8281 z m 0,-5.4688 c 4.1133,0 7.3281,1.1094 9.6406,3.3281 2.3125,2.2187 3.4688,5.2969 3.4688,9.2344 0,3.9297 -1.1562,7.0078 -3.4688,9.2344 -2.3125,2.2188 -5.5273,3.3281 -9.6406,3.3281 -4.1367,0 -7.3711,-1.1094 -9.7031,-3.3281 -2.3242,-2.2266 -3.4844,-5.3047 -3.4844,-9.2344 0,-3.9375 1.1602,-7.0156 3.4844,-9.2344 2.332,-2.2188 5.5664,-3.3281 9.7031,-3.3281 z"
         id="path1597" />
    </symbol>
    <symbol
       id="j"
       overflow="visible">
      <path
         d="M 27.734,-14.562 V 0 h -7.7031 v -11.156 c 0,-2.0625 -0.04687,-3.4844 -0.14062,-4.2656 -0.08594,-0.78125 -0.24219,-1.3594 -0.46875,-1.7344 -0.30469,-0.5 -0.71094,-0.88281 -1.2188,-1.1562 -0.51172,-0.28125 -1.0938,-0.42188 -1.75,-0.42188 -1.5938,0 -2.8516,0.61719 -3.7656,1.8438 -0.90625,1.2305 -1.3594,2.9375 -1.3594,5.125 v 11.766 h -7.6562 v -23.922 h 7.6562 v 3.5 c 1.1445,-1.3945 2.3633,-2.4219 3.6562,-3.0781 1.3008,-0.66406 2.7383,-1 4.3125,-1 2.7578,0 4.8516,0.85156 6.2812,2.5469 1.4375,1.6875 2.1562,4.1523 2.1562,7.3906 z"
         id="path1600" />
    </symbol>
    <symbol
       id="i"
       overflow="visible">
      <path
         d="m 2.4531,-31.891 h 26.812 v 4.9688 l -17.109,20.703 h 17.594 V -4e-4 H 1.9691 v -4.9844 l 17.109,-20.688 H 2.4531 Z"
         id="path1603" />
    </symbol>
  </defs>
  <g
     id="g2467"
     style="stroke:#000000;stroke-width:2.25;stroke-miterlimit:4;stroke-dasharray:none;stroke-opacity:0"
     transform="matrix(0.99997782,0,0,0.99997782,-0.00804819,4.2385683e-4)"
     inkscape:export-filename="/Users/patrick/dev/littlego/resource/icon/thumbs-up-down/very-good@3x.png"
     inkscape:export-xdpi="96"
     inkscape:export-ydpi="96">
    <path
       id="path1608"
       style="stroke:#000000;stroke-width:3;stroke-miterlimit:4;stroke-dasharray:none;stroke-opacity:0"
       transform="scale(0.74999998)"
       d="m 27.306641,1.5 c -2.206443,0.029294 -6.027821,1.2492175 -7.908203,8.728516 -0.696354,3.581821 -0.820279,7.251113 -0.369141,10.871093 h -8.804688 c -2.6675981,-0.03432 -5.1758585,1.263832 -6.6835934,3.460938 -1.9265986,2.722116 -3.46814401,8.048501 0.074219,18.078125 l 3.9882812,14.363281 c 0.4095372,2.112494 1.5417588,4.015943 3.2050782,5.384766 1.66328,1.368285 3.751933,2.115304 5.908203,2.113281 h 10.744141 c 2.023955,0 5.751429,-0.177307 9.755859,-0.689453 -0.863444,-0.350636 -1.678341,-0.823412 -2.408203,-1.423828 -0.871684,-0.71735 -1.591855,-1.584564 -2.144532,-2.548828 -1.782153,0.138556 -3.550623,0.224609 -5.203124,0.224609 H 16.716797 c -1.132668,6.79e-4 -2.229556,-0.396682 -3.099609,-1.121094 -0.869351,-0.725078 -1.456411,-1.731719 -1.658204,-2.84375 -0.0145,-0.05941 -0.03042,-0.132634 -0.04492,-0.191406 L 7.8828125,41.378906 c -0.014496,-0.0443 -0.028344,-0.089 -0.042969,-0.148437 C 4.6238131,32.177467 6.2972271,28.347487 7.171875,27.119141 7.8480401,26.101531 9.0020783,25.5041 10.224609,25.537109 H 21.5625 c 0.651689,0 1.26931,-0.285974 1.691406,-0.78125 0.42211,-0.495277 0.605839,-1.151016 0.501953,-1.792968 -0.01449,-0.07401 -1.171586,-7.145111 -0.04492,-11.671875 0.829644,-3.2985722 2.179007,-5.3092253 3.601562,-5.353516 0.846192,0.025096 1.62671,0.4607141 2.089844,1.1679688 -0.241808,5.0905862 1.40556,10.0669382 4.583984,14.0058592 0.07993,-0.0014 0.158043,-0.01275 0.238281,-0.01172 h 6.453125 C 39.825739,20.534109 39.007223,19.915321 38.234376,19.236327 35.145375,15.930482 33.560496,11.49914 33.84961,6.9882802 33.84961,4.5033559 31.136395,1.8994254 28.142579,1.5449209 27.903575,1.5153708 27.621874,1.4958149 27.306641,1.5 Z"
       sodipodi:nodetypes="sccccccccscccsccccccccscccccccccccs" />
    <path
       d="M 66.113679,16.501708 H 55.121268 c -0.92095,0 -1.667242,0.744893 -1.667242,1.664127 v 0.100047 -5.08e-4 c -2.794626,-0.629 -5.385751,-1.948896 -7.536343,-3.838325 -2.316751,-2.479384 -3.506618,-5.802689 -3.289782,-9.185834 0,-1.863694 -2.033978,-3.816641 -4.27934,-4.082519 -1.434019,-0.17730697 -4.946228,0.100038 -6.557839,6.512329 v -5.09e-4 c -0.522508,2.686816 -0.616287,5.438674 -0.277874,8.154137 h -6.602559 c -2.000699,-0.02574 -3.881862,0.948456 -5.012663,2.596285 -1.444949,2.041587 -2.60116,6.035475 0.05561,13.557693 l 2.990124,10.772241 c 0.307152,1.58437 1.157154,3.012283 2.404643,4.038898 1.24746,1.02622 2.813936,1.58742 4.431138,1.5859 h 8.058426 c 2.978684,0 10.870326,-0.49924 15.616871,-2.440712 v 0.554702 c 0,0.91923 0.746293,1.66412 1.667251,1.66412 H 66.1146 66.11409 c 0.920959,0 1.667251,-0.74489 1.667251,-1.66412 V 18.165969 c 0,-0.441293 -0.175657,-0.864753 -0.488275,-1.176766 -0.312599,-0.312021 -0.736864,-0.48736 -1.178976,-0.48736 z m -12.659653,25.71562 c -2.445303,1.653217 -9.9147,2.828945 -15.61688,2.828945 h -8.058427 c -0.849501,5.09e-4 -1.672206,-0.297175 -2.324747,-0.840484 -0.652013,-0.543809 -1.092153,-1.298584 -1.243497,-2.132607 -0.01087,-0.04456 -0.02232,-0.100048 -0.03319,-0.144127 L 23.153877,31.034468 c -0.01087,-0.03323 -0.02232,-0.06636 -0.03329,-0.110938 -2.412023,-6.789751 -1.156163,-9.662823 -0.500177,-10.584083 0.507124,-0.763207 1.372538,-1.211932 2.289437,-1.187175 h 8.503021 c 0.488767,0 0.95272,-0.214453 1.269292,-0.58591 0.316582,-0.371458 0.454033,-0.862765 0.376119,-1.344229 -0.01087,-0.05551 -0.878288,-5.358409 -0.03329,-8.753482 0.622234,-2.473929 1.633961,-3.98299 2.700877,-4.016208 0.634644,0.01882 1.219674,0.346201 1.567024,0.876642 -0.201452,4.241012 1.340279,8.380585 4.268411,11.460196 3.045755,3.028647 7.591473,4.382133 9.89234,4.90375 z"
       id="path940"
       style="stroke:#000000;stroke-width:2.25;stroke-miterlimit:4;stroke-dasharray:none;stroke-opacity:0" />
  </g>
</svg>
