<?xml version="1.0" encoding="UTF-8" standalone="no"?>
<svg
   width="66"
   height="53.53064"
   version="1.1"
   viewBox="0 0 49.500001 40.147981"
   id="svg6032"
   sodipodi:docname="markup.svg"
   inkscape:version="1.3.2 (091e20e, 2023-11-25)"
   xmlns:inkscape="http://www.inkscape.org/namespaces/inkscape"
   xmlns:sodipodi="http://sodipodi.sourceforge.net/DTD/sodipodi-0.dtd"
   xmlns="http://www.w3.org/2000/svg"
   xmlns:svg="http://www.w3.org/2000/svg">
  <sodipodi:namedview
     id="namedview6034"
     pagecolor="#ffffff"
     bordercolor="#666666"
     borderopacity="1.0"
     inkscape:pageshadow="2"
     inkscape:pageopacity="0.0"
     inkscape:pagecheckerboard="0"
     inkscape:document-units="pt"
     showgrid="false"
     units="px"
     inkscape:zoom="5.721504"
     inkscape:cx="39.150545"
     inkscape:cy="24.032143"
     inkscape:window-width="1504"
     inkscape:window-height="922"
     inkscape:window-x="0"
     inkscape:window-y="25"
     inkscape:window-maximized="0"
     inkscape:current-layer="svg6032"
     fit-margin-top="0"
     fit-margin-left="0"
     fit-margin-right="0"
     fit-margin-bottom="0"
     inkscape:showpageshadow="2"
     inkscape:deskcolor="#d1d1d1" />
  <defs
     id="defs5954" />
  <g
     id="g6766"
     style="stroke:#000000;stroke-width:23.9665;stroke-miterlimit:4;stroke-dasharray:none;stroke-opacity:0"
     transform="matrix(0.09387403,0,0,0.09387403,-8.105722,-6.2095744)">
    <path
       d="m 402.92,78.641 c 15.121,5.0391 22.68,17.641 22.68,32.762 l -95.762,352.8 c -5.0391,10.078 -15.121,17.641 -25.199,17.641 h -7.5586 c -15.121,-5.0391 -22.68,-17.641 -20.16,-32.762 l 95.762,-352.8 c 2.5156,-12.602 17.637,-20.16 30.238,-17.641 z m 90.719,83.16 100.8,100.8 c 10.078,10.078 10.078,25.199 0,35.281 l -100.8,100.8 c -5.0391,5.0391 -12.602,7.5586 -17.641,7.5586 -5.039,0 -12.602,-2.5195 -17.641,-7.5586 -10.078,-10.078 -10.078,-25.199 0,-35.281 l 83.16,-83.16 -83.16,-83.16 c -10.078,-10.078 -10.078,-25.199 0,-35.281 10.082,-10.078 25.199,-10.078 35.281,0 z m -252,0 c 10.078,10.078 10.078,25.199 0,35.281 l -83.16,83.16 83.16,83.16 c 10.078,10.078 10.078,25.199 0,35.281 -5.0391,5.0391 -10.078,7.5586 -17.641,7.5586 -7.5586,0 -12.602,-2.5195 -17.641,-7.5586 l -100.8,-100.8 c -10.078,-10.078 -10.078,-25.199 0,-35.281 l 100.8,-100.8 c 10.082,-10.078 25.199,-10.078 35.281,0 z"
       fill-rule="evenodd"
       id="path5956"
       style="stroke:#000000;stroke-width:23.9665;stroke-miterlimit:4;stroke-dasharray:none;stroke-opacity:0" />
  </g>
</svg>
